<svg xmlns="http://www.w3.org/2000/svg" width="168.633" height="43.363" viewBox="0 0 168.633 43.363">
  <g id="Group_3008" data-name="Group 3008" transform="translate(-16.992 -9.988)">
    <g id="Group_3000" data-name="Group 3000">
      <g id="Group_700" data-name="Group 700" transform="translate(16.995 9.987)">
        <path id="Path_3543" data-name="Path 3543" d="M66268.375,38946.105a9.463,9.463,0,0,1,4.492-7.922,9.678,9.678,0,0,0-7.6-4.113c-3.242-.324-6.32,1.906-7.969,1.906s-4.172-1.867-6.875-1.812a10.186,10.186,0,0,0-8.594,5.2c-3.672,6.367-.945,15.8,2.633,20.973,1.75,2.531,3.836,5.359,6.57,5.27,2.648-.117,3.625-1.7,6.82-1.7s4.078,1.7,6.859,1.648c2.836-.051,4.617-2.559,6.375-5.105a24.436,24.436,0,0,0,2.891-5.934,9.154,9.154,0,0,1-5.6-8.418Zm-5.219-15.461a9.135,9.135,0,0,0,2.156-6.633,9.332,9.332,0,0,0-6.117,3.148,8.674,8.674,0,0,0-2.2,6.434,7.776,7.776,0,0,0,6.164-2.949Z" transform="translate(-66240.086 -38924.012)" fill="#fff" fill-rule="evenodd"/>
      </g>
      <path id="Path_3544" data-name="Path 3544" d="M270705,113701.984l7.156-18.672h2.75l7.594,18.672h-2.844l-2.125-5.656h-7.937l-1.969,5.656Zm5.375-7.656h6.375l-1.969-5.18c-.625-1.578-1-2.875-1.344-3.906a23.894,23.894,0,0,1-1.031,3.594Zm13.813,12.852v-18.742h2.094v1.8a4.769,4.769,0,0,1,1.656-1.547,4.4,4.4,0,0,1,2.219-.523,5.405,5.405,0,0,1,3.063.891,5.346,5.346,0,0,1,1.969,2.508,8.8,8.8,0,0,1,.688,3.555,8.411,8.411,0,0,1-.75,3.727,5.782,5.782,0,0,1-2.125,2.547,5.638,5.638,0,0,1-3,.875,4.067,4.067,0,0,1-2.031-.477,4.662,4.662,0,0,1-1.531-1.219v6.609Zm2.094-11.883a5.79,5.79,0,0,0,1.031,3.852,3.129,3.129,0,0,0,2.531,1.242,3.325,3.325,0,0,0,2.625-1.289,6.143,6.143,0,0,0,1.063-3.992,5.917,5.917,0,0,0-1.062-3.867,3.175,3.175,0,0,0-2.5-1.281,3.342,3.342,0,0,0-2.625,1.367,6.305,6.305,0,0,0-1.062,3.969Zm12.375,11.883v-18.742h2.094v1.8a5.378,5.378,0,0,1,1.656-1.547,4.605,4.605,0,0,1,2.25-.523,5.334,5.334,0,0,1,3.063.891,4.935,4.935,0,0,1,1.938,2.508,7.874,7.874,0,0,1,.719,3.555,8.868,8.868,0,0,1-.75,3.727,5.645,5.645,0,0,1-2.156,2.547,5.355,5.355,0,0,1-2.937.875,4.4,4.4,0,0,1-2.094-.477,4.128,4.128,0,0,1-1.469-1.219v6.609Zm2.094-11.883a5.618,5.618,0,0,0,1.063,3.852,3.129,3.129,0,0,0,2.531,1.242,3.37,3.37,0,0,0,2.625-1.289,6.136,6.136,0,0,0,1.094-3.992,5.915,5.915,0,0,0-1.094-3.867,3.118,3.118,0,0,0-2.469-1.281,3.157,3.157,0,0,0-2.594,1.367A5.777,5.777,0,0,0,270740.75,113695.3Zm19.156.688,2.25-.211a5.886,5.886,0,0,0,.844,2.328,4.44,4.44,0,0,0,1.813,1.453,7.3,7.3,0,0,0,2.906.555,6.869,6.869,0,0,0,2.469-.414,3.485,3.485,0,0,0,1.625-1.172,2.49,2.49,0,0,0,.5-1.6,2.394,2.394,0,0,0-.469-1.531,4.177,4.177,0,0,0-1.687-1.094,31.972,31.972,0,0,0-3.344-.906,16.025,16.025,0,0,1-3.562-1.172,4.844,4.844,0,0,1-2-1.734,4.559,4.559,0,0,1-.656-2.328,5.053,5.053,0,0,1,.781-2.648,5.283,5.283,0,0,1,2.344-1.867,8.989,8.989,0,0,1,3.5-.648,9.293,9.293,0,0,1,3.594.68,5.611,5.611,0,0,1,2.469,1.961,5.971,5.971,0,0,1,.906,2.961l-2.375.172a3.719,3.719,0,0,0-1.281-2.664,5.269,5.269,0,0,0-3.281-.9,5.353,5.353,0,0,0-3.25.8,2.478,2.478,0,0,0-1.031,1.992,2.174,2.174,0,0,0,.719,1.656,9.75,9.75,0,0,0,3.719,1.32,24.791,24.791,0,0,1,4.125,1.188,5.787,5.787,0,0,1,2.406,1.914,4.479,4.479,0,0,1,.781,2.641,5.1,5.1,0,0,1-.844,2.8,5.52,5.52,0,0,1-2.469,2.047,8.32,8.32,0,0,1-3.594.734,10.957,10.957,0,0,1-4.25-.742,5.88,5.88,0,0,1-2.656-2.211,6.24,6.24,0,0,1-1-3.367Zm22.844,3.969.344,2.008a8.112,8.112,0,0,1-1.75.219,3.933,3.933,0,0,1-1.906-.4,2.172,2.172,0,0,1-.969-1.055,8.065,8.065,0,0,1-.281-2.7v-7.789h-1.687v-1.8h1.688v-3.336l2.313-1.367v4.7h2.25v1.8h-2.25v7.922a5.144,5.144,0,0,0,.094,1.266.847.847,0,0,0,.406.438,1.4,1.4,0,0,0,.75.172,7.073,7.073,0,0,0,1-.078Zm1.406-4.727a7.039,7.039,0,0,1,2.094-5.562,6.43,6.43,0,0,1,4.281-1.5,5.9,5.9,0,0,1,4.531,1.836,6.885,6.885,0,0,1,1.813,5.031,9.187,9.187,0,0,1-.781,4.094,5.674,5.674,0,0,1-2.312,2.328,6.517,6.517,0,0,1-3.25.813,6.026,6.026,0,0,1-4.562-1.8,7.324,7.324,0,0,1-1.812-5.234Zm2.344,0a5.906,5.906,0,0,0,1.156,3.875,3.68,3.68,0,0,0,2.875,1.289,3.617,3.617,0,0,0,2.844-1.289,5.9,5.9,0,0,0,1.125-3.945,5.572,5.572,0,0,0-1.125-3.789,3.669,3.669,0,0,0-2.844-1.3,3.724,3.724,0,0,0-2.875,1.281,5.921,5.921,0,0,0-1.156,3.875Zm13.031,6.758v-13.547h2.031v2.1a5.256,5.256,0,0,1,1.469-1.906,2.712,2.712,0,0,1,1.469-.469,4.6,4.6,0,0,1,2.375.727l-.812,2.117a3.246,3.246,0,0,0-1.656-.461,2.2,2.2,0,0,0-1.375.453,2.63,2.63,0,0,0-.844,1.242,9.089,9.089,0,0,0-.375,2.672v7.07Zm17.938-4.375,2.375.313a5.684,5.684,0,0,1-2.094,3.211,6.2,6.2,0,0,1-3.844,1.133,6.057,6.057,0,0,1-4.687-1.82,7.109,7.109,0,0,1-1.75-5.109,7.5,7.5,0,0,1,1.75-5.289,5.917,5.917,0,0,1,4.563-1.883,5.836,5.836,0,0,1,4.438,1.844,7.4,7.4,0,0,1,1.688,5.188v.617h-10.062a5.144,5.144,0,0,0,1.25,3.414,3.684,3.684,0,0,0,2.813,1.164,3.5,3.5,0,0,0,2.156-.664A4.312,4.312,0,0,0,270817.469,113697.609Zm-7.5-3.672h7.531a4.882,4.882,0,0,0-.875-2.57,3.525,3.525,0,0,0-2.844-1.336,3.679,3.679,0,0,0-2.656,1.07,4.41,4.41,0,0,0-1.156,2.836Z" transform="translate(-270635.563 -113653.828)" fill="#fff"/>
    </g>
    <path id="Path_3545" data-name="Path 3545" d="M401866.906,48704.555a3.086,3.086,0,0,1-1.344,2.785,2.8,2.8,0,0,1-1.687.527H401862a2.646,2.646,0,0,1-2.094-1.012,3.335,3.335,0,0,1-.812-2.3v-2.66h1.156v2.8a1.76,1.76,0,0,0,.563,1.4,2.273,2.273,0,0,0,1.438.512h1.563a1.727,1.727,0,0,0,1.25-.492,1.577,1.577,0,0,0,.688-1.258q0-.639-.844-.832a1.622,1.622,0,0,0-.344-.055h-1.687v-2.207a2.424,2.424,0,0,1,.594-1.641,2.057,2.057,0,0,1,1.563-.645h1.469l.031,1.211h-1.469a.953.953,0,0,0-.906.617c-.062.191-.094.688-.187,1.461a7.02,7.02,0,0,1,2.031.184A1.606,1.606,0,0,1,401866.906,48704.555Zm6.875-1.625a1.632,1.632,0,0,1-.531,1.25,2.092,2.092,0,0,1-1.312.438h-3.781l-.187-1.289h3.906c.5,0,.719-.172.719-.5a.6.6,0,0,0-.219-.469l-2.781-3.074.813-.875,2.781,3.07A2.179,2.179,0,0,1,401873.781,48702.93Zm5.625,1.848a3.06,3.06,0,0,1-.937,2.191,3.175,3.175,0,0,1-2.187.9h-1.562l-.156-1.293h1.563a2.053,2.053,0,0,0,1.438-.527,1.985,1.985,0,0,0,.563-1.43,4.219,4.219,0,0,1-2.187-.434,2.216,2.216,0,0,1-.937-2.062,2.872,2.872,0,0,1,.719-2.262,2.261,2.261,0,0,1,1.5-.4,1.826,1.826,0,0,1,1.875,1.23,8.618,8.618,0,0,1,.313,2.477Zm-1.281-1.449V48702q0-1.254-.937-1.254a.76.76,0,0,0-.781.41,2.033,2.033,0,0,0-.156,1,.976.976,0,0,0,.594,1.043A4.609,4.609,0,0,0,401878.125,48703.328Zm7.125-6.25a.787.787,0,0,1-.219.641.732.732,0,0,1-.594.262q-.937,0-.937-.9c0-.52.281-.785.906-.785C401885,48696.293,401885.25,48696.559,401885.25,48697.078Zm.063,7.313a3.5,3.5,0,0,1-.812,2.43,2.744,2.744,0,0,1-2.219,1.047h-1.625l-.219-1.324h1.375a2.808,2.808,0,0,0,1.563-.441,1.549,1.549,0,0,0,.75-1.406v-4.121h1.188Zm11.219.227a2.257,2.257,0,0,1-1.156-.227,16.946,16.946,0,0,1-1.281-1.18,2.38,2.38,0,0,1-2.281,1.555,2.195,2.195,0,0,1-1.656-.7,2.6,2.6,0,0,1-.656-1.758,4.335,4.335,0,0,1,1.406-2.617l-.344-.414.844-.871,3.688,4.094a4.117,4.117,0,0,0,.594.625,2.014,2.014,0,0,0,.844.2Zm-3.5-2.219a.874.874,0,0,0-.25-.715l-1-1.027c-.312.367-.594.629-.687.754a1.673,1.673,0,0,0-.406.988,1.183,1.183,0,0,0,.344.8,1.156,1.156,0,0,0,.781.313,1.319,1.319,0,0,0,.906-.312A1.588,1.588,0,0,0,401893.031,48702.4Zm6.813.121a2.165,2.165,0,0,1-.5,1.445,1.494,1.494,0,0,1-1.25.652h-2.031v-1.289a13.529,13.529,0,0,0,2.125-.082c.281-.1.438-.488.438-1.156v-1.516h1.219Zm-1.437,4.508a.767.767,0,0,1-.25.625.753.753,0,0,1-.594.258c-.594,0-.969-.3-.969-.883,0-.516.375-.773.938-.773C401898.125,48706.254,401898.406,48706.512,401898.406,48707.027Zm12.625-8.605a.654.654,0,0,1-.719.762c-.594,0-.937-.246-.937-.762,0-.465.313-.711.844-.711S401911.031,48697.957,401911.031,48698.422Zm-2.375,0a.8.8,0,0,1-.187.547.838.838,0,0,1-.531.215c-.562,0-.906-.246-.906-.762,0-.465.25-.711.813-.711C401908.438,48697.711,401908.656,48697.957,401908.656,48698.422Zm6.719,6.2a2.827,2.827,0,0,1-1.969-.5,1.788,1.788,0,0,1-1.187.5h-6.437a1.6,1.6,0,0,1-1.281-.656,2.157,2.157,0,0,1-.469-1.441v-1.945h1.25v1.77a1.238,1.238,0,0,0,.156.77,1,1,0,0,0,.75.215h5.656a1,1,0,0,0,.75-.215,1.2,1.2,0,0,0,.219-.77v-1.77h1.188v1.77c0,.656.469.984,1.375.984Zm3.688-7.852a.808.808,0,0,1-.25.633.705.705,0,0,1-.594.266.8.8,0,0,1-.906-.9c0-.508.313-.762.844-.762C401918.781,48696,401919.063,48696.258,401919.063,48696.766Zm1.531,5.816a1.824,1.824,0,0,1-.562,1.445,1.926,1.926,0,0,1-1.344.59h-3.719v-1.289h3.719c.469,0,.594-.312.594-.949-.594,0-1.344-.055-2.156-.129a1.683,1.683,0,0,1-.937-1.75,2.2,2.2,0,0,1,.5-1.52,1.974,1.974,0,0,1,1.438-.574,2.36,2.36,0,0,1,2.406,2.574Zm-1.312-1.426c-.031-.957-.469-1.434-1.187-1.434-.531,0-.781.23-.781.691,0,.367.063.594.281.68a2.817,2.817,0,0,0,.75.063Zm5.594,3.461a3.061,3.061,0,0,1-2.219-.633,1.8,1.8,0,0,1-.406-1.336v-6.082h1.219v5.52c0,.594.094.953.281,1.094a2.913,2.913,0,0,0,1.125.148Zm3.875-2.1a2.331,2.331,0,0,1-.5,1.445,1.472,1.472,0,0,1-1.281.652h-2.594v-1.289h2.25a.9.9,0,0,0,.656-.215.923.923,0,0,0,.25-.77v-1.77h1.219Zm-.25,4.555a.7.7,0,0,1-.219.547.773.773,0,0,1-.531.211.941.941,0,0,1-.594-.191.675.675,0,0,1-.281-.566c0-.477.219-.715.844-.715C401928.25,48706.359,401928.5,48706.6,401928.5,48707.074Zm-2.344,0a.7.7,0,0,1-.219.547.721.721,0,0,1-.531.211,1.177,1.177,0,0,1-.625-.191.74.74,0,0,1-.25-.566c0-.477.25-.715.813-.715S401926.156,48706.6,401926.156,48707.074Zm8.281-2.684a3.669,3.669,0,0,1-.844,2.434,2.789,2.789,0,0,1-2.25,1.043h-1.625l-.187-1.324h1.375a2.5,2.5,0,0,0,1.531-.441,1.615,1.615,0,0,0,.75-1.406v-4.121h1.25Zm7.156-1.461a1.5,1.5,0,0,1-.594,1.25,1.675,1.675,0,0,1-1.219.438h-3.875l-.125-1.289h3.906c.438,0,.688-.172.688-.5a.519.519,0,0,0-.219-.469l-2.719-3.074.781-.875,2.75,3.07A1.949,1.949,0,0,1,401941.594,48702.93Z" transform="translate(-401755.969 -48683.512)" fill="#fefefe"/>
  </g>
</svg>
