<svg xmlns="http://www.w3.org/2000/svg" width="70.716" height="71.019" viewBox="0 0 70.716 71.019"><g transform="translate(0 0)"><path d="M-768.285-4080.433a33.336,33.336,0,0,1-13.059-2.636,33.431,33.431,0,0,1-10.664-7.19,33.439,33.439,0,0,1-7.19-10.664,33.336,33.336,0,0,1-2.636-13.059,33.335,33.335,0,0,1,2.636-13.059,33.436,33.436,0,0,1,7.19-10.664,33.429,33.429,0,0,1,10.664-7.189,33.336,33.336,0,0,1,13.059-2.637,33.337,33.337,0,0,1,13.059,2.637,33.431,33.431,0,0,1,10.664,7.189,33.438,33.438,0,0,1,7.19,10.664,33.335,33.335,0,0,1,2.636,13.059,33.339,33.339,0,0,1-2.636,13.059,33.441,33.441,0,0,1-7.19,10.664,33.432,33.432,0,0,1-10.664,7.19A33.337,33.337,0,0,1-768.285-4080.433Zm0-61.177a27.659,27.659,0,0,0-27.628,27.628,27.659,27.659,0,0,0,27.628,27.628,27.659,27.659,0,0,0,27.628-27.628A27.659,27.659,0,0,0-768.285-4141.61Z" transform="translate(805.452 4151.452)" fill="#c2e4fd"/><path d="M167.934,177.214a4.142,4.142,0,0,1,0,5.859L151.36,199.647a4.142,4.142,0,0,1-5.859,0l-8.287-8.287a4.143,4.143,0,0,1,5.859-5.859l5.357,5.357,13.644-13.644a4.142,4.142,0,0,1,5.859,0Zm0,0" transform="translate(-116.216 -148.692)" fill="#ffc5c5"/><path d="M67.867,21.775A36.749,36.749,0,0,0,48.94,2.848a33.8,33.8,0,0,0-27.165,0A36.749,36.749,0,0,0,2.849,21.775a33.8,33.8,0,0,0,0,27.165A36.749,36.749,0,0,0,21.776,67.867a33.8,33.8,0,0,0,27.165,0A36.749,36.749,0,0,0,67.867,48.94a33.8,33.8,0,0,0,0-27.165ZM35.358,67.953c-17.669,0-32.6-14.927-32.6-32.6s14.927-32.6,32.6-32.6,32.6,14.927,32.6,32.6S53.027,67.953,35.358,67.953Zm0,0" transform="translate(0 0)" fill="#2b376f"/><path d="M99.487,61.067A30.215,30.215,0,0,0,83.772,45.352,28.552,28.552,0,0,0,72.419,43a29.193,29.193,0,0,0-16.014,5.246,1.381,1.381,0,1,0,1.529,2.3,26.453,26.453,0,0,1,14.485-4.784A26.657,26.657,0,1,1,45.763,72.419a26.469,26.469,0,0,1,4.783-14.486,1.381,1.381,0,0,0-2.3-1.528A29.2,29.2,0,0,0,43,72.419a28.56,28.56,0,0,0,2.351,11.353A30.215,30.215,0,0,0,61.067,99.486a28.58,28.58,0,0,0,22.705,0A30.215,30.215,0,0,0,99.487,83.772a28.58,28.58,0,0,0,0-22.705Zm0,0" transform="translate(-37.061 -37.061)" fill="#2b376f"/><path d="M127.619,183.718,135.906,192a5.523,5.523,0,0,0,7.812,0l16.573-16.573a5.524,5.524,0,1,0-7.812-7.813l-12.668,12.668-4.381-4.381a5.524,5.524,0,1,0-7.812,7.812Zm1.953-5.859a2.761,2.761,0,0,1,3.906,0l6.334,6.335,14.621-14.621a2.762,2.762,0,1,1,3.906,3.906l-16.574,16.574a2.761,2.761,0,0,1-3.906,0l-8.287-8.288a2.761,2.761,0,0,1,0-3.906Zm0,0" transform="translate(-108.597 -143.073)" fill="#2b376f"/><path d="M106.381,105a1.381,1.381,0,1,0,1.381,1.381A1.382,1.382,0,0,0,106.381,105Zm0,0" transform="translate(-90.498 -90.498)" fill="#2b376f"/></g></svg>