<svg xmlns="http://www.w3.org/2000/svg" width="95.506" height="70.245" viewBox="0 0 95.506 70.245"><g transform="translate(24.68 52.157)"><path d="M129.9,336.418a8.5,8.5,0,1,1-8.5,8.5A8.5,8.5,0,0,1,129.9,336.418Z" transform="translate(-121.404 -336.418)" fill="#9ea4c4"/><path d="M363.758,336.418a8.869,8.869,0,1,1-8.868,8.87A8.87,8.87,0,0,1,363.758,336.418Z" transform="translate(-312.002 -336.068)" fill="#9ea4c4"/></g><g transform="translate(28.168 55.431)"><path d="M154.735,366.028A3.731,3.731,0,1,1,151,369.759,3.73,3.73,0,0,1,154.735,366.028Z" transform="translate(-151.004 -366.028)" fill="#fff"/><path d="M388.221,366.028a3.731,3.731,0,1,1-3.731,3.731A3.73,3.73,0,0,1,388.221,366.028Z" transform="translate(-340.937 -366.028)" fill="#fff"/></g><path d="M376.943,196.058c-.278-.021-.559-.03-.842-.03h-6.42l-.831,11.192h7.265c7.926.013,7.74,9.327,14.089,9.327.118-1.591.192-2.923.192-3.731C390.4,203.868,384.451,196.567,376.943,196.058Z" transform="translate(-297.994 -169.51)" fill="#c2e4fd"/><path d="M91.794,87.11,92.86,76.368h50.477l-1.923,21.545-.965,10.8-.8,9H88.754l1.072-10.8Z" transform="translate(-75.604 -70.68)" fill="#ffc5c5"/><path d="M93.384,128.835l.02-.027c.023-.034.044-.069.064-.105l0-.007c.021-.039.04-.079.058-.12,0-.012.009-.024.013-.036.011-.029.023-.058.032-.088s.011-.039.016-.059.013-.046.018-.07.008-.043.011-.064.007-.037.01-.057c.059-.475,1.155-9.265,1.644-14.948,0-.005,0-.011,0-.016.141-1.638.231-3.018.231-3.863A18.208,18.208,0,0,0,77.319,91.188H71.306l1.812-20.8c0-.038,0-.075,0-.112,0,0,0-.006,0-.009h0a1.4,1.4,0,0,0-.844-1.282l-.013-.006c-.031-.013-.063-.024-.1-.035l-.036-.012c-.026-.008-.054-.014-.081-.021L72,68.9c-.024,0-.048-.008-.073-.011s-.045-.007-.068-.009h-.011c-.025,0-.049,0-.073,0l-.049,0H43.092a1.4,1.4,0,0,0,0,2.8H70.2l-2.784,31.968s0,0,0,.007l-.7,8.066H18.1l.813-8.394h9.256a1.4,1.4,0,0,0,0-2.8H19.182L20.9,82.8H35.63a1.4,1.4,0,0,0,0-2.8H21.17l.807-8.331H37.5a1.4,1.4,0,0,0,0-2.8H20.705a1.4,1.4,0,0,0-1.365,1.1s0,.009,0,.014c-.007.035-.012.07-.016.106,0,.011,0,.022,0,.034v.007L18.359,80H1.4a1.4,1.4,0,0,0,0,2.8H18.087l-1.717,17.72H11.379a1.4,1.4,0,1,0,0,2.8H16.1l-.935,9.648v0l-1.445,14.919v.01c0,.019,0,.038,0,.058s0,.051,0,.077c0,0,0,0,0,0,0,.036,0,.071.005.107,0,.011,0,.023,0,.034,0,.036.01.072.016.107,0,.01,0,.021,0,.031.005.027.013.053.02.079s.009.037.014.055,0,.01.005.015a1.4,1.4,0,0,0,.333.548l.008.009c.015.015.031.028.047.043a1.388,1.388,0,0,0,.325.222c.025.012.049.025.075.036l.024.009c.035.014.07.027.107.039l.01,0c.041.012.083.023.126.032l.017,0c.041.008.082.014.123.018h0q.069.007.137.007h6.23a10.649,10.649,0,0,0,21.114,0H64.9a10.649,10.649,0,0,0,21.115,0h6.233c.047,0,.093,0,.138-.007l.024,0c.036,0,.073-.009.108-.016l.045-.011c.027-.006.055-.013.082-.021l.054-.018.068-.025.057-.024.061-.029.056-.03.057-.035.052-.035.056-.041.046-.037c.019-.016.037-.033.056-.051l.038-.037c.019-.02.038-.041.056-.062l.03-.034C93.346,128.887,93.365,128.861,93.384,128.835Zm-.676-19.459c0,.524-.039,1.286-.106,2.2-2.079-.424-3.358-1.885-4.908-3.666-1.938-2.226-4.3-4.943-8.839-5.449l.724-8.31A15.412,15.412,0,0,1,92.708,109.376ZM76.785,93.987l-.731,8.393H70.331l.731-8.393ZM67.992,114.5h0a1.379,1.379,0,0,0,.139-.007l.026,0c.037,0,.073-.01.109-.017l.046-.011c.028-.007.056-.013.083-.021l.054-.019.07-.026.057-.026.061-.029.057-.032.057-.035.053-.036.054-.04.048-.04.052-.047.042-.042.049-.054.037-.044c.015-.02.03-.04.045-.06l.032-.046c.014-.021.027-.043.039-.065s.019-.033.028-.05.022-.044.032-.067.017-.036.024-.054.017-.045.025-.067.014-.04.02-.06.011-.044.017-.066.011-.044.016-.067.007-.044.01-.067.007-.046.01-.069c0,0,0-.007,0-.01l.7-8.049h7.23c4.286,0,6.22,2.221,8.266,4.572,1.689,1.94,3.574,4.1,6.779,4.633-.407,4.3-1.065,9.828-1.359,12.247H86.011a10.649,10.649,0,0,0-21.115,0H42.456a10.649,10.649,0,0,0-21.115,0h-4.69L17.826,114.5H67.992ZM31.9,135.883a7.854,7.854,0,1,1,7.854-7.854A7.863,7.863,0,0,1,31.9,135.883Zm43.554,0a7.854,7.854,0,1,1,7.854-7.854A7.863,7.863,0,0,1,75.453,135.883Z" transform="translate(0 -68.868)" fill="#2b376f"/><path d="M148.638,358.524a5.13,5.13,0,1,0,5.13,5.13A5.136,5.136,0,0,0,148.638,358.524Zm0,7.461a2.332,2.332,0,1,1,2.332-2.332A2.334,2.334,0,0,1,148.638,365.985Z" transform="translate(-116.739 -304.493)" fill="#2b376f"/><path d="M382.126,358.524a5.13,5.13,0,1,0,5.13,5.13A5.136,5.136,0,0,0,382.126,358.524Zm0,7.461a2.332,2.332,0,1,1,2.332-2.332A2.334,2.334,0,0,1,382.126,365.985Z" transform="translate(-306.673 -304.493)" fill="#2b376f"/><path d="M36.472,189.926a1.4,1.4,0,0,0-1.4-1.4h-6.84a1.4,1.4,0,1,0,0,2.8h6.84A1.4,1.4,0,0,0,36.472,189.926Z" transform="translate(-21.829 -166.206)" fill="#2b376f"/></svg>