<svg xmlns="http://www.w3.org/2000/svg" width="169.218" height="42.6" viewBox="0 0 169.218 42.6">
  <g id="Group_3009" data-name="Group 3009" transform="translate(-14.868 -11.525)">
    <path id="Path_3507" data-name="Path 3507" d="M85237.5,9105.722a.717.717,0,0,1,.2-.509.669.669,0,0,1,.5-.213.629.629,0,0,1,.492.213.678.678,0,0,1,.227.509.739.739,0,0,1-.719.7.7.7,0,0,1-.7-.7Zm-1.93,0a.657.657,0,0,1,.2-.509.7.7,0,0,1,.523-.213.635.635,0,0,1,.484.213.71.71,0,0,1,.2.509.67.67,0,0,1-.2.49.645.645,0,0,1-.484.205.709.709,0,0,1-.523-.205A.621.621,0,0,1,85235.57,9105.722Zm7.141,4.958a3.835,3.835,0,0,1-.766-.08,1.477,1.477,0,0,1-.68-.317,1.455,1.455,0,0,1-1.039.4h-5.7a1.37,1.37,0,0,1-1.148-.453,1.89,1.89,0,0,1-.383-1.292v-1.624h1.063v1.458a.848.848,0,0,0,.2.631.874.874,0,0,0,.617.176H85240c.3,0,.477-.065.563-.2a1.05,1.05,0,0,0,.141-.607v-1.458h1.109v1.514a.586.586,0,0,0,.289.6,1.32,1.32,0,0,0,.609.155h.117v1.1Z" transform="translate(-85080.766 -9088.739)" fill="#fefefe"/>
    <g id="Group_3001" data-name="Group 3001">
      <path id="Path_3505" data-name="Path 3505" d="M79446.406,8827.821a.8.8,0,0,1,.234-.579.818.818,0,0,1,.6-.242.814.814,0,0,1,.813.821.793.793,0,0,1-.234.588.762.762,0,0,1-.578.248.8.8,0,0,1-.6-.248A.825.825,0,0,1,79446.406,8827.821Zm-1.758,6.971a2.278,2.278,0,0,0,1.5-.411,1.448,1.448,0,0,0,.492-1.133V8829.8h1.117v3.173a3.492,3.492,0,0,1-.18,1.161,3.052,3.052,0,0,1-.531.936,2.521,2.521,0,0,1-2,.836l-.875-.016-.18-1.1Z" transform="translate(-79302.117 -8811.235)" fill="#fefefe"/>
      <path id="Path_3506" data-name="Path 3506" d="M82513,8429.9h1.039V8423H82513Z" transform="translate(-82365.641 -8407.957)" fill="#fefefe"/>
      <path id="Path_3508" data-name="Path 3508" d="M90559.055,8094.6a1.374,1.374,0,0,0-.078-.459,1.514,1.514,0,0,0-.2-.409,1.206,1.206,0,0,0-.344-.292.857.857,0,0,0-.445-.112.762.762,0,0,0-.609.213.753.753,0,0,0-.18.521.374.374,0,0,0,.234.39,1.394,1.394,0,0,0,.461.107Zm-1.867-3.78a.773.773,0,0,1,.8-.821.83.83,0,0,1,.609.24.91.91,0,0,1,.234.581.938.938,0,0,1-.234.587.818.818,0,0,1-.609.249.833.833,0,0,1-.594-.249A.875.875,0,0,1,90557.188,8090.822Zm-2.2,5.665c0-.038.016-.065.094-.077a1.335,1.335,0,0,1,.242-.023h2.93c.344,0,.555-.068.656-.205a.663.663,0,0,0,.141-.488l-1.391-.042a1.335,1.335,0,0,1-1.062-.481,2.1,2.1,0,0,1-.3-1.163,2.065,2.065,0,0,1,.125-.706,2.039,2.039,0,0,1,.375-.568,1.716,1.716,0,0,1,.578-.375,2,2,0,0,1,.742-.134,1.777,1.777,0,0,1,1.461.716,2.121,2.121,0,0,1,.359.722,2.321,2.321,0,0,1,.148.829v.807a4.1,4.1,0,0,1-.1.836,2.043,2.043,0,0,1-.3.7,1.527,1.527,0,0,1-.516.481,1.43,1.43,0,0,1-.734.177h-3.109a1.327,1.327,0,0,1-.242-.021c-.078-.014-.094-.039-.094-.077Z" transform="translate(-90393.273 -8075.553)" fill="#fefefe"/>
      <path id="Path_3509" data-name="Path 3509" d="M94370.773,8429.9a1.94,1.94,0,0,1-1.3-.418,1.706,1.706,0,0,1-.477-1.354V8423h1.063v4.943c0,.357.078.59.227.692a1.017,1.017,0,0,0,.609.155h.25v1.106Z" transform="translate(-94200.445 -8407.957)" fill="#fefefe"/>
      <path id="Path_3510" data-name="Path 3510" d="M95226.813,10403.226a.716.716,0,0,1,.2-.488.683.683,0,0,1,.516-.205.616.616,0,0,1,.484.205.716.716,0,0,1,.2.488.762.762,0,0,1-.2.511.61.61,0,0,1-.484.214.676.676,0,0,1-.516-.214A.762.762,0,0,1,95226.813,10403.226Zm-1.531-2.86c0-.038.047-.063.109-.076a.88.88,0,0,1,.219-.025h1.422a1.3,1.3,0,0,0,.453-.062.618.618,0,0,0,.25-.169.492.492,0,0,0,.109-.257c0-.1.016-.2.016-.317V10398h1.094v1.625a2.1,2.1,0,0,1-.375,1.271,1.5,1.5,0,0,1-1.2.475h-1.766a1.188,1.188,0,0,1-.219-.022c-.062-.014-.109-.038-.109-.079Zm-.3,2.86a.716.716,0,0,1,.2-.488.708.708,0,0,1,.516-.205.616.616,0,0,1,.484.205.631.631,0,0,1,.234.488.668.668,0,0,1-.234.511.61.61,0,0,1-.484.214.7.7,0,0,1-.516-.214A.762.762,0,0,1,95224.984,10403.226Z" transform="translate(-95054.922 -10379.429)" fill="#fefefe"/>
      <path id="Path_3511" data-name="Path 3511" d="M97542.734,10402.572a1.4,1.4,0,0,0,.5-1.132V10398h1.125v3.171a3.5,3.5,0,0,1-.187,1.161,3.1,3.1,0,0,1-.539.938,2.539,2.539,0,0,1-.844.614,2.866,2.866,0,0,1-1.125.218l-.492-.014-.18-1.1h.273A2.23,2.23,0,0,0,97542.734,10402.572Z" transform="translate(-97366.789 -10379.429)" fill="#fefefe"/>
      <path id="Path_3512" data-name="Path 3512" d="M100223.125,9380.2l-.133-1.092h3.523a.489.489,0,0,0,.367-.119.348.348,0,0,0,.148-.276.642.642,0,0,0-.187-.412l-2.43-2.562.711-.736,2.422,2.563a2.66,2.66,0,0,1,.422.609,2.712,2.712,0,0,1,.117.637,1.248,1.248,0,0,1-.422.979,1.552,1.552,0,0,1-1.18.409Z" transform="translate(-100044 -9358.257)" fill="#fefefe"/>
      <g id="Group_701" data-name="Group 701" transform="translate(65.996 26.409)">
        <path id="Path_2266" data-name="Path 2266" d="M449.839,365.836a5.1,5.1,0,0,1,1.918.039c-.022.939.063,1.886-.052,2.819a6.966,6.966,0,0,0-3.941.886,7.932,7.932,0,0,0-2.915,4.38,34.137,34.137,0,0,0-.9,4.294c3.981-.014,7.962-.006,11.943,0q0-2.818,0-5.638a8.061,8.061,0,0,1,1.266-4.705,5.271,5.271,0,0,1,3.443-1.932,21.83,21.83,0,0,1,4.384-.239q.011,6.376-.009,12.754c4.1.009,8.2-.088,12.3,0,.626-.008,1.251.015,1.877-.014a13.009,13.009,0,0,0-.916-4.928,7.421,7.421,0,0,0-2.4-3.188,8.465,8.465,0,0,0-5.244-1.676v-2.663a12.4,12.4,0,0,1,5.833,1.325,10.946,10.946,0,0,1,5.21,7.231,20.209,20.209,0,0,1,.435,3.914,20.05,20.05,0,0,1,2.39,0,8.467,8.467,0,0,0,2.62-.286,2.864,2.864,0,0,0,1.8-1.813,11.913,11.913,0,0,0,.3-3.678c.008-2.326,0-4.654.012-6.98.975-.007,1.951-.006,2.927-.008.008,2.858,0,5.716.012,8.574a9.208,9.208,0,0,1-.752,4.074A5.144,5.144,0,0,1,488,381.01a11.305,11.305,0,0,1-3.229.328q-11.357,0-22.714-.017c.006-4.165-.011-8.331,0-12.5a3.5,3.5,0,0,0-1.843.434,2.7,2.7,0,0,0-1.065,1.592,11.112,11.112,0,0,0-.346,3.245q0,3.618,0,7.235-8.341.008-16.679,0c-.584-.034-1.168-.014-1.752-.033a40.565,40.565,0,0,1,1.165-7.189,12.988,12.988,0,0,1,2.92-5.6,8.59,8.59,0,0,1,5.384-2.665" transform="translate(-390.364 -361.882)" fill="#fff"/>
        <path id="Path_2267" data-name="Path 2267" d="M935.737,366.268a9.189,9.189,0,0,1,6.21,1.95,11.421,11.421,0,0,1,3.322,5.04,36.975,36.975,0,0,1,1.592,8.524q-5.6,0-11.194,0,0-1.509,0-3.017c2.629,0,5.259.012,7.888.009a23.266,23.266,0,0,0-1.415-5.788,6.974,6.974,0,0,0-2.414-3.076,6.9,6.9,0,0,0-3.989-.9c0-.915,0-1.829,0-2.743" transform="translate(-833.38 -362.36)" fill="#fff"/>
        <path id="Path_2268" data-name="Path 2268" d="M723.7,523.034c.981,0,1.962-.006,2.945.005q.007,1.556,0,3.113c-.98.007-1.959,0-2.939,0,0-1.041,0-2.08,0-3.12" transform="translate(-643.788 -502.587)" fill="#fff"/>
        <path id="Path_2269" data-name="Path 2269" d="M826,523.332c.969-.008,1.939,0,2.908,0,.005,1.048-.01,2.1.006,3.144-.974.044-1.95.006-2.924.02,0-1.053-.009-2.107.01-3.16" transform="translate(-735.279 -502.849)" fill="#fff"/>
        <path id="Path_2270" data-name="Path 2270" d="M868.341,523.33h2.981c-.005,1.052.008,2.106-.014,3.158-.99-.028-1.981.044-2.968-.036,0-1.041,0-2.082,0-3.123" transform="translate(-773.161 -502.852)" fill="#fff"/>
        <path id="Path_2271" data-name="Path 2271" d="M-17.974,329.331c3.541-.023,7.084-.007,10.625-.009q0,1.458,0,2.916-2.923.057-5.848.027c-.619-.056-1.238.024-1.858.008,0,5.057.006,10.114-.005,15.171a1.439,1.439,0,0,1-1.4,1.4H-27.33a6.337,6.337,0,0,1-4.469-1.788,5.831,5.831,0,0,1-1.514-3.294,10.635,10.635,0,0,1,.924-5.688,25.708,25.708,0,0,1,2.592,1.429,7.512,7.512,0,0,0-.491,4.449,2.59,2.59,0,0,0,2.128,1.834,24.424,24.424,0,0,0,4.094.1c2.018,0,4.036,0,6.054,0,.06-5.519.02-11.041.037-16.56" transform="translate(33.391 -329.318)" fill="#fff"/>
        <path id="Path_2272" data-name="Path 2272" d="M248.561,337.082a1.5,1.5,0,0,0-1.534-1.471c-1.837.031-3.669-.092-5.5-.07a6.631,6.631,0,0,0-5.867,6.71q0,1.973,0,3.945-2.885,0-5.769,0,0-8.268,0-16.537c-.973,0-1.945,0-2.918,0q0,9.039,0,18.077a1.416,1.416,0,0,0,1.366,1.414H246.7a2.146,2.146,0,0,0,1.052-.137,1.625,1.625,0,0,0,.809-1.48Q248.562,342.31,248.561,337.082Zm-3.022,9.117c-2.3,0-4.6,0-6.892,0-.055-1.4-.032-2.81-.033-4.216a3.559,3.559,0,0,1,3.195-3.408c1.246,0,2.495-.02,3.736.079C245.533,341.168,245.544,343.683,245.539,346.2Z" transform="translate(-199.482 -329.624)" fill="#fff"/>
        <path id="Path_2273" data-name="Path 2273" d="M118.967,407q1.477,0,2.952,0c.018,2.147.188,4.291.177,6.439a20.675,20.675,0,0,1-1.342,7.82,8.229,8.229,0,0,1-7.894,5.259c-.069-.977-.016-1.96-.035-2.94a6.643,6.643,0,0,0,3.36-1.094,6.1,6.1,0,0,0,2.136-3.146,22.861,22.861,0,0,0,.784-7.172q-.071-2.582-.139-5.166" transform="translate(-97.391 -398.801)" fill="#fff"/>
      </g>
      <g id="Group_702" data-name="Group 702" transform="translate(14.868 11.525)">
        <path id="Path_3546" data-name="Path 3546" d="M382.763,668.5q20.234-.04,40.468,0,0,7.985,0,15.972c-1.233,0-2.465,0-3.7,0-.023-4.1-.013-8.194-.014-12.29q-16.537.032-33.072,0,0,16.531,0,33.066c6.759.018,13.516-.043,20.273.023.655,1.155,1.359,2.282,1.989,3.451q-12.974.035-25.944,0-.032-20.113,0-40.228" transform="translate(-382.749 -668.478)" fill="#fff"/>
        <path id="Path_3547" data-name="Path 3547" d="M511.2,765.672c1.405-.043,2.812-.009,4.219,0,1.525,2.354,2.968,4.76,4.486,7.117,1.634-2.246,3.066-4.634,4.684-6.893,1.377-.023,2.755-.029,4.131,0,0,5.83.009,11.66-.014,17.492-1.249.02-2.5.047-3.745.013-.016-3.594.088-7.19-.068-10.783-1.736,2.091-3.014,4.505-4.622,6.689-.186.351-.569.1-.691-.156q-3.947-6.17-7.919-12.322a3.827,3.827,0,0,1-.462-1.156Z" transform="translate(-488.208 -748.257)" fill="#fff"/>
        <path id="Path_3548" data-name="Path 3548" d="M429.666,766.774c-.082-1.591-1.158-3.387-2.88-3.517-4.6-.09-9.2.014-13.8.045-.02,6.1.1,12.208.034,18.312,4.462.059,8.927.007,13.391.027a2.942,2.942,0,0,0,2.808-1.853,6.187,6.187,0,0,0,.464-2.275C429.651,773.932,429.692,770.352,429.666,766.774Zm-13.312,11.212c-.032-3.714-.073-7.432.023-11.144q4.93-.048,9.859,0c0,3.718-.005,7.437.009,11.155C422.948,778.022,419.651,778.042,416.353,777.986Z" transform="translate(-407.575 -746.262)" fill="#fff"/>
      </g>
    </g>
  </g>
</svg>
