<svg xmlns="http://www.w3.org/2000/svg" width="170.126" height="42.54" viewBox="0 0 170.126 42.54">
  <g id="Group_2998" data-name="Group 2998" transform="translate(-17.116 -9.761)">
    <g id="Group_2997" data-name="Group 2997">
      <path id="Path_3528" data-name="Path 3528" d="M79446.422,8827.822a.792.792,0,0,1,.219-.581.821.821,0,0,1,.6-.241.757.757,0,0,1,.578.241.8.8,0,0,1,.258.581.822.822,0,0,1-.258.589.743.743,0,0,1-.578.249.805.805,0,0,1-.6-.249A.816.816,0,0,1,79446.422,8827.822Zm-1.773,6.975a2.272,2.272,0,0,0,1.5-.412,1.447,1.447,0,0,0,.492-1.134v-3.442h1.133v3.173a3.5,3.5,0,0,1-.2,1.162,3,3,0,0,1-.531.935,2.513,2.513,0,0,1-2,.836l-.875-.013-.18-1.1Z" transform="translate(-79302.039 -8811.228)" fill="#fefefe"/>
      <path id="Path_3529" data-name="Path 3529" d="M82513,8429.9h1.039V8423H82513Z" transform="translate(-82365.547 -8407.949)" fill="#fefefe"/>
      <path id="Path_3530" data-name="Path 3530" d="M85237.508,9105.722a.717.717,0,0,1,.2-.51.671.671,0,0,1,.5-.212.642.642,0,0,1,.492.212.633.633,0,0,1,.227.51.6.6,0,0,1-.227.49.65.65,0,0,1-.492.205.68.68,0,0,1-.5-.205A.67.67,0,0,1,85237.508,9105.722Zm-1.937,0a.724.724,0,0,1,.2-.51.711.711,0,0,1,.523-.212.675.675,0,0,1,.484.212.717.717,0,0,1,.2.51.67.67,0,0,1-.2.49.684.684,0,0,1-.484.205.721.721,0,0,1-.523-.205A.677.677,0,0,1,85235.57,9105.722Zm7.156,4.962a4.288,4.288,0,0,1-.789-.079,1.562,1.562,0,0,1-.672-.319,1.435,1.435,0,0,1-1.039.4h-5.687a1.4,1.4,0,0,1-1.164-.451,1.989,1.989,0,0,1-.375-1.294v-1.628h1.063v1.46a.848.848,0,0,0,.2.631.875.875,0,0,0,.617.175H85240c.3,0,.477-.063.57-.2a1.126,1.126,0,0,0,.125-.606v-1.46h1.117v1.514a.624.624,0,0,0,.289.6,1.3,1.3,0,0,0,.625.154h.117v1.107Z" transform="translate(-85080.688 -9088.729)" fill="#fefefe"/>
      <path id="Path_3531" data-name="Path 3531" d="M90559.078,8094.605a1.22,1.22,0,0,0-.086-.46,1.575,1.575,0,0,0-.211-.41,1.084,1.084,0,0,0-.344-.291.775.775,0,0,0-.414-.112.8.8,0,0,0-.641.213.755.755,0,0,0-.18.522.376.376,0,0,0,.234.391,1.691,1.691,0,0,0,.461.106Zm-1.891-3.782a.856.856,0,0,1,.211-.582.906.906,0,0,1,.625-.24.809.809,0,0,1,.578.24.722.722,0,0,1,.234.582.737.737,0,0,1-.234.587.791.791,0,0,1-.578.249.789.789,0,0,1-.836-.836Zm-2.2,5.668c0-.038.016-.064.094-.077a1.335,1.335,0,0,1,.242-.023h2.945a.8.8,0,0,0,.656-.205.786.786,0,0,0,.148-.488l-1.4-.042a1.228,1.228,0,0,1-1.031-.481,1.94,1.94,0,0,1-.344-1.163,2.089,2.089,0,0,1,.125-.708,2.474,2.474,0,0,1,.375-.568,1.848,1.848,0,0,1,.578-.374,2.02,2.02,0,0,1,.758-.135,1.771,1.771,0,0,1,.836.2,1.57,1.57,0,0,1,.609.521,2.025,2.025,0,0,1,.383.721,2.494,2.494,0,0,1,.141.829v.808a4.739,4.739,0,0,1-.094.836,2.618,2.618,0,0,1-.328.7,1.3,1.3,0,0,1-.516.485,1.41,1.41,0,0,1-.734.174h-3.109a1.52,1.52,0,0,1-.242-.021c-.078-.013-.094-.039-.094-.076Z" transform="translate(-90393.172 -8075.544)" fill="#fefefe"/>
      <path id="Path_3532" data-name="Path 3532" d="M94370.789,8429.9a2.015,2.015,0,0,1-1.328-.417,1.793,1.793,0,0,1-.477-1.354V8423h1.086v4.946a.848.848,0,0,0,.227.694,1,1,0,0,0,.594.154h.266v1.105Z" transform="translate(-94200.359 -8407.949)" fill="#fefefe"/>
      <path id="Path_3533" data-name="Path 3533" d="M95226.8,10403.229a.611.611,0,0,1,.219-.488.643.643,0,0,1,.516-.207.669.669,0,0,1,.484.207.711.711,0,0,1,.2.488.764.764,0,0,1-.2.511.655.655,0,0,1-.484.212.631.631,0,0,1-.516-.212A.654.654,0,0,1,95226.8,10403.229Zm-1.547-2.864c0-.036.078-.063.109-.074a1.288,1.288,0,0,1,.234-.024h1.438a1.3,1.3,0,0,0,.453-.063,1.342,1.342,0,0,0,.25-.169c.031-.071.063-.159.109-.256V10398h1.125v1.629a1.919,1.919,0,0,1-.422,1.27,1.4,1.4,0,0,1-1.172.475h-1.781a1.722,1.722,0,0,1-.234-.022c-.031-.014-.109-.038-.109-.076Zm-.266,2.864a.774.774,0,0,1,.188-.488.74.74,0,0,1,.516-.207.7.7,0,0,1,.7.7.7.7,0,0,1-.2.511.641.641,0,0,1-.5.212.724.724,0,0,1-.516-.212A.834.834,0,0,1,95224.984,10403.229Z" transform="translate(-95054.82 -10379.418)" fill="#fefefe"/>
      <path id="Path_3534" data-name="Path 3534" d="M97542.734,10402.577a1.358,1.358,0,0,0,.5-1.132V10398h1.125v3.173a3.476,3.476,0,0,1-.187,1.161,2.911,2.911,0,0,1-.539.938,2.668,2.668,0,0,1-.836.616,2.934,2.934,0,0,1-1.133.219l-.492-.014-.18-1.1h.258A2.239,2.239,0,0,0,97542.734,10402.577Z" transform="translate(-97366.688 -10379.418)" fill="#fefefe"/>
      <path id="Path_3535" data-name="Path 3535" d="M100223.117,9380.2l-.125-1.093h3.523a.561.561,0,0,0,.383-.119.377.377,0,0,0,.133-.277.613.613,0,0,0-.2-.412l-2.422-2.567.711-.733,2.422,2.565a1.692,1.692,0,0,1,.547,1.244,1.253,1.253,0,0,1-.43.981,1.549,1.549,0,0,1-1.18.411Z" transform="translate(-100043.898 -9358.247)" fill="#fefefe"/>
      <path id="Path_3536" data-name="Path 3536" d="M36986.3,15621.537h2.66v-17.891h-2.66Zm24.035-11.443-3.055,7.754h-.094l-3.168-7.754h-2.871l4.762,10.838-2.73,6.029h2.793l7.344-16.867Zm-15.137,9.412c-.871,0-2.1-.436-2.1-1.518,0-1.383,1.523-1.908,2.84-1.908a4.771,4.771,0,0,1,2.441.6A3.246,3.246,0,0,1,36995.2,15619.506Zm.328-9.8a5,5,0,0,0-4.766,2.74l2.375.99a2.525,2.525,0,0,1,2.434-1.314,2.579,2.579,0,0,1,2.813,2.3v.184a5.934,5.934,0,0,0-2.793-.691c-2.547,0-5.16,1.4-5.16,4.029,0,2.393,2.105,3.938,4.453,3.938a3.782,3.782,0,0,0,3.406-1.754h.094v1.385h2.574v-6.859C37000.961,15611.473,36998.59,15609.7,36995.531,15609.7Zm-16.5,2.568h-3.8v-6.131h3.8a3.066,3.066,0,1,1,0,6.131Zm-.066-8.623h-6.406v17.891h2.672v-6.779h3.734a5.564,5.564,0,1,0,0-11.111Zm-34.891,15.859a3.7,3.7,0,0,1,0-7.375,3.717,3.717,0,0,1,0,7.375Zm3.063-8.41h-.094a4.22,4.22,0,0,0-3.2-1.361,6.091,6.091,0,0,0,0,12.172,4.163,4.163,0,0,0,3.2-1.383h.094v.879c0,2.326-1.246,3.57-3.25,3.57a3.351,3.351,0,0,1-3.059-2.164l-2.344.967a5.809,5.809,0,0,0,5.4,3.6c3.137,0,5.789-1.846,5.789-6.342V15610.1h-2.539Zm4.387,10.441h2.668v-17.891h-2.668Zm6.605-5.9a3.346,3.346,0,0,1,3.184-3.553,2.355,2.355,0,0,1,2.258,1.291Zm8.3-2.029a5.652,5.652,0,0,0-5.207-3.873,5.778,5.778,0,0,0-5.738,6.088,5.946,5.946,0,0,0,6.031,6.084,6.051,6.051,0,0,0,5.078-2.7l-2.078-1.383a3.485,3.485,0,0,1-3,1.68,3.086,3.086,0,0,1-2.941-1.842l8.137-3.365Zm-64.844-2v2.58h6.184a5.372,5.372,0,0,1-1.406,3.248,6.316,6.316,0,0,1-4.777,1.895,6.873,6.873,0,0,1,0-13.744,6.556,6.556,0,0,1,4.656,1.846l1.82-1.822a8.995,8.995,0,0,0-6.477-2.6,9.453,9.453,0,1,0,0,18.9,8.653,8.653,0,0,0,6.6-2.648,8.545,8.545,0,0,0,2.242-6.041,9.316,9.316,0,0,0-.137-1.613Zm15.863,7.9a3.7,3.7,0,1,1,3.426-3.684A3.518,3.518,0,0,1,36917.449,15619.506Zm0-9.771a6.086,6.086,0,1,0,6.1,6.088A6,6,0,0,0,36917.449,15609.734Zm13.316,9.771a3.7,3.7,0,1,1,3.441-3.684A3.521,3.521,0,0,1,36930.766,15619.506Zm0-9.771a6.086,6.086,0,1,0,6.109,6.088A6,6,0,0,0,36930.766,15609.734Z" transform="translate(-36826.078 -15575.121)" fill="#fefefe"/>
      <g id="Group_699" data-name="Group 699" transform="translate(17.116 9.761)">
        <path id="Path_3537" data-name="Path 3537" d="M10223.726,6391.113a3.121,3.121,0,0,0-.727,2.2v34.6a3.12,3.12,0,0,0,.727,2.2l.113.112,19.38-19.379v-.458l-19.38-19.382Z" transform="translate(-10222.999 -6389.34)" fill="#fff"/>
        <path id="Path_3538" data-name="Path 3538" d="M21544.457,13634.381l-6.457-6.461v-.459l6.457-6.459.15.082,7.65,4.35c2.189,1.24,2.189,3.273,0,4.516l-7.65,4.348Z" transform="translate(-21515.479 -13606.424)" fill="#fff" fill-rule="evenodd"/>
        <path id="Path_3539" data-name="Path 3539" d="M10655.1,17371.607l-6.607-6.605-19.5,19.494c.722.766,1.913.855,3.251.1Z" transform="translate(-10627.119 -17342.58)" fill="#fff" fill-rule="evenodd"/>
        <path id="Path_3540" data-name="Path 3540" d="M10655.1,6120.381l-22.852-12.985c-1.338-.761-2.529-.667-3.251.1l19.5,19.5Z" transform="translate(-10627.119 -6106.87)" fill="#fff" fill-rule="evenodd"/>
      </g>
    </g>
  </g>
</svg>
