<svg xmlns="http://www.w3.org/2000/svg" width="86.768" height="87.56" viewBox="0 0 86.768 87.56"><g transform="translate(78.294 1.695)"><path d="M468.779,230v6.779H462V230h6.779Z" transform="translate(-462 -192.717)" fill="#c2e4fd"/><path d="M465.389,10A3.389,3.389,0,1,1,462,13.389,3.388,3.388,0,0,1,465.389,10Z" transform="translate(-462 -10)" fill="#c2e4fd"/></g><path d="M199.726,399a3.389,3.389,0,0,1,0,6.779H179.389a3.389,3.389,0,0,1,0-6.779Z" transform="translate(-144.174 -329.382)" fill="#ffc5c5"/><g transform="translate(1.695 1.695)"><rect width="19.336" height="10.676" transform="translate(33.689 75.189)" fill="#c2e4fd"/><path d="M242.779,13.542v3.237H236V10h6.779v3.542Z" transform="translate(-197.7 -10)" fill="#c2e4fd"/><path d="M239.389,273A3.389,3.389,0,1,1,236,276.389,3.388,3.388,0,0,1,239.389,273Z" transform="translate(-195.7 -226.43)" fill="#ffc5c5"/><path d="M16.779,230v6.779H10V230h6.779Z" transform="translate(-10 -192.717)" fill="#c2e4fd"/><path d="M13.389,10A3.389,3.389,0,1,1,10,13.389,3.388,3.388,0,0,1,13.389,10Z" transform="translate(-10 -10)" fill="#c2e4fd"/></g><path d="M454.126,147.875H452.1a38.495,38.495,0,0,0-4.566-13.846,1.695,1.695,0,1,0-2.961,1.649,35.125,35.125,0,0,1,4.11,12.2h-1.334a1.7,1.7,0,0,0-1.695,1.695v6.779a1.7,1.7,0,0,0,1.695,1.695h6.779a1.7,1.7,0,0,0,1.695-1.695V149.57A1.7,1.7,0,0,0,454.126,147.875Zm-1.695,6.779h-3.389v-3.389h3.389Z" transform="translate(-369.053 -110.592)" fill="#2b376f"/><path d="M183.28,132.643c0-.026,0-.053,0-.079s-.008-.071-.013-.107-.006-.043-.01-.065c-.008-.042-.018-.082-.029-.123,0-.015-.007-.031-.012-.046-.015-.051-.033-.1-.052-.149l-.006-.016a1.666,1.666,0,0,0-.079-.165l-16.946-31.012a1.695,1.695,0,0,0-2.974,0l-16.946,31.012a1.668,1.668,0,0,0-.079.165l-.006.016c-.02.049-.037.1-.052.149,0,.015-.008.031-.012.046-.011.041-.021.081-.029.123,0,.022-.007.043-.01.065s-.01.071-.013.107,0,.053,0,.079,0,.042,0,.064,0,.022,0,.033c0,.027,0,.053,0,.08s0,.067.009.1.007.047.011.07.013.073.022.109c0,.02.01.04.016.06.011.039.023.077.036.114,0,.011.006.022.01.032l6.112,16.2a5.084,5.084,0,0,0,.558,9.351v9.273a1.7,1.7,0,0,0,1.695,1.695H174.81a1.7,1.7,0,0,0,1.695-1.695v-9.27a5.084,5.084,0,0,0,.557-9.352l6.113-16.2c0-.011.006-.022.01-.032.013-.037.025-.075.036-.114.006-.02.011-.04.016-.06.008-.036.016-.072.022-.109s.008-.047.011-.07.007-.067.009-.1,0-.053,0-.08c0-.011,0-.022,0-.033S183.281,132.665,183.28,132.643Zm-8.47,1.759h4.328l-5.5,14.574H155.645l-5.5-14.574h4.328a1.695,1.695,0,0,0,0-3.389h-3.922l12.395-22.683v19.585a5.084,5.084,0,1,0,3.389,0V108.33l12.395,22.683H174.81a1.695,1.695,0,1,0,0,3.389Zm-10.168-3.389a1.695,1.695,0,1,1-1.695,1.695A1.7,1.7,0,0,1,164.641,131.013Zm-8.473,35.419v-7.287h16.947v7.287Zm19.839-11.173a1.683,1.683,0,0,1-1.2.5H154.473a1.695,1.695,0,0,1,0-3.389h20.342a1.694,1.694,0,0,1,1.192,2.892Z" transform="translate(-121.258 -83.053)" fill="#2b376f"/><path d="M10.593,133.372a1.694,1.694,0,0,0-2.305.656,38.495,38.495,0,0,0-4.566,13.846H1.695A1.7,1.7,0,0,0,0,149.569v6.779a1.7,1.7,0,0,0,1.695,1.695H8.473a1.7,1.7,0,0,0,1.695-1.695v-6.779a1.7,1.7,0,0,0-1.695-1.695H7.139a35.127,35.127,0,0,1,4.11-12.2A1.7,1.7,0,0,0,10.593,133.372ZM6.779,154.653H3.389v-3.389H6.779Z" transform="translate(0 -110.591)" fill="#2b376f"/><path d="M69.512,12.555a37.519,37.519,0,0,0-9.658-5.776H76.891a5.084,5.084,0,1,0,0-3.389H48.468V1.695A1.7,1.7,0,0,0,46.773,0H39.994A1.7,1.7,0,0,0,38.3,1.695V3.389H9.877a5.084,5.084,0,1,0,0,3.389H26.914a37.519,37.519,0,0,0-9.658,5.776,1.695,1.695,0,1,0,2.184,2.592A38.211,38.211,0,0,1,38.3,7.138V8.473a1.7,1.7,0,0,0,1.695,1.695h6.779a1.7,1.7,0,0,0,1.695-1.695V7.138a38.212,38.212,0,0,1,18.859,8.008,1.695,1.695,0,0,0,2.184-2.591ZM81.684,3.389a1.695,1.695,0,1,1-1.695,1.695A1.7,1.7,0,0,1,81.684,3.389ZM5.084,6.779A1.695,1.695,0,1,1,6.779,5.084,1.7,1.7,0,0,1,5.084,6.779Zm39.994,0H41.689V3.389h3.389V6.779Z" fill="#2b376f"/><path d="M423.695,100a1.695,1.695,0,1,0,1.695,1.695A1.7,1.7,0,0,0,423.695,100Z" transform="translate(-350.485 -83.053)" fill="#2b376f"/><path d="M71.695,100a1.695,1.695,0,1,0,1.695,1.695A1.7,1.7,0,0,0,71.695,100Z" transform="translate(-58.137 -83.053)" fill="#2b376f"/></svg>