<svg xmlns="http://www.w3.org/2000/svg" width="141.186" height="34.283" viewBox="0 0 141.186 34.283">
  <g id="Group_1" data-name="Group 1" transform="translate(-1523.271 -43.024)">
    <path id="Path_1" data-name="Path 1" d="M-1057.562,52.753c-1.269.033-2.538.02-3.807.025-.139,2.038.011,4.08-.063,6.12-3.413.121-6.828.008-10.241.055a4.684,4.684,0,0,0-3.051.524,4.85,4.85,0,0,0-1.9,4.063c-.005,3.754.022,7.507-.005,11.261a8.548,8.548,0,0,0,.452,2.846,3.432,3.432,0,0,0,2.152,2.144,9.383,9.383,0,0,0,2.684.205c4.583.012,9.168,0,13.751,0C-1057.609,70.918-1057.475,61.836-1057.562,52.753Zm-3.852,23.006c-3.761.018-7.523.03-11.285,0-.03-4.216-.058-8.433.015-12.649q5.624-.015,11.249,0C-1061.384,67.323-1061.424,71.542-1061.414,75.759Z" transform="translate(2599.903 -9.729)" fill="#7b7da3"/>
    <path id="Path_2" data-name="Path 2" d="M-949.093,89.775c1.287-.1,2.579-.06,3.868-.05-.005,7.038.013,14.078-.012,21.117q-1.928,0-3.857,0,0-10.535,0-21.067" transform="translate(2493.466 -40.569)" fill="#7b7da3"/>
    <path id="Path_3" data-name="Path 3" d="M-897.537,90.113c-4.962.041-9.922.007-14.884.018a4.9,4.9,0,0,0-2.473.319,4.2,4.2,0,0,0-2.028,3.782c-.005,4.356-.02,8.713.007,13.069a4.092,4.092,0,0,0,2.74,3.714,6.3,6.3,0,0,0,1.931.166q5.432-.005,10.865,0c.012.9.012,1.789-.013,2.682-.834,0-1.666.01-2.5,0a11.693,11.693,0,0,0-1.42,1.385c-.907,1.014-1.914,1.934-2.8,2.968,2.149.02,4.3-.03,6.449,0a5.3,5.3,0,0,0,2.323-.452,3.131,3.131,0,0,0,1.565-2.007,11.757,11.757,0,0,0,.238-3Q-897.538,101.434-897.537,90.113Zm-3.842,16.823c-3.888.008-7.778.046-11.668-.02.038-4.2.023-8.4.01-12.606,3.882-.045,7.765-.033,11.646,0C-901.354,98.516-901.385,102.727-901.379,106.936Z" transform="translate(2466.625 -40.907)" fill="#7b7da3"/>
    <path id="Path_4" data-name="Path 4" d="M-788.924,89.732c1.294-.033,2.593-.063,3.885.033q0,10.535,0,21.07h-3.868c-.058-7.033-.018-14.068-.017-21.1" transform="translate(2359.809 -40.563)" fill="#7b7da3"/>
    <path id="Path_5" data-name="Path 5" d="M-449.691,99.668c1.769-.078,3.539.015,5.308-.035a3.015,3.015,0,0,0,2.837-2.063,13.721,13.721,0,0,0,.351-4.128,15.3,15.3,0,0,0-.2-3.491,3.957,3.957,0,0,0-2.389-2.75,4.685,4.685,0,0,0-1.946-.222q-7.135,0-14.27,0c.008,7.048-.03,14.1.021,21.143,1.314.008,2.626-.012,3.939-.005-.065-2.414.007-4.83-.022-7.243.02-.447-.086-.955.23-1.325a19.058,19.058,0,0,1,2.063,1.787c2.411,2.272,4.831,4.532,7.288,6.754,1.946.078,3.895.053,5.842,0C-443.555,105.177-446.777,102.586-449.691,99.668Zm-6.328-4.247c-.048-1.38-.06-2.76,0-4.138,3.627-.068,7.257-.007,10.885-.038.05,1.391.043,2.785,0,4.176Z" transform="translate(2085.297 -38.288)" fill="#ff6363"/>
    <path id="Path_6" data-name="Path 6" d="M-340.3,107.8c-.121-7.056-.035-14.116-.043-21.174,1.3.013,2.6-.033,3.9.03.023,2.373-.045,4.745.045,7.116,1.12-.769,2.124-1.688,3.188-2.528,1.742-1.4,3.47-2.824,5.208-4.232a1.352,1.352,0,0,1,.991-.39c2.005.026,4.012-.045,6.016.043-4.517,3.632-9.278,6.944-13.809,10.559q6.467,4.9,12.975,9.75a6.1,6.1,0,0,1,.728.748,60.47,60.47,0,0,1-6.363.018c-2.258-1.741-4.426-3.6-6.656-5.369a25.866,25.866,0,0,0-2.265-1.769c-.119,2.4-.025,4.8-.06,7.2-1.286,0-2.569,0-3.855,0" transform="translate(1985.45 -37.991)" fill="#ff6363"/>
    <path id="Path_7" data-name="Path 7" d="M-562.916,102.3c.033-3.306-.1-6.611-.02-9.919a3.994,3.994,0,0,0-3.127-4.055c-1.186-.094-2.379-.01-3.569-.043a1.611,1.611,0,0,0-1.307.47c-1.4,1.233-2.839,2.417-4.221,3.668,2.758.111,5.521.018,8.281.058.007,1.415,0,2.831,0,4.247-3.951.008-7.9-.005-11.853,0a3.422,3.422,0,0,0-2.932,1.663,6.244,6.244,0,0,0-.607,3.9,26.029,26.029,0,0,0,.1,4.159,3.831,3.831,0,0,0,2.785,2.869,8.26,8.26,0,0,0,1.82.094q7.3,0,14.609,0C-562.989,107.036-562.9,104.669-562.916,102.3Zm-13.165,2.862a19.005,19.005,0,0,1-2.275-.068c.013-1.355.005-2.71.008-4.065,3.822-.116,7.649-.036,11.474-.055q0,2.092,0,4.186Q-571.476,105.166-576.081,105.16Z" transform="translate(2187.374 -39.373)" fill="#ff6363"/>
    <path id="Path_8" data-name="Path 8" d="M-756.037,89.723a23.863,23.863,0,0,1,2.551-.065q10.423,0,20.849,0a3.585,3.585,0,0,1,2.607.922,4.93,4.93,0,0,1,1.135,3.605c-.018,5.548.035,11.1-.045,16.644-1.309.008-2.617,0-3.926,0-.012-5.624.018-11.249-.015-16.873-2.55-.03-5.1-.051-7.647,0-.01,5.624,0,11.246-.005,16.869-1.3.007-2.607,0-3.91,0-.012-5.637,0-11.272-.007-16.909q-3.842,0-7.687,0c-.05,5.637.007,11.277-.035,16.914-1.291,0-2.579-.007-3.868-.008q.007-10.55,0-21.1" transform="translate(2332.353 -40.526)" fill="#ff6363"/>
  </g>
</svg>
