<svg xmlns="http://www.w3.org/2000/svg" width="200.479" height="48.967" viewBox="0 0 200.479 48.967">
  <g id="Group_691" data-name="Group 691" transform="translate(33.391 -329.318)">
    <path id="Path_2266" data-name="Path 2266" d="M457.1,365.922a9,9,0,0,1,3.388.069c-.039,1.66.112,3.332-.091,4.981-2.383,0-4.927.194-6.963,1.565-2.67,1.764-4.214,4.763-5.15,7.739a60.307,60.307,0,0,0-1.6,7.586c7.034-.024,14.066-.011,21.1-.007q-.006-4.979,0-9.96c.047-2.885.485-5.93,2.236-8.313a9.313,9.313,0,0,1,6.083-3.412,38.564,38.564,0,0,1,7.744-.421q.02,11.264-.017,22.532c7.245.017,14.489-.155,21.732,0,1.106-.015,2.21.026,3.315-.024a22.981,22.981,0,0,0-1.619-8.706,13.109,13.109,0,0,0-4.233-5.632,14.955,14.955,0,0,0-9.264-2.961v-4.7a21.9,21.9,0,0,1,10.3,2.34c4.813,2.579,7.987,7.545,9.2,12.775a35.7,35.7,0,0,1,.768,6.914,35.428,35.428,0,0,1,4.222,0c1.546-.123,3.153.1,4.628-.505a5.059,5.059,0,0,0,3.176-3.2c.709-2.092.487-4.33.522-6.5.015-4.11.006-8.222.021-12.331,1.723-.013,3.446-.011,5.171-.015.015,5.05,0,10.1.021,15.147a16.263,16.263,0,0,1-1.328,7.2,9.088,9.088,0,0,1-5.954,4.656,19.974,19.974,0,0,1-5.7.58q-20.064.008-40.127-.03c.011-7.358-.019-14.718,0-22.077a6.181,6.181,0,0,0-3.256.766,4.777,4.777,0,0,0-1.882,2.812,19.64,19.64,0,0,0-.612,5.732q0,6.391,0,12.781-14.735.014-29.466-.006c-1.031-.06-2.064-.024-3.1-.058a71.659,71.659,0,0,1,2.059-12.7,22.947,22.947,0,0,1,5.158-9.9,15.175,15.175,0,0,1,9.512-4.708" transform="translate(-385.417 -29.617)" fill="#7b7da3"/>
    <path id="Path_2267" data-name="Path 2267" d="M935.791,366.274a16.233,16.233,0,0,1,10.97,3.444,20.18,20.18,0,0,1,5.868,8.9,65.313,65.313,0,0,1,2.812,15.06q-9.888.008-19.775,0,0-2.666,0-5.329c4.645-.007,9.29.021,13.935.017a41.1,41.1,0,0,0-2.5-10.226,12.321,12.321,0,0,0-4.265-5.434c-2.057-1.387-4.634-1.62-7.047-1.591,0-1.617,0-3.232,0-4.846" transform="translate(-788.353 -30.052)" fill="#7b7da3"/>
    <path id="Path_2268" data-name="Path 2268" d="M723.7,523.035c1.732.006,3.466-.011,5.2.009q.011,2.75-.006,5.5c-1.73.013-3.461.006-5.191,0-.006-1.839,0-3.675-.006-5.512" transform="translate(-615.914 -157.592)" fill="#7b7da3"/>
    <path id="Path_2269" data-name="Path 2269" d="M826.007,523.335c1.712-.015,3.426,0,5.137-.007.009,1.852-.017,3.7.011,5.555-1.721.078-3.444.011-5.165.035.006-1.861-.017-3.722.017-5.583" transform="translate(-699.128 -157.831)" fill="#7b7da3"/>
    <path id="Path_2270" data-name="Path 2270" d="M868.342,523.33q2.632,0,5.266,0c-.009,1.859.015,3.72-.024,5.579-1.749-.05-3.5.078-5.244-.063.007-1.839,0-3.679,0-5.518" transform="translate(-733.582 -157.834)" fill="#7b7da3"/>
    <path id="Path_2271" data-name="Path 2271" d="M-6.155,329.341c6.256-.041,12.514-.013,18.77-.017q0,2.576,0,5.152-5.163.1-10.331.048c-1.093-.1-2.187.043-3.282.015-.007,8.934.011,17.868-.009,26.8a2.542,2.542,0,0,1-2.478,2.478q-9.6,0-19.2,0a11.2,11.2,0,0,1-7.9-3.159,10.3,10.3,0,0,1-2.674-5.82,18.789,18.789,0,0,1,1.632-10.049,45.431,45.431,0,0,1,4.58,2.525,13.271,13.271,0,0,0-.867,7.86,4.576,4.576,0,0,0,3.759,3.241,43.159,43.159,0,0,0,7.233.185c3.565.006,7.131,0,10.7,0,.106-9.751.035-19.505.065-29.256" fill="#ff6363"/>
    <path id="Path_2272" data-name="Path 2272" d="M265.12,342.773a2.652,2.652,0,0,0-2.709-2.6c-3.245.054-6.482-.162-9.725-.123-5.827.431-10.618,6.062-10.364,11.854q0,3.485,0,6.97-5.1,0-10.193,0-.006-14.606,0-29.215c-1.719,0-3.437,0-5.156,0q0,15.969,0,31.935a2.5,2.5,0,0,0,2.413,2.5q16.229,0,32.458,0a3.791,3.791,0,0,0,1.859-.242,2.87,2.87,0,0,0,1.428-2.614Q265.121,352.008,265.12,342.773Zm-5.339,16.106c-4.059-.006-8.118,0-12.175,0-.1-2.482-.057-4.965-.059-7.448a6.287,6.287,0,0,1,5.644-6.021c2.2,0,4.408-.035,6.6.14C259.77,349.991,259.79,354.434,259.781,358.879Z" transform="translate(-211.804 -0.278)" fill="#ff6363"/>
    <path id="Path_2273" data-name="Path 2273" d="M123.676,407q2.61,0,5.216,0c.032,3.793.332,7.58.313,11.375-.114,4.677-.477,9.475-2.37,13.816a14.538,14.538,0,0,1-13.946,9.29c-.121-1.727-.028-3.463-.062-5.193a11.737,11.737,0,0,0,5.935-1.932,10.768,10.768,0,0,0,3.774-5.559c1.331-4.08,1.393-8.421,1.385-12.671q-.126-4.562-.246-9.126" transform="translate(-118.95 -63.196)" fill="#ff6363"/>
  </g>
</svg>
