<svg xmlns="http://www.w3.org/2000/svg" width="21.499" height="23.663" viewBox="0 0 21.499 23.663"><g transform="translate(-22.3)"><g transform="translate(22.3 0)"><path d="M25.109,3.042a.6.6,0,0,0-.839,0,.587.587,0,0,0,0,.839L25.682,5.3a.6.6,0,0,0,.422.175h0a.592.592,0,0,0,.417-.175l4.313-4.289A.592.592,0,1,0,30,.175l-1.305,1.3a3.72,3.72,0,1,0,.893,3.668.6.6,0,1,0-1.14-.344,2.54,2.54,0,1,1-.6-2.479L26.109,4.047Z" transform="translate(-22.3 0)" fill="#000"/><path d="M26.021,170.6a3.721,3.721,0,1,0,3.721,3.721A3.725,3.725,0,0,0,26.021,170.6Zm0,6.254a2.533,2.533,0,1,1,2.533-2.533A2.535,2.535,0,0,1,26.021,176.854Z" transform="translate(-22.3 -162.323)" fill="#000"/><path d="M29.743,338.021a3.721,3.721,0,1,0-3.721,3.721A3.725,3.725,0,0,0,29.743,338.021Zm-3.721,2.538a2.533,2.533,0,1,1,2.533-2.533A2.535,2.535,0,0,1,26.021,340.559Z" transform="translate(-22.3 -318.08)" fill="#000"/><path d="M214.659,235H203.1a.6.6,0,1,0,0,1.194h11.562a.6.6,0,1,0,0-1.194Z" transform="translate(-193.757 -223.598)" fill="#000"/><path d="M214.659,71.5H203.1a.6.6,0,1,0,0,1.194h11.562a.6.6,0,1,0,0-1.194Z" transform="translate(-193.757 -68.031)" fill="#000"/><path d="M214.659,398.8H203.1a.6.6,0,0,0,0,1.194h11.562a.6.6,0,0,0,0-1.194Z" transform="translate(-193.757 -379.45)" fill="#000"/></g></g></svg>