<svg xmlns="http://www.w3.org/2000/svg" width="59.002" height="73.749" viewBox="0 0 59.002 73.749"><path d="M29.112,72.749a4.139,4.139,0,0,1-2.229-.929A72.46,72.46,0,0,1,7.72,52.093C1.979,43.2-.644,34.24.134,26.174A29.091,29.091,0,0,1,27.961.019C28.31.006,28.662,0,29.01,0A28.964,28.964,0,0,1,57.994,28.993a35.908,35.908,0,0,1-2.38,12.416,55.236,55.236,0,0,1-6.2,11.8A75.953,75.953,0,0,1,31.2,71.849a3.911,3.911,0,0,1-1.962.9C29.2,72.748,29.16,72.749,29.112,72.749Zm0-67.616A23.221,23.221,0,1,0,52.329,28.354,23.248,23.248,0,0,0,29.108,5.133Z" transform="translate(0.508 0.5)" fill="#7b7da3" stroke="rgba(0,0,0,0)" stroke-width="1"/></svg>