<svg id="packaging" xmlns="http://www.w3.org/2000/svg" width="93.14" height="89.346" viewBox="0 0 93.14 89.346">
  <g id="Group_622" data-name="Group 622" transform="translate(15.939 18.868)">
    <path id="Path_1948" data-name="Path 1948" d="M79.1,94.879l.752,7.263,12.661,4-.165-6.859-7.527-4.4Zm1.825-1.409" transform="translate(-79.099 -93.471)" fill="#ffc5c5"/>
    <path id="Path_1949" data-name="Path 1949" d="M83.394,284.642l13.649,4.135V277.482l-13.649-4.234Z" transform="translate(-81.435 -223.86)" fill="#c2e4fd"/>
  </g>
  <path id="Path_1950" data-name="Path 1950" d="M83.44,42.439l12.31,6.141,46.905-15.965-17.15-4.972Zm0,0" transform="translate(-66.234 -23.1)" fill="#ffc5c5"/>
  <path id="Path_1951" data-name="Path 1951" d="M46.57.5,0,15.866V74.483L46.183,89.718l.387.128L93.14,74.481V15.866Zm0,29.739-8.064-2.662L77.743,14.632l8.064,2.662ZM20.477,21.63,59.715,8.683l12.2,4.024L32.674,25.654Zm-3.952,2.544,13.52,4.462v8.529L16.525,32.6ZM53.883,6.76,14.647,19.706,7.332,17.293,46.57,4.347ZM3,19.713l10.516,3.47V35.441l19.529,6.59V29.625L45.068,33.59V85.5L33.05,81.539V67.918L13.52,61.325V75.094L3,71.624ZM30.045,80.546l-13.52-4.461V66.2l13.52,4.56ZM48.072,85.5V33.59L90.135,19.711V71.624Zm0,0" transform="translate(0 -0.5)" fill="#2b376f"/>
  <path id="Path_1955" data-name="Path 1955" d="M141.931,327.954a1.448,1.448,0,1,0-1.023-.424A1.458,1.458,0,0,0,141.931,327.954Zm0,0" transform="translate(-68.267 -255.745)" fill="#2b376f"/>
  <path id="Path_1958" data-name="Path 1958" d="M141.931,327.954a1.448,1.448,0,1,0-1.023-.424A1.458,1.458,0,0,0,141.931,327.954Zm0,0" transform="translate(-62.427 -257.414)" fill="#2b376f"/>
  <path id="Path_1959" data-name="Path 1959" d="M141.931,327.954a1.448,1.448,0,1,0-1.023-.424A1.458,1.458,0,0,0,141.931,327.954Zm0,0" transform="translate(-56.586 -259.083)" fill="#2b376f"/>
</svg>
