<svg xmlns="http://www.w3.org/2000/svg" width="24.659" height="24" viewBox="0 0 24.659 24"><g transform="translate(-1282.832 -1647.977)"><path d="M222.767,343.22a1.115,1.115,0,0,0,0,2.229,1.115,1.115,0,1,0,0-2.229Z" transform="translate(1071.572 1319.631)" fill="#7b7da3"/><g transform="translate(992.881 912.643)"><path d="M301.951,759.334a11.993,11.993,0,1,1,10.8-6.754l1.815,5.014a.807.807,0,0,1-.924,1.064l-5.361-1.125A11.948,11.948,0,0,1,301.951,759.334Zm0-22.386A10.386,10.386,0,1,0,307.673,756a.8.8,0,0,1,.611-.117l4.267.9-1.44-3.979a.805.805,0,0,1,.044-.65,10.391,10.391,0,0,0-9.2-15.206Z" fill="#7b7da3"/></g><path d="M186.873,140c-1.954,0-2.851,1.158-2.851,1.94a.83.83,0,0,0,.868.825c.782,0,.463-1.115,1.94-1.115.724,0,1.3.318,1.3.984,0,.782-.811,1.23-1.288,1.636a2.65,2.65,0,0,0-.97,2.2c0,.753.2.97.8.97.709,0,.854-.318.854-.593a1.818,1.818,0,0,1,.811-1.809,3.705,3.705,0,0,0,1.621-2.649C189.957,141.03,188.726,140,186.873,140Z" transform="translate(1107.653 1514.41)" fill="#7b7da3"/></g></svg>