<svg xmlns="http://www.w3.org/2000/svg" width="67.964" height="71.001" viewBox="0 0 67.964 71.001"><g transform="translate(0.001)"><path d="M294.148,399.242l1.233.588-3.3,6.929-15.2-7.241,3.3-6.928,3.007,1.432Zm0,0" transform="translate(-237.204 -335.757)" fill="#ffc5c5"/><path d="M120.4,8a19.948,19.948,0,1,1-19.948,19.948A19.948,19.948,0,0,1,120.4,8ZM135.45,27.948A15.053,15.053,0,1,0,120.4,43,15.053,15.053,0,0,0,135.45,27.948Zm0,0" transform="translate(-84.435 -5.892)" fill="#c2e4fd"/><path d="M78.363,399.242l10.962-5.22,3.007-1.432,3.3,6.928-15.2,7.241-3.3-6.929Zm0,0" transform="translate(-67.344 -335.757)" fill="#ffc5c5"/><g transform="translate(-0.001)"><path d="M143.652,35.031A16.171,16.171,0,1,0,159.823,51.2a16.171,16.171,0,0,0-16.171-16.171Zm0,30.107A13.936,13.936,0,1,1,157.588,51.2,13.935,13.935,0,0,1,143.652,65.138Zm0,0" transform="translate(-109.669 -30.137)" fill="#2b376f"/><path d="M237.033,97.681h-5.579v-7.7a1.118,1.118,0,1,0-2.235,0v8.789a1.148,1.148,0,0,0,1.119,1.151h6.7a1.118,1.118,0,0,0,0-2.235Zm0,0" transform="translate(-197.192 -76.444)" fill="#083863"/><path d="M134.579,21.065a21.065,21.065,0,1,0-21.065,21.065A21.089,21.089,0,0,0,134.579,21.065ZM113.513,39.9a18.83,18.83,0,1,1,18.83-18.83A18.851,18.851,0,0,1,113.513,39.9Zm0,0" transform="translate(-79.531)" fill="#2b376f"/><path d="M296.043,126.243a1.117,1.117,0,0,0-1.213-.937,5.035,5.035,0,0,0-4.547,5.258l.2,8.233a6.335,6.335,0,0,0-5.081,3.572l-3.009,6.318a7.229,7.229,0,0,1-2,2.522l-.624.5A12.706,12.706,0,0,0,275,162.222l-1.229-.585a1.118,1.118,0,0,0-1.489.528l-3.3,6.928a1.118,1.118,0,0,0,.528,1.49l15.2,7.241a1.117,1.117,0,0,0,1.49-.529l3.3-6.929a1.118,1.118,0,0,0-.528-1.489l-.648-.309-.163-2.166a3.277,3.277,0,0,1,.744-2.34l7.873-9.528c.016-.019.031-.039.046-.059a13.063,13.063,0,0,0,2.441-7.779,1.085,1.085,0,0,0-.014-.158ZM284.67,175.325l-13.185-6.28,2.339-4.909,13.184,6.279Zm10.368-22.185-7.849,9.5a5.5,5.5,0,0,0-1.251,3.929l.067.893-8.642-4.116a10.484,10.484,0,0,1,3.807-9.892l.623-.5a9.468,9.468,0,0,0,2.618-3.3l3.01-6.318a4.1,4.1,0,0,1,4.1-2.309c.091.009.181.021.271.036l-4.4,9.238a1.118,1.118,0,1,0,2.018.961l4.946-10.387a1.118,1.118,0,0,0-.528-1.49,6.337,6.337,0,0,0-1.1-.4l-.207-8.479a.264.264,0,0,0,0-.029,2.8,2.8,0,0,1,1.514-2.637l3.008,18.979a10.815,10.815,0,0,1-2,6.332Zm0,0" transform="translate(-231.309 -107.794)" fill="#2b376f"/><path d="M26.987,162.168a1.118,1.118,0,0,0-1.489-.528l-1.229.585A12.707,12.707,0,0,0,19.5,151.714l-.626-.5a7.228,7.228,0,0,1-2-2.521l-3.009-6.318A6.337,6.337,0,0,0,8.789,138.8l.2-8.235c0-.08.006-.16.006-.237a5.023,5.023,0,0,0-4.554-5.016,1.117,1.117,0,0,0-1.212.938L.015,146.542A1.086,1.086,0,0,0,0,146.7a13.061,13.061,0,0,0,2.442,7.779c.014.02.029.04.045.059l7.873,9.528a3.273,3.273,0,0,1,.744,2.338l-.162,2.168-.648.309a1.118,1.118,0,0,0-.528,1.489l3.3,6.929a1.117,1.117,0,0,0,1.49.529l15.2-7.241a1.118,1.118,0,0,0,.528-1.49Zm-14.9.473-7.849-9.5a10.813,10.813,0,0,1-2-6.332l3.008-18.98a2.793,2.793,0,0,1,1.518,2.494c0,.05,0,.1,0,.154v.02l-.207,8.48a6.349,6.349,0,0,0-1.1.4,1.117,1.117,0,0,0-.529,1.489l4.946,10.387a1.118,1.118,0,1,0,2.018-.961l-4.4-9.238c.091-.015.182-.027.273-.037a4.094,4.094,0,0,1,4.1,2.31l3.009,6.318a9.463,9.463,0,0,0,2.616,3.3l.625.5a10.485,10.485,0,0,1,3.807,9.892l-8.642,4.116.067-.895a5.5,5.5,0,0,0-1.25-3.929ZM14.6,175.328l-2.338-4.91,11.187-5.327,2-.951,2.339,4.909Zm0,0" transform="translate(0.001 -107.797)" fill="#2b376f"/></g></g></svg>