<svg xmlns="http://www.w3.org/2000/svg" width="71.079" height="71.001" viewBox="0 0 71.079 71.001"><g transform="translate(0.458)"><path d="M-275.427-4099.285a9.7,9.7,0,0,1-9.707-7.471l-8.221-41.045.133-.008a2.842,2.842,0,0,0-.473-.04h2.39c1.178,0,2.633.011,3.962.047l7.984,40.057c.351,1.753,2.633,4.116,4.561,4.116h30.671c1.622,0,1.609.127,1.609,1.628a2.833,2.833,0,0,1-2.936,2.716Z" transform="translate(301.931 4159.192)" fill="#c2e4fd"/><path d="M118.758,82.285h50.49a1.916,1.916,0,0,0,0-3.824H118.093" transform="translate(-101.467 -66.22)" fill="#ffc5c5"/><path d="M-284.679-4140.356a2.36,2.36,0,0,0-2.32-1.931h-3.914a2.78,2.78,0,0,1-2.781-2.781h0a2.782,2.782,0,0,1,2.781-2.78H-287a7.922,7.922,0,0,1,7.789,6.48l.187,1.013Z" transform="translate(293.237 4149.891)" fill="#ffc5c5"/><path d="M186.172,448.6a4.164,4.164,0,1,1-4.164-4.164A4.164,4.164,0,0,1,186.172,448.6Zm0,0" transform="translate(-152.406 -381.764)" fill="#9ea4c4"/><path d="M343.68,448.6a4.164,4.164,0,1,1-4.164-4.164A4.164,4.164,0,0,1,343.68,448.6Zm0,0" transform="translate(-288.036 -381.764)" fill="#9ea4c4"/><path d="M175.392,436.836a5.154,5.154,0,1,0,5.154,5.154A5.16,5.16,0,0,0,175.392,436.836Zm0,8.222a3.068,3.068,0,1,1,3.068-3.068A3.072,3.072,0,0,1,175.392,445.058Zm0,0" transform="translate(-146.46 -376.929)" fill="#2b376f"/><path d="M332.9,436.836a5.154,5.154,0,1,0,5.154,5.154A5.16,5.16,0,0,0,332.9,436.836Zm0,8.222a3.068,3.068,0,1,1,3.068-3.068A3.072,3.072,0,0,1,332.9,445.058Zm0,0" transform="translate(-282.371 -376.929)" fill="#2b376f"/><path d="M67.782,9.717H58.263a1.043,1.043,0,0,0,0,2.086h9.519a.754.754,0,0,1,0,1.509H18.16L17.881,11.8H54.092a1.043,1.043,0,0,0,0-2.086h-36.6l-.442-2.385A8.966,8.966,0,0,0,8.236,0H4.323a3.824,3.824,0,0,0,0,7.647H8.236a1.319,1.319,0,0,1,1.3,1.078v.006c0,.007,0,.014,0,.02l5.045,27.226a1.043,1.043,0,0,0,2.051-.38L11.812,9.578h3.535l7.439,40.15a4.833,4.833,0,0,0,4.751,3.951H55.919a1.738,1.738,0,1,1,0,3.476H27.537a8.309,8.309,0,0,1-8.168-6.794L17.477,40.153a1.043,1.043,0,0,0-2.051.38l1.892,10.209a10.394,10.394,0,0,0,10.219,8.5H55.919a3.824,3.824,0,1,0,0-7.647H27.537a2.746,2.746,0,0,1-2.7-2.246l-.726-3.917H57.85a4.683,4.683,0,0,0,4.6-3.829s2.227-12.021,2.227-12.022L67.309,15.4h.472a2.84,2.84,0,0,0,0-5.68ZM53.822,28.329H47.484l.5-12.931H55.24ZM18.546,15.4h7.8l1.418,12.931H20.942Zm9.9,0H35.7l.5,12.931H29.865Zm9.343,0H45.9l-.5,12.931H38.29ZM8.236,5.562H4.323a1.738,1.738,0,0,1,0-3.476H8.236a6.88,6.88,0,0,1,6.719,5.407h-3.65A3.4,3.4,0,0,0,8.236,5.562ZM21.329,30.414H28l1.418,12.931H23.724Zm8.765,0h6.189l.5,12.931H31.512Zm8.777,12.931-.5-12.931h6.946l-.5,12.931Zm8.033,0,.5-12.931h6.189L52.175,43.346Zm13.5-2.124a2.6,2.6,0,0,1-2.553,2.124H54.273l1.419-12.931h6.714Zm2.389-12.893H55.921L57.339,15.4h7.85Zm0,0" fill="#2b376f"/><path d="M359.744,467.55a1.043,1.043,0,1,0-.436,1.3A1.052,1.052,0,0,0,359.744,467.55Zm0,0" transform="translate(-308.248 -402.889)" fill="#2b376f"/><path d="M202.234,467.462a1.042,1.042,0,1,0-.448,1.3A1.046,1.046,0,0,0,202.234,467.462Zm0,0" transform="translate(-172.34 -402.799)" fill="#2b376f"/></g></svg>