<svg id="shop" xmlns="http://www.w3.org/2000/svg" width="97.237" height="96.114" viewBox="0 0 97.237 96.114">
  <path id="Path_1922" data-name="Path 1922" d="M118.418,176.535,36,176.46l0,.1v61.01h82.6v-61.01Z" transform="translate(-29.242 -143.334)" fill="#fff"/>
  <path id="Path_1923" data-name="Path 1923" d="M96,290v37.674h21.964V290Z" transform="translate(-74.979 -231.56)" fill="#9ea4c4"/>
  <g id="Group_620" data-name="Group 620" transform="translate(21.021 12.386)">
    <path id="Path_1925" data-name="Path 1925" d="M387.263,50H376l7.509,22.527v3.754c0,4.147,3.925,7.509,8.072,7.509s8.072-3.362,8.072-7.509V72.527Z" transform="translate(-323.438 -50)" fill="#ffc5c5"/>
    <path id="Path_1926" data-name="Path 1926" d="M256,50V76.281a7.509,7.509,0,0,0,15.018,0V72.527L267.263,50Z" transform="translate(-225.964 -50)" fill="#ffc5c5"/>
    <path id="Path_1927" data-name="Path 1927" d="M96,72.527v3.754a7.509,7.509,0,1,0,15.018,0V72.527L114.772,50H103.509Z" transform="translate(-96 -50)" fill="#ffc5c5"/>
  </g>
  <g id="Group_621" data-name="Group 621" transform="translate(4.877 12.386)">
    <path id="Path_1928" data-name="Path 1928" d="M327.263,50H316l3.754,22.527v3.754a7.509,7.509,0,0,0,15.018,0V72.527Z" transform="translate(-258.557 -50)" fill="#c2e4fd"/>
    <path id="Path_1929" data-name="Path 1929" d="M176,72.527v3.754a7.509,7.509,0,1,0,15.018,0V50H179.754Z" transform="translate(-144.838 -50)" fill="#c2e4fd"/>
    <path id="Path_1930" data-name="Path 1930" d="M10,72.527v3.754c0,4.138,3.92,7.509,8.072,7.509s8.072-3.362,8.072-7.509V72.527L33.653,50H22.39Z" transform="translate(-10 -50)" fill="#c2e4fd"/>
  </g>
  <path id="Path_1931" data-name="Path 1931" d="M407.877,426a1.877,1.877,0,1,0,1.877,1.877A1.878,1.878,0,0,0,407.877,426Z" transform="translate(-329.784 -346.03)" fill="#2b376f"/>
  <path id="Path_1932" data-name="Path 1932" d="M83.724,8.9V5.632A5.638,5.638,0,0,0,78.093,0H18.021A5.638,5.638,0,0,0,12.39,5.632V8.9C.145,31.518,0,30.846,0,31.911v3.757a9.343,9.343,0,0,0,4.881,8V94.237a1.877,1.877,0,0,0,1.877,1.877h82.6a1.877,1.877,0,0,0,1.877-1.877V43.668a9.447,9.447,0,0,0,4.881-8V31.911C96.114,30.835,95.85,31.3,83.724,8.9ZM15.377,11.263h7.549L16.668,30.036H5.052Zm19.2,0L31.449,30.036H20.626l6.257-18.772Zm23.153,0,3.129,18.772H49.934V11.263Zm11.5,0,6.257,18.772H64.665L61.537,11.263ZM46.18,30.036H35.255l3.129-18.772h7.8ZM19.9,33.79H31.162v1.877a5.632,5.632,0,0,1-11.263,0Zm15.018,0H46.18v1.877a5.632,5.632,0,0,1-11.263,0Zm15.018,0H61.2v1.877a5.632,5.632,0,0,1-11.263,0Zm15.018,0H76.216v1.877a5.632,5.632,0,1,1-11.263,0Zm14.494-3.754L73.188,11.263h7.549L91.062,30.036Zm-63.3-24.4a1.879,1.879,0,0,1,1.877-1.877H78.093A1.879,1.879,0,0,1,79.97,5.632V7.509H16.144ZM3.754,33.79h12.39v1.877c0,2.947-2.953,5.632-6.195,5.632A6.292,6.292,0,0,1,7.5,40.784a5.838,5.838,0,0,1-3.742-5.117ZM38.671,72.461H19.9V56.317H38.671ZM19.9,76.216H38.671V92.36H19.9ZM42.425,92.36V54.44a1.877,1.877,0,0,0-1.877-1.877H18.021a1.877,1.877,0,0,0-1.877,1.877V92.36H8.635v-47.4a9.753,9.753,0,0,0,1.314.092A10.348,10.348,0,0,0,16.8,42.368a10.15,10.15,0,0,0,1.128-1.2,9.374,9.374,0,0,0,15.11.128,9.376,9.376,0,0,0,15.018,0,9.376,9.376,0,0,0,15.018,0,9.374,9.374,0,0,0,15.11-.128,10.163,10.163,0,0,0,1.128,1.2,10.348,10.348,0,0,0,6.852,2.686,9.713,9.713,0,0,0,1.314-.091v47.4ZM92.36,35.667a5.843,5.843,0,0,1-3.881,5.176,6.237,6.237,0,0,1-2.314.455c-3.242,0-6.195-2.684-6.195-5.632V33.79H92.36Z" fill="#2b376f"/>
  <path id="Path_1933" data-name="Path 1933" d="M297.913,299.9h-1.877V281.877A1.877,1.877,0,0,0,294.158,280H271.632a1.877,1.877,0,0,0-1.877,1.877V299.9h-1.877a1.877,1.877,0,0,0,0,3.754h30.036a1.877,1.877,0,0,0,0-3.754Zm-24.4-16.144h18.772V299.9H273.509Z" transform="translate(-216.066 -227.438)" fill="#2b376f"/>
  <path id="Path_1934" data-name="Path 1934" d="M302.9,426H287.877a1.877,1.877,0,1,0,0,3.754H302.9a1.877,1.877,0,0,0,0-3.754Z" transform="translate(-232.311 -346.03)" fill="#2b376f"/>
</svg>
