<svg xmlns="http://www.w3.org/2000/svg" width="63.483" height="70.587" viewBox="0 0 63.483 70.587"><g transform="translate(-26)"><path d="M84.688,358.2,77.559,356H55.394l-7.129,2.2A17.679,17.679,0,0,0,36,374.7H96.954A17.679,17.679,0,0,0,84.688,358.2Z" transform="translate(-7.471 -304.114)" fill="#c2e4fd"/><path d="M183.623,117.02l-3.231-.462A23.186,23.186,0,0,1,167.276,110a10.932,10.932,0,0,0-8.744,4.372l-2.131,2.842a85.606,85.606,0,0,0,.866,9.591c.58,3.839,1.066,7.453,4.869,10.75l-.068.077-2.989,5.979A53.293,53.293,0,0,0,167,158.722l3.013,4.837,3.013-4.837a53.286,53.286,0,0,0,7.918-15.111l-2.989-5.979-.068-.077a13.469,13.469,0,0,0,4.4-7.866c.266-1.608.359-2.121.48-2.939a85.926,85.926,0,0,0,.866-9.731Z" transform="translate(-112.584 -94.971)" fill="#fff"/><path d="M355.3,150v8.418a2.618,2.618,0,0,1-2.562,2.672h-3.074l-.343-.053a87.57,87.57,0,0,0,.812-9.516q.025-.766.033-1.521H355.3Z" transform="translate(-277.145 -127.506)" fill="#ffc5c5"/><path d="M170.886,50a12.482,12.482,0,0,1,12.44,12.489c0,.691-.014,1.79-.046,2.728l-3.233-.462A23.186,23.186,0,0,1,166.93,58.2a10.932,10.932,0,0,0-8.744,4.372l-2.131,2.842c-.036-.953-.055-2.067-.055-2.922A12.482,12.482,0,0,1,168.44,50h2.446Z" transform="translate(-111.238 -45.169)" fill="#9ea4c4"/><g transform="translate(38.297 20.494)"><path d="M221.465,253a2.733,2.733,0,1,1,0,5.465h-2.733a2.733,2.733,0,1,1,0-5.465Z" transform="translate(-200.337 -237.927)" fill="#c2e4fd"/><path d="M122.121,160.608h-3.5A2.587,2.587,0,0,1,116,158.052V150h5.248q.01.811.042,1.636A78.214,78.214,0,0,0,122.121,160.608Z" transform="translate(-117.735 -148)" fill="#ffc5c5"/></g><path d="M357.366,398.733A1.366,1.366,0,1,0,356,397.366,1.367,1.367,0,0,0,357.366,398.733Z" transform="translate(-284.913 -341.895)" fill="#2b376f"/><path d="M27.366,69.954H87.483a1.366,1.366,0,0,0,1.366-1.366c0-8.434-5.48-16.383-13.031-18.9l-6.494-2.164L66.992,42.86a14.964,14.964,0,0,0,4.05-7.916l.291-1.743H73.82a4.1,4.1,0,0,0,4.1-4.1V20.494a20.494,20.494,0,0,0-40.988,0V29.1a4.105,4.105,0,0,0,2.733,3.864v1.6a4.1,4.1,0,0,0,4.1,4.1h1.2a14.822,14.822,0,0,0,2.292,3.549c.193.222.4.438.6.648l-2.33,4.66-6.494,2.164C31.48,52.2,26,60.153,26,68.587A1.366,1.366,0,0,0,27.366,69.954ZM57.424,66l-1.853-2.975q-.031-.05-.066-.1a52.094,52.094,0,0,1-3.079-4.6L57.3,53.179l5.134,5.134a52.036,52.036,0,0,1-3.089,4.617C59.277,63.02,59.372,62.88,57.424,66Zm6.391-10.172-4.638-4.638,5.839-6.175,1.859,3.718A52.043,52.043,0,0,1,63.816,55.831ZM57.245,49.26l-2.668-2.668a13.7,13.7,0,0,0,5.082.114ZM49.6,45.481l5.765,5.765-4.334,4.583a52.057,52.057,0,0,1-3.059-7.093Zm36.461,21.74H59.885l1.681-2.7a54.764,54.764,0,0,0,3.766-5.756l.02-.036,0,0A54.725,54.725,0,0,0,69.2,50.362l5.751,1.917C81.016,54.3,85.52,60.453,86.062,67.221ZM41.029,30.468A1.368,1.368,0,0,1,39.663,29.1V21.861h2.773q.007.214.015.43s0,.01,0,.015h0c.1,2.742.324,5.531.663,8.162H41.029Zm28.681-10s0,.009,0,.013L68,20.235a21.954,21.954,0,0,1-12.343-6.172,1.367,1.367,0,0,0-.966-.4,12.361,12.361,0,0,0-9.5,4.5A11.106,11.106,0,0,1,56.2,8.2h2.446A11.11,11.11,0,0,1,69.721,19.321C69.721,19.751,69.718,20.125,69.71,20.466ZM75.186,29.1a1.368,1.368,0,0,1-1.366,1.366H71.735c.347-2.69.579-5.553.672-8.373,0-.08,0-.157.007-.235h2.772ZM57.424,2.733a17.785,17.785,0,0,1,17.71,16.4H72.451a13.838,13.838,0,0,0-13.8-13.663H56.2A13.838,13.838,0,0,0,42.4,19.128H39.715A17.751,17.751,0,0,1,57.424,2.733ZM42.4,34.567V33.2h1.12l.291,1.743c.055.331.124.661.2.989h-.247A1.368,1.368,0,0,1,42.4,34.567Zm8.433,4.1A4.105,4.105,0,0,0,54.692,41.4h2.733a4.1,4.1,0,1,0,0-8.2H54.692a4.1,4.1,0,0,0-3.866,2.733H46.841a78.1,78.1,0,0,1-1.64-13.26l1.839-2.452a9.617,9.617,0,0,1,7.111-3.81A24.713,24.713,0,0,0,67.615,22.94l2.011.287c-.134,2.853-.409,5.717-.8,8.35v0c-.125.847-.224,1.392-.476,2.913a11.605,11.605,0,0,1-8.237,9.333,10.75,10.75,0,0,1-12.068-5.162Zm2.5-1.366a1.367,1.367,0,0,1,1.366-1.366h2.733a1.366,1.366,0,1,1,0,2.733H54.692A1.368,1.368,0,0,1,53.326,37.3ZM39.9,52.279l5.751-1.917A54.77,54.77,0,0,0,49.535,58.8l.008.014h0a54.786,54.786,0,0,0,3.74,5.711l1.681,2.7H28.787C29.329,60.453,33.833,54.3,39.9,52.279Z" fill="#2b376f"/><path d="M391.672,417.538a10.913,10.913,0,0,1,3.089,3.751,1.366,1.366,0,0,0,2.445-1.221,13.659,13.659,0,0,0-3.868-4.7,1.366,1.366,0,0,0-1.666,2.166Z" transform="translate(-315.251 -358.376)" fill="#2b376f"/></g></svg>