<svg xmlns="http://www.w3.org/2000/svg" width="163.092" height="34.939" viewBox="0 0 163.092 34.939">
  <g id="Group_637" data-name="Group 637" transform="translate(0 0)">
    <path id="Path_2024" data-name="Path 2024" d="M376.953,476.716c-3.82-.606-7.222-.793-7.222-2.843a2.865,2.865,0,0,1,1.213-2.189,7.275,7.275,0,0,1,3.54-.7,4.552,4.552,0,0,1,3.168,1.4,4.742,4.742,0,0,1,1.117,2.377h6.2a7.611,7.611,0,0,0-2.889-5.777,11.706,11.706,0,0,0-7.034-2.8c-2.936,0-5.824.093-7.825,1.584a8.037,8.037,0,0,0-3.449,5.962,8.558,8.558,0,0,0,.372,3.54,11.979,11.979,0,0,0,3.169,3.4c1.629.931,5.449,1.3,7.546,1.864,1.725.418,3.821.512,4.286,2.234a2.2,2.2,0,0,1-.978,2.564,6.785,6.785,0,0,1-3.726,1.024,4.886,4.886,0,0,1-3.774-1.4,11.8,11.8,0,0,1-1.538-3.073h-6.194a10.393,10.393,0,0,0,3.68,7.22,11.948,11.948,0,0,0,7.733,2.283c3.26,0,6.1-.559,8.2-2.051a8.506,8.506,0,0,0,3.168-6.569,7.745,7.745,0,0,0-1.444-4.7c-1.817-2.374-5.078-3.028-7.314-3.353Z" transform="translate(-235.149 -458.454)" fill="#7b7da3" fill-rule="evenodd"/>
    <path id="Path_2025" data-name="Path 2025" d="M285.095,492.708h6.289V466.621h-6.289v26.087Z" transform="translate(-224.069 -458.515)" fill="#7b7da3" fill-rule="evenodd"/>
    <path id="Path_2026" data-name="Path 2026" d="M285.095,463.514h6.336v-6.289h-6.336v6.289Z" transform="translate(-224.069 -457.178)" fill="#7b7da3" fill-rule="evenodd"/>
    <path id="Path_2027" data-name="Path 2027" d="M270.745,468.731a14.726,14.726,0,0,0-8.571-3.169h-.327a13.09,13.09,0,1,0,0,26.181h.327a12.337,12.337,0,0,0,8.525-3.587h0l.046,3.214h5.963V457.225h-5.963v11.506Zm-8.525,17.655h-.046a7.78,7.78,0,0,1,0-15.56h.046a7.78,7.78,0,0,1,0,15.56Z" transform="translate(-218.897 -457.178)" fill="#7b7da3" fill-rule="evenodd"/>
    <path id="Path_2028" data-name="Path 2028" d="M316.254,468.63a14.69,14.69,0,0,0-8.571-3.168h-.327a13.114,13.114,0,1,0,0,26.227h.327a12.7,12.7,0,0,0,8.525-3.633h0v3.214h5.962v-34.1h-5.962l.046,11.46Zm-8.571,17.7a7.78,7.78,0,1,1,7.826-7.824,7.873,7.873,0,0,1-7.826,7.824Z" transform="translate(-225.368 -457.17)" fill="#7b7da3" fill-rule="evenodd"/>
    <path id="Path_2029" data-name="Path 2029" d="M235.416,466.505v2.47h0a6.769,6.769,0,0,0-3.167-2.238,15.32,15.32,0,0,0-4.659-.931h-.28a13.917,13.917,0,0,0-5.356.977,12.634,12.634,0,0,0-4.287,3.076,13.271,13.271,0,0,0-3.726,9.456A13.446,13.446,0,0,0,227.59,493.1h.048a14.4,14.4,0,0,0,4.7-.978,5.878,5.878,0,0,0,3.074-1.864h0v2.375l6.056-.045-.045-26.134-6.01.046Zm-7.778,20.682h-.048a7.732,7.732,0,1,1,0-15.464h.048a7.732,7.732,0,0,1,0,15.464Z" transform="translate(-213.941 -458.399)" fill="#7b7da3" fill-rule="evenodd"/>
    <path id="Path_2030" data-name="Path 2030" d="M350.621,466.4l.046,2.469h0a7.827,7.827,0,0,0-3.167-2.238,15.7,15.7,0,0,0-4.66-.884h-.278a14.823,14.823,0,0,0-5.357.932,12.362,12.362,0,0,0-4.286,3.075,12.579,12.579,0,0,0-2.8,4.379,14.313,14.313,0,0,0-.978,5.122,13.421,13.421,0,0,0,3.959,9.831A13.2,13.2,0,0,0,342.84,493a12.857,12.857,0,0,0,4.706-.977,6.031,6.031,0,0,0,3.121-1.863h0v2.376l6.058-.046-.1-26.088Zm-7.781,20.729a7.756,7.756,0,1,1,7.781-7.779,7.822,7.822,0,0,1-7.781,7.779Z" transform="translate(-230.34 -458.392)" fill="#7b7da3" fill-rule="evenodd"/>
    <path id="Path_2031" data-name="Path 2031" d="M394.392,450.427a.163.163,0,0,1-.094-.045,7.337,7.337,0,1,0,0,14.673h.094a7.314,7.314,0,0,0,0-14.628Zm0,13.463a6.1,6.1,0,1,1,6.149-6.1,6.143,6.143,0,0,1-6.149,6.1Z" transform="translate(-238.566 -450.038)" fill="#7b7da3" fill-rule="evenodd"/>
    <path id="Path_2032" data-name="Path 2032" d="M397.245,459.524a4.994,4.994,0,0,0-.883-.7,2.346,2.346,0,0,0,1.582-.792,2.013,2.013,0,0,0,.561-1.4,3.026,3.026,0,0,0-.374-1.3,2.359,2.359,0,0,0-.932-.746,5.932,5.932,0,0,0-1.862-.186h-3.4v7.966h1.629v-3.354h.28a3.49,3.49,0,0,1,.84.093.841.841,0,0,1,.419.279c0,.048.047.048.047.094a4.658,4.658,0,0,1,.886,1.117h0l1.162,1.771h1.911l-.979-1.537h0a9.676,9.676,0,0,0-.886-1.305Zm-2.142-1.769h-1.539v-2H395.1a3.7,3.7,0,0,1,.886.045.913.913,0,0,1,.6.28.71.71,0,0,1,.234.6.985.985,0,0,1-.187.652c-.139.094-.279.232-.419.327-.185.045-.56.045-1.118.093Z" transform="translate(-239.278 -450.61)" fill="#7b7da3" fill-rule="evenodd"/>
  </g>
</svg>
