<svg xmlns="http://www.w3.org/2000/svg" width="116.499" height="34.939" viewBox="0 0 116.499 34.939"><path d="M409.25,472.964l36.309-.13a2.368,2.368,0,0,1,2.391,2.329l.077,21.526a2.368,2.368,0,0,1-2.375,2.346l-36.309.13a2.367,2.367,0,0,1-2.391-2.329l-.077-21.526a2.368,2.368,0,0,1,2.375-2.346Z" transform="translate(-406.227 -472.516)" fill="#7b7da3" fill-rule="evenodd"/><path d="M422.766,493.941l-.191-5.779a78.921,78.921,0,0,0-8.976.26,1.76,1.76,0,0,1-1.351-.629c-1.8-1.886-2.154-2.223.948-2.319,7.3-.224,28.5-.811,32.287-.012,3.209.979-.374,4.21-.827,4.93l-4.788,5.3a5.751,5.751,0,0,1-3.324,1.076l-15.858-.017a1.97,1.97,0,0,1-1.811-.729l-.924-1.137c.078-.5-.227-.772.6-.838l4.219-.109Zm6.54-5.891a55.56,55.56,0,0,1,7.211.172c1.535.265,1.559.252.7,1.747l-1.628,3.044a1.384,1.384,0,0,1-1.328.911l-4.679-.018-.28-5.857Z" transform="translate(-407.737 -477.127)" fill="#fff" fill-rule="evenodd"/><path d="M478.77,498.975h6.684c2.184,0,5.85-3.272,5.85-7.089V480.4c-.468-.679.432-6.371-6.6-7.056-.238-.024-.479.031-.722.031H478.77v25.6Zm4.705-5.012V477.785c.686-.114,2.7-.312,2.7,2.826v10.656c0,2.1-1.044,2.7-2.7,2.7Zm9.879,4.67h5.27V472.876h-5.27v25.756Zm7.319,0h10.862v-4.42h-5.561V488.32h4.514v-5.277h-4.429v-5.236h5.956v-4.673H500.672v25.5Zm11.858-8.048v2.3c0,4.4,2.969,6.373,5.986,6.373,3.42,0,6.32-1.414,6.662-7.314a3.714,3.714,0,0,0-.028-1.105c-1.8-7.318-8.361-8.071-8.023-12.133.147-1.765.882-1.973,1.5-1.973,1.018,0,1.257,1.089,1.257,3.992h4.758v-.81c0-5.6-2.942-7.658-6.122-7.594-3.609.071-5.9,2.056-6.259,6.453a4.115,4.115,0,0,0-.052.656c.342,7.756,8.155,9.054,8.155,12.521,0,1.7-.615,2.666-1.788,2.629-.94-.03-1.541-.76-1.541-2.557v-1.441Zm13.945,8.048h11.033v-4.42h-5.9v-5.979h4.428v-5.02h-4.172v-5.408h5.786v-4.844H526.476v25.67Zm12.507,0h10.332v-4.506h-4.807V473.219h-5.526v25.414Z" transform="translate(-433.353 -472.323)" fill="#7b7da3" fill-rule="evenodd"/><path d="M589.65,473.785a1.476,1.476,0,0,0,0,2.952,1.476,1.476,0,1,0,0-2.952Zm0,.126a1.383,1.383,0,0,1,1.356,1.347,1.347,1.347,0,1,1-1.356-1.347Zm-.342,1.432H589.3c.009-.028.018-.047.056-.047h.065c.211,0,.31.249.413.413.118.164.2.309.413.356.033-.019.184,0,.184-.047a1.691,1.691,0,0,1-.2-.089,3.184,3.184,0,0,1-.488-.7.592.592,0,0,0,.22-.192.6.6,0,0,0,.075-.235c-.019-.287-.3-.371-.544-.385-.183,0-.356,0-.54,0-.019,0-.046,0-.046.019s0,.019.046.028c.141.019.174.141.174.258,0,.192,0,.4-.01.623a3.009,3.009,0,0,1,.01.3.819.819,0,0,1-.01.164.2.2,0,0,1-.108.184c-.028.009-.066,0-.066.037,0,.01.019.019.047.029a.073.073,0,0,1,.028-.009h.47a.082.082,0,0,1,.024.009c.027-.009.056-.019.056-.038s-.075-.027-.08-.027c-.047-.014-.15-.009-.179-.193v-.464Zm.075-.141c-.065,0-.075,0-.075-.08,0-.154,0-.258-.009-.356.018-.113-.024-.268.131-.268a.41.41,0,0,1,.422.4c0,.277-.258.3-.47.3Z" transform="translate(-474.633 -472.874)" fill="#0a0406" fill-rule="evenodd"/><path d="M405.836,525.269v-4.91h1.935a5.366,5.366,0,0,1,1,.07,1.994,1.994,0,0,1,1.488,1.191,2.923,2.923,0,0,1,.22,1.168,3.049,3.049,0,0,1-.148.991,2.3,2.3,0,0,1-.384.714,1.912,1.912,0,0,1-.511.446,2.238,2.238,0,0,1-.671.246,4.4,4.4,0,0,1-.9.084Zm.744-.579h1.2a3.331,3.331,0,0,0,.872-.09,1.309,1.309,0,0,0,.5-.255,1.524,1.524,0,0,0,.412-.621,2.7,2.7,0,0,0,.148-.947,2.052,2.052,0,0,0-.29-1.184,1.411,1.411,0,0,0-.7-.554,3.308,3.308,0,0,0-.961-.1h-1.181v3.752Zm9.34.579v-4.91h4.061v.579h-3.318v1.5h3.107v.577h-3.107v1.672h3.449v.579Zm9.611,0v-4.91h.763l2.95,3.856v-3.856h.712v4.91h-.763l-2.95-3.858v3.858Zm10.2,0v-4.91h.744v4.91Zm6.431,0v-4.91h1.118l1.329,3.477c.122.324.213.566.268.727.063-.179.164-.442.3-.787l1.344-3.416h1v4.91h-.717v-4.11l-1.632,4.11H444.5l-1.624-4.18v4.18Zm15.566,0v-4.91h1.935a5.364,5.364,0,0,1,1,.07,2,2,0,0,1,1.488,1.191,2.923,2.923,0,0,1,.22,1.168,3.047,3.047,0,0,1-.149.991,2.3,2.3,0,0,1-.384.714,1.912,1.912,0,0,1-.511.446,2.238,2.238,0,0,1-.671.246,4.395,4.395,0,0,1-.9.084Zm.744-.579h1.2a3.33,3.33,0,0,0,.872-.09,1.3,1.3,0,0,0,.5-.255,1.511,1.511,0,0,0,.412-.621,2.7,2.7,0,0,0,.148-.947,2.047,2.047,0,0,0-.29-1.184,1.411,1.411,0,0,0-.7-.554,3.306,3.306,0,0,0-.961-.1h-1.181v3.752Zm9.451.579v-4.91h.743v4.91Zm8.06,0-2.178-4.91h.805l1.459,3.567c.118.285.216.554.3.8.087-.267.189-.537.3-.8l1.517-3.567h.758l-2.2,4.91Zm8.156,0v-4.91h.743v4.91Zm6.2-1.578.7-.054a1.243,1.243,0,0,0,.231.605,1.257,1.257,0,0,0,.566.382,2.411,2.411,0,0,0,.862.146,2.333,2.333,0,0,0,.751-.111,1.053,1.053,0,0,0,.484-.3.646.646,0,0,0,.159-.42.586.586,0,0,0-.153-.4,1.149,1.149,0,0,0-.505-.29q-.227-.078-1-.24a5.561,5.561,0,0,1-1.085-.306,1.475,1.475,0,0,1-.6-.457,1.017,1.017,0,0,1-.2-.612,1.137,1.137,0,0,1,.241-.694,1.473,1.473,0,0,1,.7-.491,3.025,3.025,0,0,1,1.031-.168,3.193,3.193,0,0,1,1.1.176,1.569,1.569,0,0,1,.734.517,1.363,1.363,0,0,1,.276.775l-.713.047a.966.966,0,0,0-.389-.7,1.669,1.669,0,0,0-.979-.239,1.747,1.747,0,0,0-.981.216.624.624,0,0,0-.309.521.534.534,0,0,0,.218.436,3.23,3.23,0,0,0,1.12.35,8.209,8.209,0,0,1,1.244.313,1.686,1.686,0,0,1,.724.5,1.115,1.115,0,0,1,.233.7,1.22,1.22,0,0,1-.256.738,1.658,1.658,0,0,1-.738.539,2.892,2.892,0,0,1-1.083.193,3.657,3.657,0,0,1-1.277-.194,1.756,1.756,0,0,1-.808-.584,1.511,1.511,0,0,1-.309-.884Zm10.014,1.578v-4.91h.743v4.91Zm6.228-2.391a2.478,2.478,0,0,1,.75-1.915,2.753,2.753,0,0,1,1.939-.692,3,3,0,0,1,1.4.325,2.261,2.261,0,0,1,.952.906,2.634,2.634,0,0,1,.328,1.318,2.6,2.6,0,0,1-.344,1.336,2.217,2.217,0,0,1-.978.893,3.126,3.126,0,0,1-1.364.3,2.963,2.963,0,0,1-1.417-.334,2.285,2.285,0,0,1-.946-.915,2.5,2.5,0,0,1-.323-1.226Zm.767.009a1.824,1.824,0,0,0,.545,1.4,1.924,1.924,0,0,0,3.293-1.469,2.251,2.251,0,0,0-.231-1.046,1.65,1.65,0,0,0-.678-.694,2.178,2.178,0,0,0-2.361.227,1.955,1.955,0,0,0-.569,1.583Zm9.956,2.382v-4.91h.762l2.95,3.856v-3.856h.713v4.91h-.763l-2.95-3.858v3.858Z" transform="translate(-405.835 -490.413)" fill="#7b7da3" fill-rule="evenodd"/></svg>