<svg xmlns="http://www.w3.org/2000/svg" width="89.308" height="38.088" viewBox="0 0 89.308 38.088"><path d="M863.158,348.948H857.6a1.074,1.074,0,0,0-1.074,1.073v23.828a1.075,1.075,0,0,0,1.074,1.074h5.56c10.21,0,12.353-7,12.353-12.868,0-7.962-4.849-13.107-12.353-13.107m.958,22.081h-3.081V352.876h2.048c5.078,0,8.11,3.437,8.11,9.2,0,6.177-4.139,8.955-7.077,8.955" transform="translate(-793.58 -348.948)" fill="#7b7da3"/><path d="M1154.554,374.923a1.074,1.074,0,0,1-1.073-1.074V350.022a1.073,1.073,0,0,1,1.073-1.074h2.364a1.074,1.074,0,0,1,1.073,1.074v23.827a1.074,1.074,0,0,1-1.073,1.074Z" transform="translate(-1068.684 -348.948)" fill="#7b7da3"/><path d="M291.877,351.777a1.074,1.074,0,0,1-1.074,1.074H278.761v6.75h10.327a1.074,1.074,0,0,1,1.073,1.075v1.735a1.074,1.074,0,0,1-1.073,1.074H278.762v7.433h12a1.074,1.074,0,0,1,1.074,1.074v1.859a1.074,1.074,0,0,1-1.074,1.074H275.13a1.074,1.074,0,0,1-1.074-1.074V350.022a1.073,1.073,0,0,1,1.074-1.074H290.8a1.073,1.073,0,0,1,1.074,1.074Z" transform="translate(-253.978 -348.948)" fill="#7b7da3"/><path d="M1.229,350.022A1.074,1.074,0,0,1,2.3,348.948H17.889a1.073,1.073,0,0,1,1.073,1.074v1.729a1.074,1.074,0,0,1-1.073,1.075H5.671v6.72h8.246a1.074,1.074,0,0,1,1.073,1.074v1.869a1.074,1.074,0,0,1-1.073,1.075H5.671v10.288A1.073,1.073,0,0,1,4.6,374.923H2.3a1.074,1.074,0,0,1-1.074-1.074Z" transform="translate(-1.229 -348.948)" fill="#7b7da3"/><path d="M561.979,357.462v16.387a1.074,1.074,0,0,1-1.074,1.074h-2.366a1.074,1.074,0,0,1-1.074-1.074V350.021a1.073,1.073,0,0,1,1.074-1.073h2.347c.77,0,1.18.121,1.49.693l9.136,16.516V350.021a1.074,1.074,0,0,1,1.074-1.073h2.33a1.074,1.074,0,0,1,1.074,1.073v23.828a1.074,1.074,0,0,1-1.074,1.074h-2.259c-.77,0-1.179-.123-1.49-.695Z" transform="translate(-516.531 -348.948)" fill="#7b7da3"/><g transform="translate(33.038 32.337)"><path d="M451.681,792.822h-.395v1.787a.74.74,0,0,1-.156.52.529.529,0,0,1-.406.167.518.518,0,0,1-.417-.175.774.774,0,0,1-.148-.512V790.33a.591.591,0,0,1,.69-.69h1.833a5.554,5.554,0,0,1,.649.032,1.636,1.636,0,0,1,.486.131,1.4,1.4,0,0,1,.463.315,1.378,1.378,0,0,1,.306.476,1.593,1.593,0,0,1,.1.575,1.388,1.388,0,0,1-.351.994,2.017,2.017,0,0,1-1.064.527,2.063,2.063,0,0,1,.573.47,4.781,4.781,0,0,1,.488.662,4.915,4.915,0,0,1,.334.634,1.241,1.241,0,0,1,.119.389.4.4,0,0,1-.07.218.491.491,0,0,1-.191.17.6.6,0,0,1-.281.063.547.547,0,0,1-.319-.089.86.86,0,0,1-.222-.226q-.093-.137-.252-.4l-.451-.751a4.119,4.119,0,0,0-.435-.63,1.065,1.065,0,0,0-.389-.3A1.332,1.332,0,0,0,451.681,792.822Zm.645-2.337h-1.039v1.529H452.3a2.8,2.8,0,0,0,.683-.07.8.8,0,0,0,.423-.239.687.687,0,0,0,.146-.465.7.7,0,0,0-.444-.672A2.36,2.36,0,0,0,452.326,790.486Z" transform="translate(-450.16 -789.545)" fill="#7b7da3"/><path d="M525.393,788.348a2.966,2.966,0,0,1,1.485.351,2.272,2.272,0,0,1,.939,1,3.4,3.4,0,0,1,.318,1.519,3.713,3.713,0,0,1-.174,1.172,2.537,2.537,0,0,1-.524.915,2.292,2.292,0,0,1-.857.592,3.106,3.106,0,0,1-1.165.2,3.068,3.068,0,0,1-1.168-.211,2.311,2.311,0,0,1-.861-.594,2.532,2.532,0,0,1-.522-.922,3.717,3.717,0,0,1-.177-1.164,3.588,3.588,0,0,1,.184-1.176,2.52,2.52,0,0,1,.533-.91,2.309,2.309,0,0,1,.85-.575A3.052,3.052,0,0,1,525.393,788.348Zm1.6,2.86a2.61,2.61,0,0,0-.2-1.059,1.471,1.471,0,0,0-.563-.677,1.546,1.546,0,0,0-.84-.229,1.521,1.521,0,0,0-.624.127,1.368,1.368,0,0,0-.493.37,1.77,1.77,0,0,0-.327.62,2.813,2.813,0,0,0-.119.848,2.882,2.882,0,0,0,.119.858,1.761,1.761,0,0,0,.338.635,1.42,1.42,0,0,0,.5.378,1.582,1.582,0,0,0,1.415-.091,1.5,1.5,0,0,0,.576-.668A2.584,2.584,0,0,0,526.994,791.208Z" transform="translate(-517.35 -788.348)" fill="#7b7da3"/><path d="M611.065,794.363l-.891-3.543v3.839a.7.7,0,0,1-.142.478.522.522,0,0,1-.749,0,.692.692,0,0,1-.144-.48v-4.4a.552.552,0,0,1,.189-.491.909.909,0,0,1,.512-.127h.349a1.328,1.328,0,0,1,.457.057.385.385,0,0,1,.211.205,3.188,3.188,0,0,1,.156.482l.808,3.046.808-3.046a3.214,3.214,0,0,1,.156-.482.385.385,0,0,1,.211-.205,1.328,1.328,0,0,1,.457-.057h.349a.909.909,0,0,1,.512.127.551.551,0,0,1,.19.491v4.4a.7.7,0,0,1-.143.478.485.485,0,0,1-.381.16.472.472,0,0,1-.367-.16.691.691,0,0,1-.144-.478V790.82l-.892,3.543q-.087.345-.142.506a.7.7,0,0,1-.2.294.592.592,0,0,1-.409.133.6.6,0,0,1-.546-.3,1.225,1.225,0,0,1-.119-.294Q611.11,794.538,611.065,794.363Z" transform="translate(-597.438 -789.545)" fill="#7b7da3"/><path d="M696.294,793.38l-.266-.7h-2.261l-.265.713a2.5,2.5,0,0,1-.266.564.423.423,0,0,1-.361.146.529.529,0,0,1-.375-.156.477.477,0,0,1-.163-.353.775.775,0,0,1,.038-.235c.026-.081.067-.194.125-.338l1.422-3.611.146-.373a1.9,1.9,0,0,1,.182-.362.733.733,0,0,1,.254-.233.783.783,0,0,1,.389-.089.791.791,0,0,1,.393.089.748.748,0,0,1,.254.229,1.65,1.65,0,0,1,.163.3q.066.162.169.431l1.453,3.589a1.79,1.79,0,0,1,.171.6.493.493,0,0,1-.161.355.529.529,0,0,1-.389.161.512.512,0,0,1-.228-.047.47.47,0,0,1-.159-.129,1.176,1.176,0,0,1-.138-.25C696.371,793.565,696.329,793.466,696.294,793.38Zm-2.231-1.544h1.662l-.839-2.295Z" transform="translate(-674.515 -788.353)" fill="#7b7da3"/></g></svg>