<svg xmlns="http://www.w3.org/2000/svg" width="190.825" height="41.088" viewBox="0 0 190.825 41.088"><path d="M421.982,433.378c-3.668,0-13.811-2.292-13.811-13.066s9.656-13.095,13.553-13.095,8.052.716,10.459,2.321h0v5.043h0a.43.43,0,1,1-.86,0,8.261,8.261,0,0,0-8.08-5.9c-6.189.124-10.373,4.986-10.373,11.4s4.069,11.919,10.2,11.748a9.2,9.2,0,0,0,5.077-1.523h0l.024-5.583h0a1.9,1.9,0,0,0-1.948-2.177.459.459,0,1,1,0-.917h8.367c.631,0,.631.975,0,.917a1.9,1.9,0,0,0-1.948,2.177h0v5.731h0c-2.063,1.833-6.991,2.922-10.659,2.922Z" transform="translate(-340.451 -400.469)" fill="#7b7da3" fill-rule="evenodd"/><path d="M506.452,433.254a21.59,21.59,0,0,0,10.946-3.783h0v-4.7h0c0-.631-.4-.745-.631.057s-3.152,6.877-9.284,7.048-10.143-5.5-10.143-11.919,4.184-11.452,10.373-11.576a8.353,8.353,0,0,1,8.08,6.075c0,.572.631.63.631,0h0v-5.044h0c-2.406-1.6-6.361-2.578-10.258-2.578s-13.525,2.578-13.525,13.352,10.143,13.066,13.811,13.066Z" transform="translate(-367.834 -400.345)" fill="#7b7da3" fill-rule="evenodd"/><path d="M584.937,432.067a1.9,1.9,0,0,1-1.948-2.178h0V410.806h0a1.9,1.9,0,0,1,1.948-2.178c.917,0,.917-.86,0-.86h-8.424c-.917,0-.917.86,0,.86a1.9,1.9,0,0,1,1.948,2.178h0v19.083h0a1.9,1.9,0,0,1-1.948,2.178c-.917,0-.917,1.146,0,1.146h8.424c.917,0,.917-1.146,0-1.146Z" transform="translate(-394.8 -400.648)" fill="#7b7da3" fill-rule="evenodd"/><path d="M451.47,408.63a1.9,1.9,0,0,1,1.948,2.178h0V423.33h0a10.332,10.332,0,0,0,10.688,10.4c6,0,10.86-4.4,10.86-10.4h0l.114-12.522h0a1.9,1.9,0,0,1,1.948-2.178c.917,0,.917-.86,0-.86h-5.845c-.917,0-.917.86,0,.86a1.9,1.9,0,0,1,1.948,2.178h0l.209,13.123h0c0,4.229-3.429,8.518-7.658,8.518A7.683,7.683,0,0,1,458,424.791h0L458,410.808h0a1.9,1.9,0,0,1,1.948-2.178c.917,0,.917-.86,0-.86H451.47c-.917,0-.917.86,0,.86Z" transform="translate(-354.265 -400.648)" fill="#7b7da3" fill-rule="evenodd"/><path d="M481.766,505.1a20.553,20.553,0,0,1-29.657,18.417,20.541,20.541,0,1,1,0-36.842A20.567,20.567,0,0,1,481.766,505.1Zm-4.055,0a16.5,16.5,0,0,0-21.465-15.726,20.285,20.285,0,0,1,6.564,10.233h0l-4.255.009h0a16.513,16.513,0,0,0-6.452-8.258,16.538,16.538,0,0,0-6.438,8.258h0l-4.255-.009h0A20.483,20.483,0,0,1,448,489.356a16.7,16.7,0,0,0-5-.746,16.489,16.489,0,1,0,4.938,32.227,20.446,20.446,0,0,1-7.194-14.084h9.775v4.03l-4.756.066h0a16.542,16.542,0,0,0,6.356,8,16.431,16.431,0,0,0,6.341-8h0l-4.756-.066v-4.03h9.775a20.459,20.459,0,0,1-7.261,14.063A16.5,16.5,0,0,0,477.711,505.1Z" transform="translate(-422.455 -484.555)" fill="#7b7da3" fill-rule="evenodd"/><path d="M548.529,433.254a21.587,21.587,0,0,0,10.946-3.783h0v-4.7h0c0-.631-.4-.745-.63.057s-3.152,6.877-9.284,7.048-10.143-5.5-10.143-11.919,4.183-11.452,10.372-11.576a8.354,8.354,0,0,1,8.08,6.075c0,.572.63.63.63,0h0v-5.044h0c-2.407-1.6-6.361-2.578-10.258-2.578s-13.524,2.578-13.524,13.352,10.143,13.066,13.81,13.066Z" transform="translate(-381.475 -400.345)" fill="#7b7da3" fill-rule="evenodd"/></svg>