<svg xmlns="http://www.w3.org/2000/svg" width="225.737" height="34.939" viewBox="0 0 225.737 34.939"><path d="M62.11,198.363H55.645v-16.09s-.016-1.619-.734-2.141a4.915,4.915,0,0,0-2.4-.492h-2.95v24.317H64.522v-3.769a1.875,1.875,0,0,0-.592-1.425C63.473,198.32,62.11,198.363,62.11,198.363Zm122.31-18.736H166.452a3.774,3.774,0,0,0-2.055.514,1.681,1.681,0,0,0-.753,1.452v3.617h7.52v18.747h5.845V185.21h4.418a5.537,5.537,0,0,0,2.165-.384,1.522,1.522,0,0,0,.829-1.466Zm20.44,21.618v-2.906H194.212v-4.078h8.836v-5.535h-8.836v-3.592H201.9s1.763.1,2.418-.556a2.307,2.307,0,0,0,.541-1.52v-3.253H188.1v24h13.673c1.845,0,2.265-.585,2.389-.71A2.667,2.667,0,0,0,204.861,201.245Zm-120.934-21.1a5.68,5.68,0,0,0-2.309-.483H76.309l-8.859,24h4.3a2.354,2.354,0,0,0,1.645-.541,3.749,3.749,0,0,0,.8-1.346l1.191-3.41h8.974s1.7,4.939,1.819,5.3h5.762L84.927,181.8A3.807,3.807,0,0,0,83.927,180.147Zm-7.019,13.214,2.98-8.06,3.127,8.06Zm60.536-7.828a12.455,12.455,0,0,0-1.883-2.5,11.972,11.972,0,0,0-5.321-3.18,11.775,11.775,0,0,0-6.386,0,11.97,11.97,0,0,0-5.322,3.18,12.436,12.436,0,0,0-1.883,2.5,12.67,12.67,0,0,0-1.22,2.96,12.766,12.766,0,0,0,0,6.6,12.657,12.657,0,0,0,1.22,2.96,12.392,12.392,0,0,0,1.883,2.5,12.011,12.011,0,0,0,5.313,3.18,11.805,11.805,0,0,0,6.394,0,11.979,11.979,0,0,0,5.321-3.18,12.411,12.411,0,0,0,1.883-2.5,12.637,12.637,0,0,0,1.22-2.96,12.753,12.753,0,0,0,0-6.6A12.65,12.65,0,0,0,137.443,185.534Zm-10.475,13.105c-3.447,0-6.241-3.074-6.241-6.866s2.794-6.866,6.241-6.866,6.24,3.074,6.24,6.866S130.415,198.639,126.968,198.639Zm-24.961-12.387a7.639,7.639,0,0,1,5.856-1.5l.051,0,.136.014c.168.017.338.037.513.064l.4.082.246.051.13.028c.3.065.613.134.747.174a2.608,2.608,0,0,0,1.062.1,1.642,1.642,0,0,0,.352-.087,1.364,1.364,0,0,0,.494-.317,1.676,1.676,0,0,0,.377-.613c.051-.138.1-.281.148-.426l.022-.066c.045-.14.089-.283.131-.426l.021-.07q.064-.22.122-.436l.005-.02c.041-.154.08-.3.116-.449h0c.2-.8.319-1.427.319-1.427a26.374,26.374,0,0,0-8.929-1.523,3.379,3.379,0,0,0-.622.09,11.279,11.279,0,0,0-1.762.351,11.965,11.965,0,0,0-5.321,3.18,12.438,12.438,0,0,0-1.883,2.5,12.672,12.672,0,0,0-1.22,2.96,12.766,12.766,0,0,0,0,6.6,12.659,12.659,0,0,0,1.22,2.96,12.4,12.4,0,0,0,1.883,2.5,12,12,0,0,0,5.313,3.18,11.31,11.31,0,0,0,2.363.412c4.125.7,8.937-1.367,8.937-1.367a11.7,11.7,0,0,0-.36-1.91,6.57,6.57,0,0,0-.442-1.3,1.626,1.626,0,0,0-.209-.375,1.46,1.46,0,0,0-.979-.734c-1.609-.234-6.362,1.635-9.3-1.207a7.31,7.31,0,0,1,.063-11ZM156.2,190.1c-3-.955-7.508-1.835-7.508-3.819s4.025-1.872,5.523-1.61,3.014.992,3.838.992,1.2-.431,1.647-1.311a17.386,17.386,0,0,0,.9-2.49s-2.584-2.565-9.118-2.265-9.155,4.175-9.155,7.789c0,0-.262,3.389,5.167,5.636,0,0,5.673,1.591,7.04,2.49s1.123,2.415.206,2.808-2.359.861-5.43.075-3.3-1.966-4.755-1.61-2.79,3.52-2.79,3.52a14.308,14.308,0,0,0,10.073,3.782c6.553,0,10.035-3.857,10.035-7.264S159.193,191.055,156.2,190.1Z" transform="translate(20.875 -174.909)" fill="#7b7da3"/><g transform="translate(0 0)"><path d="M190.491,98.621c-.481-.227-.543-.218-.677-.467s-.24-.222-.5-.085-.6.352-.77.08-.178-.61-.423-.637-.677.334-.908.276-.294-.752-.53-.775-.641.414-.908.316-.232-.69-.579-.774-.646.431-.895.312-.231-.677-.53-.775-.623.414-.894.285-.294-.7-.552-.748-.587.383-1.366.241a6.59,6.59,0,0,1-2.515-1.028c-.512-.441-.676-.307-.676-.307l-.058.249s-.548-1.068-.534-1.068a1.991,1.991,0,0,0,1.144-.2c.387-.285.409-.093.752.12s.583.378.69.058.08-.975.5-.917.543.507.877.476.361-.459.391-.632.138-.467.378-.472.53.5.877.485.383-.7.418-.788.125-.316.329-.3.619.507.908.472.321-.361.321-.4.022-.7.418-.681.543.49.948.458.2-1.082.7-1.082.463.467.939.472.169-1.126.694-1.077.467.467.921.458.218-.725.534-.935.806-.307.775-.85a1.532,1.532,0,0,0-1.54-1.371c-.97.027-6.966,1.487-6.966,1.487l-2.577.579a1.861,1.861,0,0,0-1.549-1.2,2.345,2.345,0,0,0-.823.2,3.06,3.06,0,0,1-1.638-.018,2.593,2.593,0,0,0-2.261-.049c-1.139.53-1.909,1.162-2.59,1.162s-.481-.214-1.478-.214-1.42.587-2.421.587a10.624,10.624,0,0,1-2.715-.69,29.541,29.541,0,0,0-5.969-1.139,38.692,38.692,0,0,0-4.375-.08,28.563,28.563,0,0,0-5.853.846,17.971,17.971,0,0,1-4.958,1.108c-1.335-.067-1.785-.543-1.821-1.006s.5-1.313,3-2.39a52.36,52.36,0,0,1,7.095-2.1s4.068-1.055,5.555-1.638a34.729,34.729,0,0,0,5.314-2.475,14.937,14.937,0,0,0,3.485-2.951,6.024,6.024,0,0,0,1.126-2.27l0-.013a1.1,1.1,0,0,0-.012-.575c-.1-.232-.2-.209-.3-.045a2.5,2.5,0,0,1-.77.993.792.792,0,0,1-.783.031.5.5,0,0,0-.619.2c-.258.325-.5.761-.962.757s-.307-.285-.73-.316-.8.855-1.313.921-.534-.4-1.077-.387-1.01,1.055-1.549,1.042-.659-.441-1.019-.432-1.349,1.037-1.883,1-.33-.387-.757-.476-1.291,1.411-1.972,1.3-.383-.841-.877-.9-1.242,1.317-2.052,1.313-.539-.877-1.051-.877S147.864,79.54,147,79.54c0,0-.2.049-.378-.3s-.227-.418-.472-.445-.894.516-1.157.748-.445.445-.752.445-.361-.436-.743-.481-1.242.926-1.344,1.01-.32.387-.6.343-.739-.472-.9-.458a5.951,5.951,0,0,0-1.536,1.406c-.441.583-.441.57-.547.552s-.41-.392-.645-.392-1.064.935-1.5,1.616-.48.7-.636.708-.24-.24-.458-.294-1.148.805-2.03,2.225a22.328,22.328,0,0,0-2.1,4.477,15.541,15.541,0,0,0-.756,4.006,16.219,16.219,0,0,0,.387,4.206c.214.81.908,2.662.908,2.662a1.025,1.025,0,0,0,1.082-.779c.227-.864.779-1.473,1.246-1.215l-1.38,4.122a2.2,2.2,0,0,0,.365,1.94c.712,1.117,1.157,1.887,1.838,2.039,0,0,.343.013.325-.539s.28-.645.472-.57,1.228.6,1.228.6.579.338.739-.539.338-.886.6-.921a1.653,1.653,0,0,1,.868.378c.133.111.276.1.418-.089a3.016,3.016,0,0,0,.543-1.976,1.6,1.6,0,0,0-1.781-1.789,9.748,9.748,0,0,1-1.175-.049l.636-2.1s.37-1.651-.173-2.368a2.336,2.336,0,0,0-1.914-1.068c-.748,0-.792-.169-.8-.476a4.4,4.4,0,0,1,2.5.3,2.644,2.644,0,0,1,1.371,2.639,8.459,8.459,0,0,1-.41,2.341l1.264.16a1.608,1.608,0,0,1,1.3,1.433,25.983,25.983,0,0,0,4.758.734c1.7-.018,2.381-.2,2.791-.93a6.763,6.763,0,0,1,3.04-3.022,5.125,5.125,0,0,1,2.782-.632s.12.623-1.139.85a4.163,4.163,0,0,0-3.329,2.768c-.378,1.6-.107,1.985.561,2.6l.378.24a1.365,1.365,0,0,1,.814.761c.249.6.788,1.99.788,1.99a.65.65,0,0,0,.588.525c.512.049.93-.854,1.01-.966a.508.508,0,0,1,.458-.254c.236.022.463.467.695.619s.538.254.7-.173.307-1.082.65-1.073a1.214,1.214,0,0,1,.721.432.58.58,0,0,0,.494.232.672.672,0,0,0,.619-.6c.04-.37.16-.8.458-.8s.632.472.864.48.659-.178.659-.9a2,2,0,0,0-1.073-1.709,7.806,7.806,0,0,0-2.541-1.082c-1.126-.311-1.246-.3-1.273-.864,0,0,3.739.485,4.536.5a47.818,47.818,0,0,0,5.1-.169,23.812,23.812,0,0,0,6.85-1.616l1.082-.48s3.374.521,6.4.708a48.217,48.217,0,0,0,9.73-.4c1.522-.4,1.905-1.18,1.941-1.5S190.971,98.848,190.491,98.621ZM178.516,88.478c.5-.042.559.675.559.675s-1,.4-1.181.264S178.02,88.521,178.516,88.478Zm-34.01-7.034c.214.017.292.1.292.386a2.252,2.252,0,0,1-.12.687c-.043.12-.077.284-.309.155s-1.271-.687-1.271-.687A3.932,3.932,0,0,1,144.506,81.444Zm-2.224.816c.215.017.292.1.292.386a2.251,2.251,0,0,1-.12.687c-.043.12-.077.283-.309.155s-1.271-.687-1.271-.687A3.931,3.931,0,0,1,142.282,82.26Zm-.761,2.259c.214.017.292.1.292.386a2.254,2.254,0,0,1-.12.687c-.043.12-.077.283-.309.154s-1.271-.687-1.271-.687A3.933,3.933,0,0,1,141.521,84.519Zm-1.279,3.154c-.232-.129-1.271-.687-1.271-.687a3.933,3.933,0,0,1,1.408-.541c.215.017.292.1.292.386a2.252,2.252,0,0,1-.12.687C140.509,87.639,140.474,87.8,140.242,87.673Zm.168,1.465a2.251,2.251,0,0,1-.12.687c-.043.12-.077.283-.309.155s-1.271-.687-1.271-.687a3.927,3.927,0,0,1,1.408-.541C140.333,88.769,140.41,88.855,140.41,89.138Zm-.458-6.117c.214.017.292.1.292.386a2.253,2.253,0,0,1-.12.687c-.043.12-.077.283-.309.154s-1.271-.687-1.271-.687A3.933,3.933,0,0,1,139.952,83.021Zm-1.189,1.831c.215.017.292.1.292.386a2.254,2.254,0,0,1-.12.687c-.043.12-.077.283-.309.154s-1.271-.687-1.271-.687A3.938,3.938,0,0,1,138.763,84.852ZM137.7,88.41c-.232-.129-1.271-.687-1.271-.687a3.922,3.922,0,0,1,1.408-.541c.214.017.292.1.292.386a2.251,2.251,0,0,1-.12.687C137.964,88.376,137.93,88.539,137.7,88.41Zm.1,1.441a2.242,2.242,0,0,1-.12.687c-.043.12-.077.283-.309.154s-1.271-.687-1.271-.687a3.93,3.93,0,0,1,1.408-.541C137.717,89.483,137.794,89.568,137.794,89.851Zm-1.433-4.143c.214.017.292.1.292.386a2.254,2.254,0,0,1-.12.687c-.043.12-.077.284-.309.154s-1.271-.687-1.271-.687A3.937,3.937,0,0,1,136.361,85.708Zm-1.237,2.354c.215.017.292.1.292.386a2.254,2.254,0,0,1-.12.687c-.043.12-.077.284-.309.154s-1.271-.687-1.271-.687A3.933,3.933,0,0,1,135.124,88.062Zm-1.646,2.919a3.932,3.932,0,0,1,1.408-.541c.215.017.292.1.292.386a2.258,2.258,0,0,1-.12.687c-.043.12-.077.283-.309.154S133.479,90.981,133.479,90.981Zm2.7,2.482c-.043.12-.077.283-.309.155s-1.271-.687-1.271-.687A3.932,3.932,0,0,1,136,92.39c.215.017.292.1.292.386A2.254,2.254,0,0,1,136.176,93.463Zm1.95,1.617c-.043.12-.077.283-.309.155s-1.271-.687-1.271-.687a3.931,3.931,0,0,1,1.408-.541c.215.017.292.1.292.386A2.241,2.241,0,0,1,138.126,95.08Zm.571-2.521c-.043.12-.077.284-.309.154s-1.271-.687-1.271-.687a3.934,3.934,0,0,1,1.408-.541c.215.017.292.1.292.386A2.253,2.253,0,0,1,138.7,92.56Zm1.831,3.519c-.043.12-.077.284-.309.154s-1.271-.687-1.271-.687a3.93,3.93,0,0,1,1.408-.541c.215.017.292.1.292.386A2.244,2.244,0,0,1,140.528,96.079Zm.666-2.211c-.043.12-.077.283-.309.154s-1.271-.687-1.271-.687a3.936,3.936,0,0,1,1.408-.541c.214.017.292.1.292.386A2.256,2.256,0,0,1,141.193,93.868Zm.428-2.212c-.043.12-.077.283-.309.154s-1.271-.687-1.271-.687a3.933,3.933,0,0,1,1.408-.541c.215.017.292.1.292.386A2.254,2.254,0,0,1,141.622,91.656Zm2.021,4.138c-.043.12-.077.283-.309.154s-1.271-.687-1.271-.687a3.937,3.937,0,0,1,1.408-.541c.214.017.292.1.292.386A2.253,2.253,0,0,1,143.643,95.794Zm.523-2.211c-.043.12-.077.283-.309.154s-1.271-.687-1.271-.687a3.929,3.929,0,0,1,1.408-.541c.215.017.292.1.292.386A2.245,2.245,0,0,1,144.166,93.582Zm.476-2.449c-.043.12-.077.283-.309.154s-1.271-.687-1.271-.687a3.939,3.939,0,0,1,1.408-.541c.215.017.292.1.292.386A2.254,2.254,0,0,1,144.641,91.133Zm1.926,4.3c-.043.12-.077.283-.309.154s-1.271-.687-1.271-.687a3.936,3.936,0,0,1,1.408-.541c.214.017.292.1.292.386A2.257,2.257,0,0,1,146.567,95.437Zm.476-2.521c-.043.12-.077.283-.309.154s-1.271-.687-1.271-.687a3.938,3.938,0,0,1,1.408-.541c.215.017.292.1.292.386A2.255,2.255,0,0,1,147.043,92.916Zm.475-2.449c-.043.12-.077.283-.309.154s-1.271-.687-1.271-.687a3.936,3.936,0,0,1,1.408-.541c.214.017.292.1.292.386A2.253,2.253,0,0,1,147.519,90.467Zm2.093,3.971c-.043.12-.077.283-.309.154s-1.271-.687-1.271-.687a3.939,3.939,0,0,1,1.408-.541c.215.017.292.1.292.386A2.256,2.256,0,0,1,149.611,94.438Zm.38-2.4c-.043.12-.077.283-.309.154s-1.271-.687-1.271-.687a3.936,3.936,0,0,1,1.408-.541c.215.017.292.1.292.386A2.242,2.242,0,0,1,149.991,92.037Zm.452-2.354c-.043.12-.077.283-.309.154s-1.271-.687-1.271-.687a3.938,3.938,0,0,1,1.408-.541c.215.017.292.1.292.386A2.257,2.257,0,0,1,150.444,89.682Zm2.068,4.256c-.043.12-.077.283-.309.154s-1.271-.687-1.271-.687a3.936,3.936,0,0,1,1.408-.541c.215.017.292.1.292.386A2.243,2.243,0,0,1,152.512,93.939Zm.4-2.212c-.043.12-.077.283-.309.155s-1.271-.687-1.271-.687a3.925,3.925,0,0,1,1.408-.541c.215.017.292.1.292.386A2.254,2.254,0,0,1,152.917,91.727Zm.428-2.449c-.043.12-.077.283-.309.154s-1.271-.687-1.271-.687a3.937,3.937,0,0,1,1.408-.541c.214.017.292.1.292.386A2.256,2.256,0,0,1,153.344,89.278Zm1.926,4.708c-.043.12-.077.283-.309.154s-1.271-.687-1.271-.687a3.938,3.938,0,0,1,1.408-.541c.215.017.292.1.292.386A2.256,2.256,0,0,1,155.271,93.986Zm.4-2.4c-.043.12-.077.283-.309.154s-1.271-.687-1.271-.687a3.937,3.937,0,0,1,1.408-.541c.214.017.292.1.292.386A2.255,2.255,0,0,1,155.675,91.585Zm.571-2.4c-.043.12-.077.283-.309.154s-1.271-.687-1.271-.687a3.934,3.934,0,0,1,1.408-.541c.214.017.292.1.292.386A2.254,2.254,0,0,1,156.245,89.183Zm1.9,4.756c-.043.12-.077.283-.309.154s-1.271-.687-1.271-.687a3.933,3.933,0,0,1,1.408-.541c.214.017.292.1.292.386A2.254,2.254,0,0,1,158.148,93.939Zm.428-2.235c-.043.12-.077.283-.309.154S157,91.171,157,91.171a3.938,3.938,0,0,1,1.408-.541c.215.017.292.1.292.386A2.255,2.255,0,0,1,158.576,91.7Zm.523-2.33c-.043.12-.077.283-.309.155s-1.271-.687-1.271-.687a3.928,3.928,0,0,1,1.408-.541c.214.017.292.1.292.387A2.252,2.252,0,0,1,159.1,89.373Zm1.712,4.97c-.043.12-.077.283-.309.154s-1.271-.687-1.271-.687a3.934,3.934,0,0,1,1.408-.541c.215.017.292.1.292.386A2.256,2.256,0,0,1,160.811,94.343Zm.547-2.235c-.043.12-.077.283-.309.154s-1.271-.687-1.271-.687a3.933,3.933,0,0,1,1.408-.541c.215.017.292.1.292.386A2.254,2.254,0,0,1,161.358,92.108Zm.475-2.235c-.043.12-.077.283-.309.154s-1.271-.687-1.271-.687a3.932,3.932,0,0,1,1.408-.541c.214.017.292.1.292.386A2.252,2.252,0,0,1,161.833,89.873Zm2.116,2.711c-.043.12-.077.283-.309.154s-1.271-.687-1.271-.687a3.939,3.939,0,0,1,1.408-.541c.215.017.292.1.292.386A2.257,2.257,0,0,1,163.95,92.584Zm10.274-2.439a.874.874,0,0,1,.791-1.255s1.086.063,1.276.875A6.917,6.917,0,0,1,174.224,90.144Z" transform="translate(-130.43 -73.996)" fill="#7b7da3"/><path d="M232.168,126.435s-.779,1.316,1.538,1.594a3.64,3.64,0,0,0,1.761-.649,1.8,1.8,0,0,1,2.614.074c.982.908,3.1,3.336,4.541,3.262a1.163,1.163,0,0,0,.807-.159c.476-.254.618-.349.856.174s.206.555.444.555.587-.571.983-.507.4.84.809.856.586-.571.935-.476.428.967.824.951.555-.571.951-.523.428.92.808.92.6-.6.951-.523.523.65,1.094.571.761-.492-.555-.872l-7.514-2.172s-1.665-.634-1.569-2l-.4-.856a2.959,2.959,0,0,1-1.4-.491,6.654,6.654,0,0,0-3.5-.381c-.9.111-2.647,1.585-3.614,1.585A1.592,1.592,0,0,1,232.168,126.435Z" transform="translate(-195.111 -106.918)" fill="#9ea4c4"/></g></svg>