<svg xmlns="http://www.w3.org/2000/svg" width="137.265" height="38.39" viewBox="0 0 137.265 38.39"><path d="M507.068,446.153c-.317.048-.621,1.215-1.232,1.823-.449.438-1.006.412-1.3.954-.113.2-.076.548-.2.88-.25.664-1.131.722-1.131,1.446,0,.782.733.93,1.372,1.485.5.445.546.753,1.15.97.515.175,1.281-.4,1.971-.192.566.169,1.109.289,1.237.871.112.536-.009,1.368-.694,1.272a7.528,7.528,0,0,0-2.469-.234c-1.489.17-3.186.656-3.353,2.315a1.906,1.906,0,0,0,2.163,1.8c.765-.151.4-1.054.82-1.494.547-.562,3.645,1.962,6.524,1.962a3.76,3.76,0,0,0,3.009-1.245c.084-.071.186-.225.316-.235a1.13,1.13,0,0,1,.405.181c2.319,1.864,4.072,5.6,12.595,5.647a5.748,5.748,0,0,1,3.68,1.6,10.1,10.1,0,0,1,2.141,3.8,20.3,20.3,0,0,0,4.7,6.652c.127.126,2.035,1.609,2.188,1.72a.925.925,0,0,1,.116.538c-.056,1.414-.262,5.523,2.8,5.709.748.038.553-.489.553-.85a4.285,4.285,0,0,1,.245-2.161c.516-1.007-1.094-1.471-1.048-3.651.034-1.625-1.332-1.348-2.023-2.585a3.346,3.346,0,0,1-.729-1.975c.156-4.937-1.05-8.181-1.651-8.978-.469-.6-.858-.839-.428-1.119a7.873,7.873,0,0,0,3.137-3.26c1.36-3.2,2.582-6.116,4.269-7.4a12.525,12.525,0,0,1,1.744-1.171,11.443,11.443,0,0,0,2.86-1.637c.722-.7,1.295-2.174.6-3.065-.862-1.1-2.353-.227-3.011.163-4.7,2.79-5.394,7.712-7.022,10.537-1.3,2.259-3.412,3.918-5.3,4.053a9.416,9.416,0,0,1-4.461-.849,22.5,22.5,0,0,1-6.2-4.082c-.993-.767-8.7-8.335-14.946-8.642,0,0-.776-1.552-.97-1.578-.457-.058-.924.926-1.259,1.041-.316.1-.846-1.066-1.164-1.015Z" transform="translate(-502.405 -445.989)" fill="#7b7da3" fill-rule="evenodd"/><path d="M457.706,509.159a1.113,1.113,0,0,1-1.088-1.093l0-19.481H450.2v21.474a1.908,1.908,0,0,0,1.9,1.911H463.32a1.9,1.9,0,0,0,1.9-1.911V488.585H458.8l-.005,19.481a1.114,1.114,0,0,1-1.09,1.093Z" transform="translate(-378.656 -485.776)" fill="#7b7da3" fill-rule="evenodd"/><path d="M491.6,488.585h-9.716a2.091,2.091,0,0,0-2.087,2.1V511.97h6.426V492.443a1.091,1.091,0,0,1,2.181-.017V511.97h6.4V492.426a1.088,1.088,0,0,1,2.176.017V511.97h6.428V490.682a2.092,2.092,0,0,0-2.088-2.1Z" transform="translate(-391.054 -485.776)" fill="#7b7da3" fill-rule="evenodd"/><path d="M433.526,506.094h-6.486v5.877h-6.418V488.585h12.945a2.072,2.072,0,0,1,2.064,2.106v13.295a2.1,2.1,0,0,1-2.1,2.108Zm-4.308-13.61a1.1,1.1,0,0,0-1.087-1.113h-1.091V503.2h1.091a1.085,1.085,0,0,0,1.087-1.1v-9.617Z" transform="translate(-366.266 -485.776)" fill="#7b7da3" fill-rule="evenodd"/><path d="M559.173,521.984a2.861,2.861,0,1,1-2.9-2.876,2.864,2.864,0,0,1,2.9,2.876Zm-2.89-2.457a2.411,2.411,0,1,0,.04,0Z" transform="translate(-421.908 -498.562)" fill="#7b7da3" fill-rule="evenodd"/><path d="M559,524.535h-.766l-.986-1.312v1.312h-.625V521.22h.657c.894,0,1.369.337,1.369.984a.966.966,0,0,1-.672.928l-.046.017L559,524.535Zm-1.643-1.85c.445,0,.682-.157.682-.474,0-.282-.227-.427-.662-.427h-.128v.9Z" transform="translate(-423.236 -499.447)" fill="#7b7da3" fill-rule="evenodd"/><path d="M532.772,511.97V506.1H530.59v5.871h-6.414V490.682a2.091,2.091,0,0,1,2.087-2.1H537.1a2.09,2.09,0,0,1,2.089,2.1V511.97Zm0-8.768V492.435a1.092,1.092,0,0,0-2.182.016V503.2Z" transform="translate(-409.645 -485.776)" fill="#7b7da3" fill-rule="evenodd"/><path d="M420.933,544.416v-6.424h.717v.6a1.762,1.762,0,0,1,.574-.532,1.575,1.575,0,0,1,.773-.177,1.844,1.844,0,0,1,1.049.306,1.868,1.868,0,0,1,.686.865,3.131,3.131,0,0,1,.233,1.223,3.084,3.084,0,0,1-.257,1.284,1.94,1.94,0,0,1-1.769,1.178,1.485,1.485,0,0,1-.706-.166,1.6,1.6,0,0,1-.514-.42v2.261Zm.712-4.076a2.028,2.028,0,0,0,.363,1.326,1.117,1.117,0,0,0,.879.428,1.138,1.138,0,0,0,.9-.445,2.1,2.1,0,0,0,.374-1.375,2.054,2.054,0,0,0-.365-1.33,1.1,1.1,0,0,0-.872-.442,1.136,1.136,0,0,0-.891.47,2.108,2.108,0,0,0-.387,1.367Z" transform="translate(-366.396 -506.428)" fill="#7b7da3" fill-rule="evenodd"/><path d="M440.241,542.712v-.682a1.7,1.7,0,0,1-1.475.787,1.892,1.892,0,0,1-.767-.156,1.265,1.265,0,0,1-.529-.4,1.472,1.472,0,0,1-.243-.584,4.074,4.074,0,0,1-.048-.736v-2.877h.787v2.576a4.669,4.669,0,0,0,.048.831.836.836,0,0,0,.315.489.982.982,0,0,0,.6.176,1.294,1.294,0,0,0,.664-.181,1,1,0,0,0,.439-.494,2.472,2.472,0,0,0,.13-.908v-2.488h.787v4.644Z" transform="translate(-373.202 -506.504)" fill="#7b7da3" fill-rule="evenodd"/><path d="M453.487,542.636v-4.644h.7v.651a1.658,1.658,0,0,1,.582-.547,1.632,1.632,0,0,1,.827-.209,1.519,1.519,0,0,1,.845.215,1.137,1.137,0,0,1,.466.6,1.67,1.67,0,0,1,1.434-.814,1.415,1.415,0,0,1,1.063.384,1.635,1.635,0,0,1,.371,1.178v3.189H459V539.71a2.175,2.175,0,0,0-.076-.68.679.679,0,0,0-.278-.335.878.878,0,0,0-.473-.127,1.1,1.1,0,0,0-.813.327,1.437,1.437,0,0,0-.324,1.043v2.7h-.787v-3.017a1.327,1.327,0,0,0-.192-.788.729.729,0,0,0-.63-.263,1.133,1.133,0,0,0-.614.176.984.984,0,0,0-.409.511,2.881,2.881,0,0,0-.127.972v2.409Z" transform="translate(-380.033 -506.428)" fill="#7b7da3" fill-rule="evenodd"/><path d="M476.869,542.063a2.992,2.992,0,0,1-.842.526,2.446,2.446,0,0,1-.869.152,1.69,1.69,0,0,1-1.177-.373,1.238,1.238,0,0,1-.41-.955,1.261,1.261,0,0,1,.155-.624,1.28,1.28,0,0,1,.406-.453,1.933,1.933,0,0,1,.567-.258,5.582,5.582,0,0,1,.7-.118,7.151,7.151,0,0,0,1.4-.271c0-.107,0-.177,0-.2a.864.864,0,0,0-.224-.678,1.308,1.308,0,0,0-.9-.267,1.4,1.4,0,0,0-.821.194,1.2,1.2,0,0,0-.392.69l-.769-.106a1.909,1.909,0,0,1,.345-.8,1.506,1.506,0,0,1,.7-.468,3.1,3.1,0,0,1,1.054-.165,2.8,2.8,0,0,1,.966.14,1.29,1.29,0,0,1,.548.352,1.259,1.259,0,0,1,.245.536,4.531,4.531,0,0,1,.039.725v1.05a10.912,10.912,0,0,0,.051,1.388,1.744,1.744,0,0,0,.2.558h-.822a1.655,1.655,0,0,1-.157-.573ZM476.8,540.3a5.689,5.689,0,0,1-1.285.3,2.971,2.971,0,0,0-.687.157.689.689,0,0,0-.182,1.156,1.028,1.028,0,0,0,.7.209,1.623,1.623,0,0,0,.81-.2,1.228,1.228,0,0,0,.521-.545,1.888,1.888,0,0,0,.127-.787v-.29Z" transform="translate(-388.446 -506.428)" fill="#7b7da3" fill-rule="evenodd"/><path d="M490.69,545.414v-.9h.9v.9Z" transform="translate(-395.617 -509.206)" fill="#7b7da3" fill-rule="evenodd"/><path d="M505.15,540.935l.773.1a2,2,0,0,1-.65,1.252,1.89,1.89,0,0,1-1.284.452,1.993,1.993,0,0,1-1.532-.622,2.527,2.527,0,0,1-.581-1.787,3.244,3.244,0,0,1,.249-1.317,1.744,1.744,0,0,1,.76-.847,2.255,2.255,0,0,1,1.108-.282,1.926,1.926,0,0,1,1.238.384,1.757,1.757,0,0,1,.618,1.087l-.766.118a1.276,1.276,0,0,0-.386-.7,1.006,1.006,0,0,0-.672-.236,1.221,1.221,0,0,0-.968.427,2.023,2.023,0,0,0-.372,1.348,2.092,2.092,0,0,0,.36,1.361,1.169,1.169,0,0,0,.936.424,1.1,1.1,0,0,0,.773-.285,1.407,1.407,0,0,0,.394-.875Z" transform="translate(-400.304 -506.428)" fill="#7b7da3" fill-rule="evenodd"/><path d="M517.2,540.313a2.387,2.387,0,0,1,.718-1.911,2.159,2.159,0,0,1,1.46-.517,2.081,2.081,0,0,1,1.566.628,2.382,2.382,0,0,1,.608,1.734,3.069,3.069,0,0,1-.269,1.41,1.9,1.9,0,0,1-.782.8,2.283,2.283,0,0,1-1.123.283,2.087,2.087,0,0,1-1.576-.625,2.494,2.494,0,0,1-.6-1.8Zm.81,0a1.974,1.974,0,0,0,.389,1.336,1.3,1.3,0,0,0,1.955,0,2.03,2.03,0,0,0,.388-1.36,1.918,1.918,0,0,0-.391-1.306,1.3,1.3,0,0,0-1.952,0,1.966,1.966,0,0,0-.389,1.333Z" transform="translate(-406.722 -506.428)" fill="#7b7da3" fill-rule="evenodd"/><path d="M533.982,542.636v-4.644h.7v.651a1.658,1.658,0,0,1,.582-.547,1.633,1.633,0,0,1,.827-.209,1.518,1.518,0,0,1,.845.215,1.139,1.139,0,0,1,.466.6,1.67,1.67,0,0,1,1.434-.814,1.414,1.414,0,0,1,1.063.384,1.636,1.636,0,0,1,.371,1.178v3.189h-.782V539.71a2.158,2.158,0,0,0-.076-.68.679.679,0,0,0-.278-.335.878.878,0,0,0-.473-.127,1.1,1.1,0,0,0-.814.327,1.438,1.438,0,0,0-.324,1.043v2.7h-.786v-3.017a1.327,1.327,0,0,0-.193-.788.728.728,0,0,0-.63-.263,1.133,1.133,0,0,0-.614.176.987.987,0,0,0-.409.511,2.878,2.878,0,0,0-.127.972v2.409Z" transform="translate(-413.752 -506.428)" fill="#7b7da3" fill-rule="evenodd"/></svg>