<svg xmlns="http://www.w3.org/2000/svg" xmlns:xlink="http://www.w3.org/1999/xlink" width="1920" height="62" viewBox="0 0 1920 62"><defs><clipPath id="a"><rect width="1920" height="62" fill="#5bbeff"/></clipPath></defs><path d="M0,0H1920V62H0Z" fill="#fae3b5"/><g clip-path="url(#a)"><g transform="translate(1617.533 2.106)"><path d="M15.658,55.074c0,1.378-1.834,2.495-4.1,2.495s-4.1-1.117-4.1-2.495,1.834-2.5,4.1-2.5S15.658,53.695,15.658,55.074Z" fill="#f0aa09"/><path d="M19.551,62.4c0,.827,1.679,1.5,3.751,1.5s3.752-.67,3.752-1.5-1.68-1.5-3.752-1.5S19.551,61.568,19.551,62.4Z" fill="#f0aa09"/><path d="M41.416,72.211c0,1.1,1.407,2,3.142,2s3.143-.894,3.143-2-1.407-2-3.143-2S41.416,71.109,41.416,72.211Z" fill="#f0aa09"/><path d="M43.788,60.814a2,2,0,1,0,1.956-1.581A1.8,1.8,0,0,0,43.788,60.814Z" fill="#f0aa09"/><path d="M63.071,56.322a1.34,1.34,0,1,0,1.336-1.248A1.294,1.294,0,0,0,63.071,56.322Z" fill="#f0aa09"/><path d="M86.716,57.153a1.993,1.993,0,1,0,1.991-2.079A2.037,2.037,0,0,0,86.716,57.153Z" fill="#f0aa09"/><path d="M78.775,53.342c0,.423.653.765,1.458.765s1.457-.342,1.457-.765-.653-.764-1.457-.764S78.775,52.92,78.775,53.342Z" fill="#f0aa09"/><path d="M101.941,51.236c0,.741,1.723,1.342,3.849,1.342s3.849-.6,3.849-1.342-1.724-1.342-3.849-1.342S101.941,50.495,101.941,51.236Z" fill="#f0aa09"/><path d="M125.889,60.814c0,.873,1.764,1.581,3.94,1.581s3.94-.708,3.94-1.581-1.764-1.581-3.94-1.581S125.889,59.941,125.889,60.814Z" fill="#f0aa09"/><path d="M167.322,62.4c0,.827,1.346,1.5,3.007,1.5s3.008-.67,3.008-1.5-1.347-1.5-3.008-1.5S167.322,61.568,167.322,62.4Z" fill="#f0aa09"/><ellipse cx="3.341" cy="0.832" rx="3.341" ry="0.832" transform="translate(152.286 57.569)" fill="#f0aa09"/><path d="M184.363,52.672c0,.792,2.278,1.435,5.087,1.435s5.088-.643,5.088-1.435-2.278-1.436-5.088-1.436S184.363,51.879,184.363,52.672Z" fill="#f0aa09"/></g><g transform="translate(1818.533 2.106)"><path d="M15.658,55.074c0,1.378-1.834,2.495-4.1,2.495s-4.1-1.117-4.1-2.495,1.834-2.5,4.1-2.5S15.658,53.695,15.658,55.074Z" fill="#f0aa09"/><path d="M19.551,62.4c0,.827,1.679,1.5,3.751,1.5s3.752-.67,3.752-1.5-1.68-1.5-3.752-1.5S19.551,61.568,19.551,62.4Z" fill="#f0aa09"/><path d="M41.416,72.211c0,1.1,1.407,2,3.142,2s3.143-.894,3.143-2-1.407-2-3.143-2S41.416,71.109,41.416,72.211Z" fill="#f0aa09"/><path d="M43.788,60.814a2,2,0,1,0,1.956-1.581A1.8,1.8,0,0,0,43.788,60.814Z" fill="#f0aa09"/><path d="M63.071,56.322a1.34,1.34,0,1,0,1.336-1.248A1.294,1.294,0,0,0,63.071,56.322Z" fill="#f0aa09"/><path d="M86.716,57.153a1.993,1.993,0,1,0,1.991-2.079A2.037,2.037,0,0,0,86.716,57.153Z" fill="#f0aa09"/><path d="M78.775,53.342c0,.423.653.765,1.458.765s1.457-.342,1.457-.765-.653-.764-1.457-.764S78.775,52.92,78.775,53.342Z" fill="#f0aa09"/><path d="M101.941,51.236c0,.741,1.723,1.342,3.849,1.342s3.849-.6,3.849-1.342-1.724-1.342-3.849-1.342S101.941,50.495,101.941,51.236Z" fill="#f0aa09"/><path d="M125.889,60.814c0,.873,1.764,1.581,3.94,1.581s3.94-.708,3.94-1.581-1.764-1.581-3.94-1.581S125.889,59.941,125.889,60.814Z" fill="#f0aa09"/><path d="M167.322,62.4c0,.827,1.346,1.5,3.007,1.5s3.008-.67,3.008-1.5-1.347-1.5-3.008-1.5S167.322,61.568,167.322,62.4Z" fill="#f0aa09"/><ellipse cx="3.341" cy="0.832" rx="3.341" ry="0.832" transform="translate(152.286 57.569)" fill="#f0aa09"/><path d="M184.363,52.672c0,.792,2.278,1.435,5.087,1.435s5.088-.643,5.088-1.435-2.278-1.436-5.088-1.436S184.363,51.879,184.363,52.672Z" fill="#f0aa09"/></g><g transform="translate(620.533 2.106)"><path d="M15.658,55.074c0,1.378-1.834,2.495-4.1,2.495s-4.1-1.117-4.1-2.495,1.834-2.5,4.1-2.5S15.658,53.695,15.658,55.074Z" fill="#f0aa09"/><path d="M19.551,62.4c0,.827,1.679,1.5,3.751,1.5s3.752-.67,3.752-1.5-1.68-1.5-3.752-1.5S19.551,61.568,19.551,62.4Z" fill="#f0aa09"/><path d="M41.416,72.211c0,1.1,1.407,2,3.142,2s3.143-.894,3.143-2-1.407-2-3.143-2S41.416,71.109,41.416,72.211Z" fill="#f0aa09"/><path d="M43.788,60.814a2,2,0,1,0,1.956-1.581A1.8,1.8,0,0,0,43.788,60.814Z" fill="#f0aa09"/><path d="M63.071,56.322a1.34,1.34,0,1,0,1.336-1.248A1.294,1.294,0,0,0,63.071,56.322Z" fill="#f0aa09"/><path d="M86.716,57.153a1.993,1.993,0,1,0,1.991-2.079A2.037,2.037,0,0,0,86.716,57.153Z" fill="#f0aa09"/><path d="M78.775,53.342c0,.423.653.765,1.458.765s1.457-.342,1.457-.765-.653-.764-1.457-.764S78.775,52.92,78.775,53.342Z" fill="#f0aa09"/><path d="M101.941,51.236c0,.741,1.723,1.342,3.849,1.342s3.849-.6,3.849-1.342-1.724-1.342-3.849-1.342S101.941,50.495,101.941,51.236Z" fill="#f0aa09"/><path d="M125.889,60.814c0,.873,1.764,1.581,3.94,1.581s3.94-.708,3.94-1.581-1.764-1.581-3.94-1.581S125.889,59.941,125.889,60.814Z" fill="#f0aa09"/><path d="M167.322,62.4c0,.827,1.346,1.5,3.007,1.5s3.008-.67,3.008-1.5-1.347-1.5-3.008-1.5S167.322,61.568,167.322,62.4Z" fill="#f0aa09"/><ellipse cx="3.341" cy="0.832" rx="3.341" ry="0.832" transform="translate(152.286 57.569)" fill="#f0aa09"/><path d="M184.363,52.672c0,.792,2.278,1.435,5.087,1.435s5.088-.643,5.088-1.435-2.278-1.436-5.088-1.436S184.363,51.879,184.363,52.672Z" fill="#f0aa09"/></g><g transform="translate(422.533 2.106)"><path d="M15.658,55.074c0,1.378-1.834,2.495-4.1,2.495s-4.1-1.117-4.1-2.495,1.834-2.5,4.1-2.5S15.658,53.695,15.658,55.074Z" fill="#f0aa09"/><path d="M19.551,62.4c0,.827,1.679,1.5,3.751,1.5s3.752-.67,3.752-1.5-1.68-1.5-3.752-1.5S19.551,61.568,19.551,62.4Z" fill="#f0aa09"/><path d="M41.416,72.211c0,1.1,1.407,2,3.142,2s3.143-.894,3.143-2-1.407-2-3.143-2S41.416,71.109,41.416,72.211Z" fill="#f0aa09"/><path d="M43.788,60.814a2,2,0,1,0,1.956-1.581A1.8,1.8,0,0,0,43.788,60.814Z" fill="#f0aa09"/><path d="M63.071,56.322a1.34,1.34,0,1,0,1.336-1.248A1.294,1.294,0,0,0,63.071,56.322Z" fill="#f0aa09"/><path d="M86.716,57.153a1.993,1.993,0,1,0,1.991-2.079A2.037,2.037,0,0,0,86.716,57.153Z" fill="#f0aa09"/><path d="M78.775,53.342c0,.423.653.765,1.458.765s1.457-.342,1.457-.765-.653-.764-1.457-.764S78.775,52.92,78.775,53.342Z" fill="#f0aa09"/><path d="M101.941,51.236c0,.741,1.723,1.342,3.849,1.342s3.849-.6,3.849-1.342-1.724-1.342-3.849-1.342S101.941,50.495,101.941,51.236Z" fill="#f0aa09"/><path d="M125.889,60.814c0,.873,1.764,1.581,3.94,1.581s3.94-.708,3.94-1.581-1.764-1.581-3.94-1.581S125.889,59.941,125.889,60.814Z" fill="#f0aa09"/><path d="M167.322,62.4c0,.827,1.346,1.5,3.007,1.5s3.008-.67,3.008-1.5-1.347-1.5-3.008-1.5S167.322,61.568,167.322,62.4Z" fill="#f0aa09"/><ellipse cx="3.341" cy="0.832" rx="3.341" ry="0.832" transform="translate(152.286 57.569)" fill="#f0aa09"/><path d="M184.363,52.672c0,.792,2.278,1.435,5.087,1.435s5.088-.643,5.088-1.435-2.278-1.436-5.088-1.436S184.363,51.879,184.363,52.672Z" fill="#f0aa09"/></g><g transform="translate(224.533 2.106)"><path d="M15.658,55.074c0,1.378-1.834,2.495-4.1,2.495s-4.1-1.117-4.1-2.495,1.834-2.5,4.1-2.5S15.658,53.695,15.658,55.074Z" fill="#f0aa09"/><path d="M19.551,62.4c0,.827,1.679,1.5,3.751,1.5s3.752-.67,3.752-1.5-1.68-1.5-3.752-1.5S19.551,61.568,19.551,62.4Z" fill="#f0aa09"/><path d="M41.416,72.211c0,1.1,1.407,2,3.142,2s3.143-.894,3.143-2-1.407-2-3.143-2S41.416,71.109,41.416,72.211Z" fill="#f0aa09"/><path d="M43.788,60.814a2,2,0,1,0,1.956-1.581A1.8,1.8,0,0,0,43.788,60.814Z" fill="#f0aa09"/><path d="M63.071,56.322a1.34,1.34,0,1,0,1.336-1.248A1.294,1.294,0,0,0,63.071,56.322Z" fill="#f0aa09"/><path d="M86.716,57.153a1.993,1.993,0,1,0,1.991-2.079A2.037,2.037,0,0,0,86.716,57.153Z" fill="#f0aa09"/><path d="M78.775,53.342c0,.423.653.765,1.458.765s1.457-.342,1.457-.765-.653-.764-1.457-.764S78.775,52.92,78.775,53.342Z" fill="#f0aa09"/><path d="M101.941,51.236c0,.741,1.723,1.342,3.849,1.342s3.849-.6,3.849-1.342-1.724-1.342-3.849-1.342S101.941,50.495,101.941,51.236Z" fill="#f0aa09"/><path d="M125.889,60.814c0,.873,1.764,1.581,3.94,1.581s3.94-.708,3.94-1.581-1.764-1.581-3.94-1.581S125.889,59.941,125.889,60.814Z" fill="#f0aa09"/><path d="M167.322,62.4c0,.827,1.346,1.5,3.007,1.5s3.008-.67,3.008-1.5-1.347-1.5-3.008-1.5S167.322,61.568,167.322,62.4Z" fill="#f0aa09"/><ellipse cx="3.341" cy="0.832" rx="3.341" ry="0.832" transform="translate(152.286 57.569)" fill="#f0aa09"/><path d="M184.363,52.672c0,.792,2.278,1.435,5.087,1.435s5.088-.643,5.088-1.435-2.278-1.436-5.088-1.436S184.363,51.879,184.363,52.672Z" fill="#f0aa09"/></g><g transform="translate(27.533 2.106)"><path d="M15.658,55.074c0,1.378-1.834,2.495-4.1,2.495s-4.1-1.117-4.1-2.495,1.834-2.5,4.1-2.5S15.658,53.695,15.658,55.074Z" fill="#f0aa09"/><path d="M19.551,62.4c0,.827,1.679,1.5,3.751,1.5s3.752-.67,3.752-1.5-1.68-1.5-3.752-1.5S19.551,61.568,19.551,62.4Z" fill="#f0aa09"/><path d="M41.416,72.211c0,1.1,1.407,2,3.142,2s3.143-.894,3.143-2-1.407-2-3.143-2S41.416,71.109,41.416,72.211Z" fill="#f0aa09"/><path d="M43.788,60.814a2,2,0,1,0,1.956-1.581A1.8,1.8,0,0,0,43.788,60.814Z" fill="#f0aa09"/><path d="M63.071,56.322a1.34,1.34,0,1,0,1.336-1.248A1.294,1.294,0,0,0,63.071,56.322Z" fill="#f0aa09"/><path d="M86.716,57.153a1.993,1.993,0,1,0,1.991-2.079A2.037,2.037,0,0,0,86.716,57.153Z" fill="#f0aa09"/><path d="M78.775,53.342c0,.423.653.765,1.458.765s1.457-.342,1.457-.765-.653-.764-1.457-.764S78.775,52.92,78.775,53.342Z" fill="#f0aa09"/><path d="M101.941,51.236c0,.741,1.723,1.342,3.849,1.342s3.849-.6,3.849-1.342-1.724-1.342-3.849-1.342S101.941,50.495,101.941,51.236Z" fill="#f0aa09"/><path d="M125.889,60.814c0,.873,1.764,1.581,3.94,1.581s3.94-.708,3.94-1.581-1.764-1.581-3.94-1.581S125.889,59.941,125.889,60.814Z" fill="#f0aa09"/><path d="M167.322,62.4c0,.827,1.346,1.5,3.007,1.5s3.008-.67,3.008-1.5-1.347-1.5-3.008-1.5S167.322,61.568,167.322,62.4Z" fill="#f0aa09"/><ellipse cx="3.341" cy="0.832" rx="3.341" ry="0.832" transform="translate(152.286 57.569)" fill="#f0aa09"/><path d="M184.363,52.672c0,.792,2.278,1.435,5.087,1.435s5.088-.643,5.088-1.435-2.278-1.436-5.088-1.436S184.363,51.879,184.363,52.672Z" fill="#f0aa09"/></g><path d="M-901.867,113.872c9.188,0,9.188,7.365,18.375,7.365s9.187-7.365,18.375-7.365,9.186,7.365,18.373,7.365,9.186-7.365,18.373-7.365,9.186,7.365,18.372,7.365,9.186-7.365,18.372-7.365,9.185,7.365,18.37,7.365,9.186-7.365,18.372-7.365,9.187,7.365,18.373,7.365,9.186-7.365,18.372-7.365,9.186,7.365,18.371,7.365,9.186-7.365,18.371-7.365V39.734H-901.867Z" transform="translate(842.336 -72.443)" fill="#46aef3"/><path d="M-901.867,113.872c9.168,0,9.168,7.365,18.336,7.365s9.168-7.365,18.336-7.365,9.167,7.365,18.333,7.365,9.167-7.365,18.334-7.365,9.166,7.365,18.333,7.365,9.167-7.365,18.333-7.365,9.165,7.365,18.331,7.365,9.167-7.365,18.333-7.365,9.167,7.365,18.333,7.365,9.167-7.365,18.333-7.365,9.166,7.365,18.332,7.365,9.166-7.365,18.332-7.365V39.734h-220Z" transform="translate(1282.336 -72.443)" fill="#46aef3"/><path d="M-901.867,113.872c9.168,0,9.168,7.365,18.336,7.365s9.168-7.365,18.336-7.365,9.167,7.365,18.333,7.365,9.167-7.365,18.334-7.365,9.167,7.365,18.333,7.365,9.167-7.365,18.333-7.365,9.165,7.365,18.331,7.365,9.167-7.365,18.333-7.365,9.167,7.365,18.333,7.365,9.167-7.365,18.333-7.365,9.166,7.365,18.332,7.365,9.166-7.365,18.332-7.365V39.734h-220Z" transform="translate(1722.336 -72.443)" fill="#46aef3"/><path d="M-901.867,113.872c9.168,0,9.168,7.365,18.336,7.365s9.168-7.365,18.336-7.365,9.167,7.365,18.333,7.365,9.167-7.365,18.334-7.365,9.167,7.365,18.333,7.365,9.167-7.365,18.333-7.365,9.165,7.365,18.331,7.365,9.167-7.365,18.333-7.365,9.167,7.365,18.333,7.365,9.167-7.365,18.333-7.365,9.166,7.365,18.332,7.365,9.166-7.365,18.332-7.365V39.734h-220Z" transform="translate(2162.336 -72.443)" fill="#46aef3"/><path d="M-901.867,113.872c9.149,0,9.149,7.365,18.3,7.365s9.148-7.365,18.3-7.365,9.147,7.365,18.294,7.365,9.147-7.365,18.3-7.365,9.147,7.365,18.294,7.365,9.147-7.365,18.294-7.365,9.146,7.365,18.292,7.365,9.147-7.365,18.294-7.365,9.147,7.365,18.294,7.365,9.147-7.365,18.294-7.365,9.147,7.365,18.293,7.365,9.147-7.365,18.293-7.365V39.734H-901.867Z" transform="translate(2602.336 -72.443)" fill="#46aef3"/><path d="M-901.867,113.872c9.149,0,9.149,7.365,18.3,7.365s9.148-7.365,18.3-7.365,9.147,7.365,18.294,7.365,9.147-7.365,18.3-7.365,9.147,7.365,18.294,7.365,9.147-7.365,18.294-7.365,9.146,7.365,18.292,7.365,9.147-7.365,18.294-7.365,9.147,7.365,18.294,7.365,9.147-7.365,18.294-7.365,9.147,7.365,18.293,7.365,9.147-7.365,18.293-7.365V39.734H-901.867Z" transform="translate(1062.805 -72.443)" fill="#46aef3"/><path d="M-901.867,113.872c9.168,0,9.168,7.365,18.336,7.365s9.168-7.365,18.336-7.365,9.167,7.365,18.333,7.365,9.167-7.365,18.334-7.365,9.167,7.365,18.333,7.365,9.167-7.365,18.333-7.365,9.165,7.365,18.331,7.365,9.167-7.365,18.333-7.365,9.167,7.365,18.333,7.365,9.167-7.365,18.333-7.365,9.166,7.365,18.332,7.365,9.166-7.365,18.332-7.365V39.734h-220Z" transform="translate(1502.336 -72.443)" fill="#46aef3"/><path d="M-901.867,113.872c9.168,0,9.168,7.365,18.336,7.365s9.168-7.365,18.336-7.365,9.167,7.365,18.333,7.365,9.167-7.365,18.334-7.365,9.167,7.365,18.333,7.365,9.167-7.365,18.333-7.365,9.165,7.365,18.331,7.365,9.167-7.365,18.333-7.365,9.167,7.365,18.333,7.365,9.167-7.365,18.333-7.365,9.166,7.365,18.332,7.365,9.166-7.365,18.332-7.365V39.734h-220Z" transform="translate(1942.336 -72.443)" fill="#46aef3"/><path d="M-901.867,113.872c9.168,0,9.168,7.365,18.336,7.365s9.168-7.365,18.336-7.365,9.167,7.365,18.333,7.365,9.167-7.365,18.334-7.365,9.167,7.365,18.333,7.365,9.167-7.365,18.333-7.365,9.165,7.365,18.331,7.365,9.167-7.365,18.333-7.365,9.167,7.365,18.333,7.365,9.167-7.365,18.333-7.365,9.166,7.365,18.332,7.365,9.166-7.365,18.332-7.365V39.734h-220Z" transform="translate(2382.336 -72.443)" fill="#46aef3"/><path d="M-682.336,113.872c-9.149,0-9.149,7.365-18.3,7.365s-9.148-7.365-18.3-7.365-9.147,7.365-18.294,7.365-9.147-7.365-18.3-7.365-9.147,7.365-18.294,7.365-9.147-7.365-18.294-7.365-9.146,7.365-18.292,7.365-9.147-7.365-18.294-7.365-9.147,7.365-18.294,7.365-9.147-7.365-18.294-7.365-9.147,7.365-18.293,7.365-9.147-7.365-18.293-7.365V39.734h219.531Z" transform="translate(2602.336 -79.992)" fill="#52b5f7"/><path d="M-681.867,113.872c-9.168,0-9.168,7.365-18.336,7.365s-9.168-7.365-18.336-7.365-9.167,7.365-18.333,7.365-9.167-7.365-18.334-7.365-9.167,7.365-18.333,7.365-9.167-7.365-18.333-7.365-9.165,7.365-18.331,7.365-9.167-7.365-18.333-7.365-9.167,7.365-18.333,7.365-9.167-7.365-18.333-7.365-9.166,7.365-18.332,7.365-9.166-7.365-18.332-7.365V39.734h220Z" transform="translate(2162.336 -79.992)" fill="#52b5f7"/><path d="M-681.867,113.872c-9.168,0-9.168,7.365-18.336,7.365s-9.168-7.365-18.336-7.365-9.167,7.365-18.333,7.365-9.167-7.365-18.334-7.365-9.167,7.365-18.333,7.365-9.167-7.365-18.333-7.365-9.165,7.365-18.331,7.365-9.167-7.365-18.333-7.365-9.167,7.365-18.333,7.365-9.167-7.365-18.333-7.365-9.166,7.365-18.332,7.365-9.166-7.365-18.332-7.365V39.734h220Z" transform="translate(1722.336 -79.992)" fill="#52b5f7"/><path d="M-681.867,113.872c-9.168,0-9.168,7.365-18.336,7.365s-9.168-7.365-18.336-7.365-9.167,7.365-18.333,7.365-9.167-7.365-18.334-7.365-9.167,7.365-18.333,7.365-9.166-7.365-18.333-7.365-9.165,7.365-18.331,7.365-9.166-7.365-18.333-7.365-9.167,7.365-18.333,7.365-9.166-7.365-18.333-7.365-9.166,7.365-18.332,7.365-9.166-7.365-18.332-7.365V39.734h220Z" transform="translate(1282.336 -79.992)" fill="#52b5f7"/><path d="M-681.4,113.872c-9.188,0-9.188,7.365-18.375,7.365s-9.187-7.365-18.375-7.365-9.186,7.365-18.373,7.365-9.186-7.365-18.373-7.365-9.186,7.365-18.372,7.365-9.186-7.365-18.372-7.365-9.185,7.365-18.37,7.365-9.186-7.365-18.372-7.365-9.187,7.365-18.373,7.365-9.186-7.365-18.372-7.365-9.186,7.365-18.371,7.365-9.186-7.365-18.371-7.365V39.734H-681.4Z" transform="translate(842.336 -79.992)" fill="#52b5f7"/><path d="M-681.867,113.872c-9.168,0-9.168,7.365-18.336,7.365s-9.168-7.365-18.336-7.365-9.167,7.365-18.333,7.365-9.167-7.365-18.334-7.365-9.167,7.365-18.333,7.365-9.167-7.365-18.333-7.365-9.165,7.365-18.331,7.365-9.167-7.365-18.333-7.365-9.167,7.365-18.333,7.365-9.167-7.365-18.333-7.365-9.166,7.365-18.332,7.365-9.166-7.365-18.332-7.365V39.734h220Z" transform="translate(2382.336 -79.992)" fill="#52b5f7"/><path d="M-681.867,113.872c-9.168,0-9.168,7.365-18.336,7.365s-9.168-7.365-18.336-7.365-9.167,7.365-18.333,7.365-9.167-7.365-18.334-7.365-9.167,7.365-18.333,7.365-9.167-7.365-18.333-7.365-9.165,7.365-18.331,7.365-9.167-7.365-18.333-7.365-9.167,7.365-18.333,7.365-9.167-7.365-18.333-7.365-9.166,7.365-18.332,7.365-9.166-7.365-18.332-7.365V39.734h220Z" transform="translate(1942.336 -79.992)" fill="#52b5f7"/><path d="M-681.867,113.872c-9.168,0-9.168,7.365-18.336,7.365s-9.168-7.365-18.336-7.365-9.167,7.365-18.333,7.365-9.167-7.365-18.334-7.365-9.167,7.365-18.333,7.365-9.167-7.365-18.333-7.365-9.165,7.365-18.331,7.365-9.167-7.365-18.333-7.365-9.167,7.365-18.333,7.365-9.167-7.365-18.333-7.365-9.166,7.365-18.332,7.365-9.166-7.365-18.332-7.365V39.734h220Z" transform="translate(1502.336 -79.992)" fill="#52b5f7"/><g transform="translate(1742.508 -242.098)"><path d="M39.433,242.445a31.858,31.858,0,0,0-14.646-27.512,32.034,32.034,0,0,0-6.986-3.36h0a32.055,32.055,0,0,0-36.08,11.242q-.708.96-1.348,1.978a31.819,31.819,0,0,0-2.259,4.3q-.488,1.131-.9,2.315a31.621,31.621,0,0,0-1.726,10.082q-.007,1.266.085,2.519t.282,2.488a31.682,31.682,0,0,0,.87,3.868,32,32,0,0,0,4.693,9.8A31.722,31.722,0,0,0-7.571,269.8a32.28,32.28,0,0,0,4.709,2.029h0q1.236.42,2.48.736a32.056,32.056,0,0,0,33.27-11.548q.763-1,1.453-2.061a31.905,31.905,0,0,0,5.092-16.508Zm-16.978,10.78a18.882,18.882,0,0,1-21.168,6.5,18.776,18.776,0,0,1-12.756-18.042,18.776,18.776,0,0,1,3.763-10.974,18.9,18.9,0,0,1,21.173-6.5,18.765,18.765,0,0,1,12.751,18.04,18.781,18.781,0,0,1-3.763,10.975Z" fill="#664b1a" opacity="0.3"/><path d="M41.407,236.688l-13.215-.2a18.763,18.763,0,0,1-3.763,10.975l10.433,7.788a31.876,31.876,0,0,0,6.545-18.568Z" fill="#d02f3f"/><path d="M24.761,225.41l10.918-7.657a31.825,31.825,0,0,0-15.9-11.937l-4.334,12.637A18.766,18.766,0,0,1,24.761,225.41Z" fill="#d02f3f"/><path d="M15.441,218.453h0l4.334-12.637a31.958,31.958,0,0,0-19.919-.247l3.94,12.71A18.826,18.826,0,0,1,15.441,218.453Z" fill="#fef6f8"/><path d="M3.261,253.971l-4.149,12.1a31.918,31.918,0,0,0,19.591.346l-3.8-12.269A18.844,18.844,0,0,1,3.261,253.971Z" fill="#d02f3f"/><path d="M14.907,254.146l3.8,12.269a32.058,32.058,0,0,0,16.159-11.159l-10.433-7.788A18.885,18.885,0,0,1,14.907,254.146Z" fill="#fef6f8"/><path d="M3.261,253.971a18.749,18.749,0,0,1-9.32-6.956L-16.6,254.406A31.8,31.8,0,0,0-.888,266.069l4.149-12.1Z" fill="#fef6f8"/><path d="M3.8,218.279l-3.94-12.71a32.065,32.065,0,0,0-16.161,11.489l10.574,7.9A18.858,18.858,0,0,1,3.8,218.279Z" fill="#d02f3f"/><path d="M-9.495,235.929l-13.037-.194A31.833,31.833,0,0,0-16.6,254.406l10.544-7.391A18.765,18.765,0,0,1-9.495,235.929Z" fill="#d02f3f"/><path d="M-8.484,230.149a18.607,18.607,0,0,1,2.753-5.194l-10.574-7.9a31.846,31.846,0,0,0-4.5,8.6,31.591,31.591,0,0,0-1.725,10.082l13.037.194A18.59,18.59,0,0,1-8.484,230.149Z" fill="#fef6f8"/><path d="M28.192,236.493l13.215.2a31.81,31.81,0,0,0-5.728-18.935L24.761,225.41A18.729,18.729,0,0,1,28.192,236.493Z" fill="#fef6f8"/><g opacity="0.1"><path d="M17.04,213.79a23.81,23.81,0,0,0-30.2,14.768A23.662,23.662,0,0,0,1.664,258.629a23.81,23.81,0,0,0,30.2-14.757A23.672,23.672,0,0,0,17.04,213.79ZM3.249,254.006a18.811,18.811,0,1,1,12.2-35.587,18.811,18.811,0,1,1-12.2,35.587Z" fill="#48191a"/></g></g><path d="M-682.336,113.872c-9.149,0-9.149,7.365-18.3,7.365s-9.148-7.365-18.3-7.365-9.147,7.365-18.294,7.365-9.147-7.365-18.3-7.365-9.147,7.365-18.294,7.365-9.147-7.365-18.294-7.365-9.146,7.365-18.292,7.365-9.147-7.365-18.294-7.365-9.147,7.365-18.294,7.365-9.147-7.365-18.294-7.365-9.147,7.365-18.293,7.365-9.147-7.365-18.293-7.365V39.734h219.531Z" transform="translate(1062.805 -79.992)" fill="#52b5f7"/><path d="M-682.336,113.872c-9.149,0-9.149,7.365-18.3,7.365s-9.148-7.365-18.3-7.365-9.147,7.365-18.294,7.365-9.147-7.365-18.3-7.365-9.147,7.365-18.294,7.365-9.147-7.365-18.294-7.365-9.146,7.365-18.292,7.365-9.147-7.365-18.294-7.365-9.147,7.365-18.294,7.365-9.147-7.365-18.294-7.365-9.147,7.365-18.293,7.365-9.147-7.365-18.293-7.365V39.734h219.531Z" transform="translate(622.336 -96.766)" fill="#52b5f7"/><ellipse cx="5.614" cy="5.548" rx="5.614" ry="5.548" transform="translate(1098.885 9.366)" fill="none" stroke="#fff" stroke-miterlimit="10" stroke-width="1.73"/><ellipse cx="3.614" cy="3.548" rx="3.614" ry="3.548" transform="translate(863.885 20.366)" fill="none" stroke="#fff" stroke-miterlimit="10" stroke-width="1.73"/><g transform="matrix(0.788, 0.616, -0.616, 0.788, 881.145, 9.117)"><line x2="8.291" y2="7.915" transform="translate(0.133 0.129)" fill="none" stroke="#fff" stroke-miterlimit="10" stroke-width="1.31"/><line x1="9.799" y2="9.423" transform="translate(-0.62 -0.625)" fill="none" stroke="#fff" stroke-miterlimit="10" stroke-width="1.31"/></g><path d="M81.326,213.9l12.351-6.375L104.6,213.9l11.876-5.977,10.926,5.977,13.3-5.977,11.4,5.977" transform="translate(962.66 -181.267)" fill="none" stroke="#fff" stroke-miterlimit="10" stroke-width="2.314"/><path d="M81.326,213.9l12.351-6.375L104.6,213.9l11.876-5.977,10.926,5.977,13.3-5.977,11.4,5.977" transform="translate(796.471 -171.972) rotate(-8)" fill="none" stroke="#fff" stroke-miterlimit="10" stroke-width="2.314" opacity="0.24"/><path d="M81.326,212.469l9.587-4.948,8.481,4.948,9.218-4.639,8.481,4.639,10.325-4.639,8.85,4.639" transform="translate(215.32 -151.678) rotate(-20)" fill="none" stroke="#fff" stroke-miterlimit="10" stroke-width="2.314" opacity="0.24"/><path d="M81.326,212.469l9.587-4.948,8.481,4.948,9.218-4.639,8.481,4.639,10.325-4.639,8.85,4.639" transform="translate(1451.32 -151.678) rotate(-20)" fill="none" stroke="#fff" stroke-miterlimit="10" stroke-width="2.314" opacity="0.24"/><g transform="translate(-140.542 -310.827)"><path d="M233.016,403.613l-20.695-8.871-11.507-19.291,2.076-22.342,14.866-16.86,21.978-4.938,20.695,8.871,11.507,19.291-2.076,22.342-14.866,16.86Z" transform="translate(0 -2.181)" fill="#664b1a" opacity="0.3"/><path d="M235.942,397.3l-20.695-8.871-11.507-19.291,2.076-22.342,14.866-16.86L242.661,325l20.695,8.871,11.507,19.291L272.786,375.5,257.92,392.36Z" transform="translate(-1.011)" fill="#fff"/><path d="M215.248,403.289l20.695,8.871,21.978-4.938,14.866-16.86,2.076-22.342L203.741,384Z" transform="translate(-1.011 -14.862)" fill="#d7d7d6"/><path d="M229.625,329.934l18.618,31.213L251.6,325Z" transform="translate(-9.952)" fill="#4c85c5"/><path d="M239.3,372.651,205.817,358.3l-2.076,22.342Z" transform="translate(-1.011 -11.504)" fill="#4c85c5"/><path d="M282.123,338.548l-24.054,27.28,35.561-7.989Z" transform="translate(-19.778 -4.682)" fill="#4c85c5"/><path d="M221.32,407.505l24.054-27.28-3.36,36.151Z" transform="translate(-7.084 -19.078)" fill="#246db6"/><path d="M276.687,411.439l-18.618-31.213,33.485,14.353Z" transform="translate(-19.778 -19.078)" fill="#246db6"/><path d="M259.226,378.3a2.584,2.584,0,1,1-3.09-1.944A2.574,2.574,0,0,1,259.226,378.3Z" transform="translate(-18.414 -17.72)" fill="#3672b8"/></g><g transform="translate(657.937 21.994)"><g transform="translate(0)"><path d="M-28.41,156.052s-7.053-4.964-33.353,8.276A104.465,104.465,0,0,0-28.41,156.052Z" transform="translate(108.794 -62.729)" fill="#379d78"/><path d="M-20.988,148.074s-20.109,1.038-33.865,8.478C-54.853,156.552-26.882,155.293-20.988,148.074Z" transform="translate(97.255 -59.871)" fill="#379d78"/><path d="M-15,139.736s-8.173-4.572-33.635,7.034C-48.636,146.77-23.95,145.359-15,139.736Z" transform="translate(87.565 -56.141)" fill="#379d78"/><path d="M-8.68,131.5s-7.365-5.3-33.532,5.9A118.469,118.469,0,0,0-8.68,131.5Z" transform="translate(77.417 -52.662)" fill="#379d78"/><path d="M-5.493,123.6s-7.837-2.692-29.784,5.1C-35.277,128.7-14.745,129.585-5.493,123.6Z" transform="translate(70.1 -49.794)" fill="#379d78"/><path d="M.981,115.744s-7.909-3.9-29.9,5.574C-28.921,121.318-5.98,120.659.981,115.744Z" transform="translate(59.84 -46.478)" fill="#379d78"/><path d="M7.635,108.327s-5.648-4.432-30.479,4.654C-22.844,112.981.974,112.87,7.635,108.327Z" transform="translate(49.566 -43.363)" fill="#379d78"/><path d="M14.145,100.657s-9.008-4.148-30.353,5.813C-16.208,106.47,4.643,105.071,14.145,100.657Z" transform="translate(39.103 -40.353)" fill="#379d78"/><path d="M19.962,93.239s-10.3-3.368-29.721,5.055C-9.759,98.295,11.232,98.427,19.962,93.239Z" transform="translate(29.445 -37.431)" fill="#379d78"/><path d="M27.422,85.731s-9.329-3.777-30.181,3.65C-2.759,89.381,15.712,90.4,27.422,85.731Z" transform="translate(17.815 -34.276)" fill="#379d78"/><path d="M33.87,78.66s-8.594-3.606-30.6,2.853C3.267,81.513,20.917,83.317,33.87,78.66Z" transform="translate(7.777 -31.399)" fill="#379d78"/><path d="M39.817,69.934s-7.693-4.325-29.208,2.119C10.609,72.053,31.778,74.2,39.817,69.934Z" transform="translate(-2.544 -27.702)" fill="#379d78"/><path d="M46.994,61.049s-7.415-4.294-30.583-3.841C16.411,57.207,33.833,64.611,46.994,61.049Z" transform="translate(-13.177 -23.117)" fill="#379d78"/><path d="M52.811,51.237s-8.85-5.292-29.536-6.945C23.275,44.292,40.744,53.8,52.811,51.237Z" transform="translate(-23.081 -17.909)" fill="#379d78"/><path d="M55.615,39.187s-4.59-5.664-25.883-14.812C29.732,24.375,39.82,37.164,55.615,39.187Z" transform="translate(-29.732 -9.856)" fill="#379d78"/><path d="M-84.4,136.618s-3.925-7.661,12.992-31.692A103.424,103.424,0,0,1-84.4,136.618Z" transform="translate(165.503 -42.425)" fill="#379d78"/><path d="M-78.854,126.971s4.293-19.593,13.9-31.9C-64.957,95.067-70.745,122.35-78.854,126.971Z" transform="translate(155.521 -38.439)" fill="#379d78"/><path d="M-70.776,120.184s-3.192-8.777,12.47-31.895C-58.306,88.289-63.743,112.312-70.776,120.184Z" transform="translate(144.218 -35.698)" fill="#379d78"/><path d="M-62.161,112.085s-4.065-8.094,11.255-32.007A117.221,117.221,0,0,1-62.161,112.085Z" transform="translate(131.819 -32.378)" fill="#379d78"/><path d="M-53.034,105.315s-1.363-8.144,10-28.4C-43.033,76.912-45.571,97.222-53.034,105.315Z" transform="translate(118.247 -31.098)" fill="#379d78"/><path d="M-48.213,97.426s-2.35-8.47,11.136-28.193C-37.077,69.233-42.054,91.546-48.213,97.426Z" transform="translate(109.483 -27.993)" fill="#379d78"/><path d="M-41.977,89.623s-3.106-6.459,11.232-28.6C-30.745,61.024-36.068,84.145-41.977,89.623Z" transform="translate(99.512 -24.674)" fill="#379d78"/><path d="M-33.523,82.913s-2.984-9.426,9.655-29.242C-23.868,53.671-27.915,74.09-33.523,82.913Z" transform="translate(87.613 -21.701)" fill="#379d78"/><path d="M-25.876,73.869s-1.59-10.684,10.034-28.316C-15.842,45.553-19.264,66.179-25.876,73.869Z" transform="translate(74.892 -18.419)" fill="#379d78"/><path d="M-19.57,65.91s-1.658-9.892,10.182-28.529C-9.387,37.381-12.427,55.555-19.57,65.91Z" transform="translate(64.685 -15.114)" fill="#379d78"/><path d="M-11,58.736s-1.873-9.1,8.785-29.335C-2.217,29.4-3.887,46.993-11,58.736Z" transform="translate(52.44 -11.888)" fill="#379d78"/><path d="M.344,52.058s-3.351-8.14,5.746-28.6C6.09,23.459,5.6,44.644.344,52.058Z" transform="translate(37.658 -9.485)" fill="#379d78"/><path d="M8.685,42.938S6.426,34.7,12.823,12.516C12.823,12.516,15.528,31.187,8.685,42.938Z" transform="translate(25.3 -5.061)" fill="#379d78"/><path d="M18.247,35.231s-2.547-9.963,1.8-30.169C20.052,5.062,24.179,24.457,18.247,35.231Z" transform="translate(11.716 -2.047)" fill="#379d78"/><path d="M32.44,29.31s-3.749-6.249-5-29.31C27.44,0,36,13.85,32.44,29.31Z" transform="translate(-6.058)" fill="#379d78"/><path d="M43.118,27.564s-7.33-10.872-7.937-21.806C35.181,5.758,40.6,8.558,43.118,27.564Z" transform="translate(-20.481 -2.328)" fill="#379d78"/><path d="M54.926,31.316a135.787,135.787,0,0,0-11.778-9.09c-6.315-4.289-8.28-8.1-8.28-8.1S48.886,19.079,54.926,31.316Z" transform="translate(-32.102 -5.712)" fill="#379d78"/></g><path d="M-81.457,40.685-70.32,53.838l11.443,13.45,6.446,7.591c2.2,2.579,4.426,5.209,6.638,7.85,4.462,5.25,8.865,10.547,13,15.509l5.922,7.183c.948,1.137,1.841,2.265,2.717,3.346l2.539,3.13,1.194,1.473,1.12,1.421,2.082,2.617,1.829,2.3,1.511,1.986,2.135,2.773.759.98-.694-1.026-1.969-2.894-1.417-2.059-1.718-2.389c-1.237-1.7-2.589-3.649-4.167-5.7s-3.231-4.313-5.065-6.641-3.735-4.81-5.777-7.316-4.107-5.134-6.289-7.734c-2.166-2.613-4.362-5.272-6.59-7.9s-4.466-5.254-6.683-7.825-4.421-5.08-6.547-7.514-4.218-4.756-6.188-6.97-3.858-4.283-5.6-6.193c-3.482-3.824-6.441-6.961-8.5-9.167-1.026-1.106-1.855-1.954-2.411-2.541Z" transform="translate(103.1 -16.45)" fill="#379d78"/></g><g transform="translate(-19.063 7.994)"><g transform="translate(0)"><path d="M-61.763,156.052s7.053-4.964,33.353,8.276A104.465,104.465,0,0,1-61.763,156.052Z" transform="translate(75.479 -62.729)" fill="#379d78"/><path d="M-54.853,148.074s20.109,1.038,33.865,8.478C-20.988,156.552-48.959,155.293-54.853,148.074Z" transform="translate(72.685 -59.871)" fill="#379d78"/><path d="M-48.636,139.736s8.173-4.572,33.635,7.034C-15,146.77-39.687,145.359-48.636,139.736Z" transform="translate(70.172 -56.141)" fill="#379d78"/><path d="M-42.212,131.5s7.365-5.3,33.532,5.9A118.469,118.469,0,0,1-42.212,131.5Z" transform="translate(67.574 -52.662)" fill="#379d78"/><path d="M-35.277,123.6s7.837-2.692,29.784,5.1C-5.493,128.7-26.025,129.585-35.277,123.6Z" transform="translate(64.77 -49.794)" fill="#379d78"/><path d="M-28.921,115.744s7.909-3.9,29.9,5.574C.981,121.318-21.961,120.659-28.921,115.744Z" transform="translate(62.2 -46.478)" fill="#379d78"/><path d="M-22.844,108.327s5.648-4.432,30.479,4.654C7.635,112.981-16.183,112.87-22.844,108.327Z" transform="translate(59.743 -43.363)" fill="#379d78"/><path d="M-16.208,100.657s9.008-4.148,30.353,5.813C14.145,106.47-6.707,105.071-16.208,100.657Z" transform="translate(57.06 -40.353)" fill="#379d78"/><path d="M-9.759,93.239s10.3-3.368,29.721,5.055C19.962,98.295-1.029,98.427-9.759,93.239Z" transform="translate(54.452 -37.431)" fill="#379d78"/><path d="M-2.759,85.731s9.329-3.777,30.181,3.65C27.422,89.381,8.951,90.4-2.759,85.731Z" transform="translate(51.622 -34.276)" fill="#379d78"/><path d="M3.267,78.66s8.594-3.606,30.6,2.853C33.87,81.513,16.22,83.317,3.267,78.66Z" transform="translate(49.186 -31.399)" fill="#379d78"/><path d="M10.609,69.934s7.693-4.325,29.208,2.119C39.817,72.053,18.649,74.2,10.609,69.934Z" transform="translate(46.217 -27.702)" fill="#379d78"/><path d="M16.411,61.049s7.415-4.294,30.583-3.841C46.994,57.207,29.572,64.611,16.411,61.049Z" transform="translate(43.871 -23.117)" fill="#379d78"/><path d="M23.275,51.237s8.85-5.292,29.536-6.945C52.811,44.292,35.341,53.8,23.275,51.237Z" transform="translate(41.096 -17.909)" fill="#379d78"/><path d="M29.732,39.187s4.59-5.664,25.883-14.812C55.615,24.375,45.527,37.164,29.732,39.187Z" transform="translate(38.485 -9.856)" fill="#379d78"/><path d="M-71.8,136.618s3.925-7.661-12.992-31.692A103.424,103.424,0,0,0-71.8,136.618Z" transform="translate(84.79 -42.425)" fill="#379d78"/><path d="M-64.957,126.971s-4.293-19.593-13.9-31.9C-78.854,95.067-73.067,122.35-64.957,126.971Z" transform="translate(82.39 -38.439)" fill="#379d78"/><path d="M-58.574,120.184s3.192-8.777-12.47-31.895C-71.044,88.289-65.607,112.312-58.574,120.184Z" transform="translate(79.232 -35.698)" fill="#379d78"/><path d="M-51.4,112.085s4.065-8.094-11.255-32.007A117.221,117.221,0,0,0-51.4,112.085Z" transform="translate(75.838 -32.378)" fill="#379d78"/><path d="M-43.084,105.315s1.363-8.144-10-28.4C-53.085,76.912-50.547,97.222-43.084,105.315Z" transform="translate(71.971 -31.098)" fill="#379d78"/><path d="M-37.234,97.426s2.35-8.47-11.136-28.193C-48.37,69.233-43.393,91.546-37.234,97.426Z" transform="translate(70.064 -27.993)" fill="#379d78"/><path d="M-31.029,89.623s3.106-6.459-11.232-28.6C-42.261,61.024-36.939,84.145-31.029,89.623Z" transform="translate(67.594 -24.674)" fill="#379d78"/><path d="M-24.175,82.913s2.984-9.426-9.655-29.242C-33.83,53.671-29.782,74.09-24.175,82.913Z" transform="translate(64.185 -21.701)" fill="#379d78"/><path d="M-15.915,73.869s1.59-10.684-10.034-28.316C-25.949,45.553-22.526,66.179-15.915,73.869Z" transform="translate(60.999 -18.419)" fill="#379d78"/><path d="M-9.467,65.91s1.658-9.892-10.182-28.529C-19.649,37.381-16.609,55.555-9.467,65.91Z" transform="translate(58.451 -15.114)" fill="#379d78"/><path d="M-2.344,58.736s1.873-9.1-8.785-29.335C-11.129,29.4-9.46,46.993-2.344,58.736Z" transform="translate(55.006 -11.888)" fill="#379d78"/><path d="M5.487,52.058s3.351-8.14-5.746-28.6C-.259,23.459.234,44.644,5.487,52.058Z" transform="translate(50.611 -9.485)" fill="#379d78"/><path d="M12.963,42.938S15.223,34.7,8.825,12.516C8.825,12.516,6.121,31.187,12.963,42.938Z" transform="translate(47.151 -5.061)" fill="#379d78"/><path d="M20.708,35.231s2.547-9.963-1.8-30.169C18.9,5.062,14.776,24.457,20.708,35.231Z" transform="translate(43.428 -2.047)" fill="#379d78"/><path d="M28.306,29.31s3.749-6.249,5-29.31C33.306,0,24.748,13.85,28.306,29.31Z" transform="translate(39.412)" fill="#379d78"/><path d="M35.181,27.564s7.33-10.872,7.937-21.806C43.118,5.758,37.7,8.558,35.181,27.564Z" transform="translate(36.282 -2.328)" fill="#379d78"/><path d="M34.868,31.316a135.788,135.788,0,0,1,11.778-9.09c6.315-4.289,8.28-8.1,8.28-8.1S40.908,19.079,34.868,31.316Z" transform="translate(36.408 -5.712)" fill="#379d78"/></g><path d="M-10.986,40.685-22.123,53.838l-11.443,13.45-6.446,7.591c-2.2,2.579-4.426,5.209-6.638,7.85-4.462,5.25-8.865,10.547-13,15.509l-5.922,7.183c-.948,1.137-1.841,2.265-2.717,3.346l-2.539,3.13-1.194,1.473-1.12,1.421-2.082,2.617-1.829,2.3-1.511,1.986L-80.7,124.47l-.759.98.694-1.026,1.969-2.894,1.417-2.059,1.718-2.389c1.237-1.7,2.589-3.649,4.167-5.7s3.231-4.313,5.065-6.641,3.735-4.81,5.777-7.316,4.107-5.134,6.289-7.734c2.166-2.613,4.362-5.272,6.59-7.9s4.466-5.254,6.683-7.825,4.421-5.08,6.547-7.514,4.218-4.756,6.188-6.97,3.858-4.283,5.6-6.193c3.482-3.824,6.441-6.961,8.5-9.167,1.026-1.106,1.855-1.954,2.411-2.541Z" transform="translate(83.442 -16.45)" fill="#379d78"/></g><g transform="translate(1538.867 -107.765)"><path d="M347.831,203.421s4.661-4.166-7.5-22.179-36.484-37.315-56.853-47.064-36.166-11.295-36.343-5.776,3.449,16.63,18.373,33.8S334,213.767,347.831,203.421Z" fill="#664b1a" opacity="0.3"/><path d="M351.821,200.681s4.418-3.847-8.017-21.493-36.794-36.913-56.982-46.9-35.658-11.962-35.656-6.676,3.893,16.047,19,32.97S338.649,210.162,351.821,200.681Z" fill="#c4783c"/><path d="M296.458,142.864l25.271,19.989S312.6,147.975,296.458,142.864Z" fill="#e78d4e"/><path d="M308.005,181.8l-25.866-19.218S291.715,177.181,308.005,181.8Z" fill="#e78d4e"/><path d="M261.325,123.212l89.9,68.9a41.531,41.531,0,0,0-2.017-4.31l-82.822-63.482C264.561,123.841,262.867,123.47,261.325,123.212Z" fill="#e78d4e"/><path d="M254.754,137.252l83.437,63.953a37.141,37.141,0,0,0,4.813.924l-90.166-69.11A45.423,45.423,0,0,0,254.754,137.252Z" fill="#e78d4e"/><path d="M254.564,122.9c-2.187.325-3.4,1.233-3.4,2.713q0,.557.062,1.193l97.943,75.072a7.994,7.994,0,0,0,2.65-1.2s.747-.653.762-2.649ZM308.005,168.4,254.168,126.26c-3.634-6.738,57.764,42.8,57.764,42.8Z" fill="#e78d4e"/><path d="M263.19,146.351l18.949,16.233,4.771,5.812-22.592-19.8S260.964,144.445,263.19,146.351Z" fill="#e78d4e"/></g><g transform="translate(146.035 -243.23)"><g opacity="0.3"><path d="M17,329.535c2.32-1.776,5.82-7.384.121-12.982L5.55,303.732c-3.476-4.22-8.536-.2-8.536-.2s-5.2,3.836-2.02,8.284L4.383,326.3C8.314,333.255,14.682,331.31,17,329.535Z" fill="#664b1a"/></g><path d="M18.279,327.627c2.32-1.776,5.821-7.384.121-12.982L6.827,301.824c-3.475-4.22-8.535-.205-8.535-.205s-5.2,3.836-2.021,8.284L5.66,324.395C9.591,331.347,15.96,329.4,18.279,327.627Z" fill="#3eaf85"/><path d="M17.427,326.521c2.122-1.624,5.325-6.755.11-11.876L6.949,302.915c-3.18-3.861-7.809-.187-7.809-.187s-4.755,3.509-1.848,7.579l8.589,13.258C9.478,329.925,15.3,328.146,17.427,326.521Z" fill="#55b694"/><path d="M13.638,313.31a.7.7,0,0,1,.919.059c.145.143,3.555,3.559,3.33,7.083a5.138,5.138,0,0,1-2.183,3.836,5.265,5.265,0,0,1-4.306,1.131c-3.508-.662-6.013-4.76-6.118-4.934a.693.693,0,0,1,.24-.956.7.7,0,0,1,.96.238c.022.037,2.292,3.74,5.182,4.284a3.87,3.87,0,0,0,3.189-.868,3.756,3.756,0,0,0,1.64-2.819c.185-2.9-2.89-5.976-2.921-6.007a.694.694,0,0,1,0-.985A.685.685,0,0,1,13.638,313.31Z" fill="#fff"/><path d="M13.718,321.715h0a1.047,1.047,0,0,1,1.461.191l2.28,2.066c.349.452-.168,1.437-.622,1.784h0c-.455.348-1.543.592-1.892.14l-1.418-2.726A1.038,1.038,0,0,1,13.718,321.715Z" fill="#f8ac00"/><g opacity="0.3"><path d="M36.115,306.951c-1.125,2.69-5.665,7.5-12.564,3.459l-15.42-7.835c-4.989-2.257-2.4-8.161-2.4-8.161s2.383-5.989,7.517-4.077l16.479,5.3C37.487,297.632,37.24,304.262,36.115,306.951Z" fill="#664b1a"/></g><path d="M36.338,304.222c-1.126,2.689-5.666,7.5-12.565,3.459L8.354,299.846c-4.99-2.258-2.4-8.161-2.4-8.161s2.383-5.99,7.517-4.078l16.479,5.3C37.71,294.9,37.463,301.532,36.338,304.222Z" fill="#3eaf85"/><path d="M35.046,303.686c-1.03,2.46-5.183,6.864-11.5,3.164L9.444,299.682c-4.565-2.066-2.193-7.467-2.193-7.467s2.18-5.479,6.877-3.73L29.2,293.337C36.3,295.16,36.075,301.225,35.046,303.686Z" fill="#55b694"/><path d="M21.251,303.442a.7.7,0,0,0,.294.869c.177.1,4.369,2.5,7.731,1.381a5.156,5.156,0,0,0,3.159-3.089,5.212,5.212,0,0,0-.011-4.435c-1.547-3.2-6.168-4.56-6.364-4.616a.7.7,0,1,0-.387,1.339c.042.012,4.219,1.243,5.491,3.883a3.828,3.828,0,0,1-.021,3.293,3.765,3.765,0,0,1-2.312,2.3c-2.766.925-6.543-1.241-6.581-1.263a.7.7,0,0,0-.957.25A.747.747,0,0,0,21.251,303.442Z" fill="#fff"/><path d="M29.427,301.355h0a1.039,1.039,0,0,0,.561,1.356l2.592,1.662c.529.219,1.351-.532,1.571-1.058h0c.221-.527.177-1.637-.351-1.856l-3.011-.663A1.047,1.047,0,0,0,29.427,301.355Z" fill="#f8ac00"/><path d="M20.791,292.208,16.9,301.681a.456.456,0,0,0,.25.594h0a.46.46,0,0,0,.6-.249l3.891-9.472a.456.456,0,0,0-.25-.595h0A.459.459,0,0,0,20.791,292.208Z" fill="#3eaf85"/><path d="M17.9,291.172l-3.892,9.472a.457.457,0,0,0,.251.594h0a.458.458,0,0,0,.6-.249l3.892-9.472a.457.457,0,0,0-.25-.594h0A.46.46,0,0,0,17.9,291.172Z" fill="#3eaf85"/><path d="M15.1,290l-3.891,9.472a.456.456,0,0,0,.25.594h0a.46.46,0,0,0,.6-.249l3.891-9.472a.455.455,0,0,0-.25-.594h0A.46.46,0,0,0,15.1,290Z" fill="#3eaf85"/><path d="M12.38,288.717l-3.892,9.472a.458.458,0,0,0,.251.6h0a.458.458,0,0,0,.6-.249l3.892-9.473a.456.456,0,0,0-.25-.594h0A.459.459,0,0,0,12.38,288.717Z" fill="#3eaf85"/><path d="M2.9,315.947l8.188-6.184a.46.46,0,0,1,.641.087h0a.456.456,0,0,1-.088.639l-8.188,6.184a.46.46,0,0,1-.641-.088h0A.455.455,0,0,1,2.9,315.947Z" fill="#3eaf85"/><path d="M1.15,313.43l8.188-6.184a.46.46,0,0,1,.641.088h0a.455.455,0,0,1-.088.638L1.7,314.157a.461.461,0,0,1-.641-.088h0A.457.457,0,0,1,1.15,313.43Z" fill="#3eaf85"/><path d="M-.71,311.043l8.188-6.184a.46.46,0,0,1,.641.087h0a.456.456,0,0,1-.088.639l-8.188,6.184a.46.46,0,0,1-.641-.088h0A.456.456,0,0,1-.71,311.043Z" fill="#3eaf85"/><path d="M-2.652,308.752l8.188-6.184a.46.46,0,0,1,.641.088h0a.456.456,0,0,1-.088.638L-2.1,309.479a.461.461,0,0,1-.641-.088h0A.456.456,0,0,1-2.652,308.752Z" fill="#3eaf85"/></g><g transform="translate(523.83 -250.364)"><path d="M268.843,289.392a2.01,2.01,0,0,0-2.221-.119l-3.917,1.653a4.4,4.4,0,0,1-1.635.3,5.3,5.3,0,0,1-2.744-.667l-3.583-2.271a2.008,2.008,0,0,0-2.206-.248h0a2,2,0,0,0-.8,2.066l.369,4.215a5.34,5.34,0,0,1-1.7,4.035l-3.281,2.7a1.992,1.992,0,0,0-.916,2.015c.093.395.442,1.1,1.726,1.4l4.137.95a5.374,5.374,0,0,1,3.333,2.857l1.561,3.938c.482,1.221,1.234,1.46,1.639,1.493a2,2,0,0,0,1.867-1.2l2.19-3.628a4.317,4.317,0,0,1,1.063-1.139,5.28,5.28,0,0,1,2.694-1.132l4.243-.262a2.745,2.745,0,0,0,1.272-.352,1.587,1.587,0,0,0,.658-.738,1.991,1.991,0,0,0-.57-2.141l-2.788-3.2a5.342,5.342,0,0,1-1.011-4.26l1.064-4.1A1.989,1.989,0,0,0,268.843,289.392Z" fill="#664b1a" opacity="0.3"/><path d="M271.016,286.93a2.011,2.011,0,0,0-2.222-.119l-3.917,1.652a4.375,4.375,0,0,1-1.634.306,5.3,5.3,0,0,1-2.744-.667l-3.584-2.271a2.009,2.009,0,0,0-2.206-.249h0a2,2,0,0,0-.8,2.066l.369,4.215a5.347,5.347,0,0,1-1.7,4.035l-3.281,2.7a1.988,1.988,0,0,0-.916,2.015c.093.395.442,1.1,1.725,1.4l4.138.95a5.379,5.379,0,0,1,3.333,2.857l1.561,3.938c.482,1.221,1.233,1.459,1.639,1.493a2,2,0,0,0,1.866-1.2l2.19-3.628a4.322,4.322,0,0,1,1.064-1.139,5.277,5.277,0,0,1,2.693-1.132l4.244-.262a2.736,2.736,0,0,0,1.271-.352,1.581,1.581,0,0,0,.658-.738,1.991,1.991,0,0,0-.57-2.142l-2.788-3.2a5.347,5.347,0,0,1-1.011-4.26l1.064-4.1A1.989,1.989,0,0,0,271.016,286.93Z" fill="#e86032"/><path d="M250.107,302.008l4.138.95a5.379,5.379,0,0,1,3.333,2.857l1.561,3.938c.482,1.221,1.233,1.459,1.639,1.493a2,2,0,0,0,1.866-1.2l2.19-3.628a4.322,4.322,0,0,1,1.064-1.139,5.277,5.277,0,0,1,2.693-1.132l4.244-.262a2.736,2.736,0,0,0,1.271-.352,1.586,1.586,0,0,0,.658-.738,1.991,1.991,0,0,0-.57-2.142l-2.788-3.2a5.347,5.347,0,0,1-1.011-4.26l1.064-4.1a2.008,2.008,0,0,0-.4-2.125l-9.246,10.269-13.433,3.368C248.475,301.007,248.824,301.713,250.107,302.008Z" fill="#e14024"/><path d="M263.123,296.454a1.528,1.528,0,1,1-2.1-.509A1.521,1.521,0,0,1,263.123,296.454Z" fill="#fff"/><path d="M260.767,293.772a.913.913,0,1,1-1.256-.3A.909.909,0,0,1,260.767,293.772Z" fill="#fff"/><path d="M259.306,291.376a.913.913,0,1,1-1.258-.309A.919.919,0,0,1,259.306,291.376Z" fill="#fff"/><path d="M257.846,288.98a.913.913,0,1,1-1.259-.31A.921.921,0,0,1,257.846,288.98Z" fill="#fff"/><path d="M258.175,297.161a.914.914,0,1,1-.682,1.1A.914.914,0,0,1,258.175,297.161Z" fill="#fff"/><path d="M255.437,297.8a.912.912,0,1,1-.685,1.1A.918.918,0,0,1,255.437,297.8Z" fill="#fff"/><path d="M252.692,298.448a.912.912,0,1,1-.681,1.1A.915.915,0,0,1,252.692,298.448Z" fill="#fff"/><path d="M260.612,300.668a.914.914,0,1,1,.835.985A.915.915,0,0,1,260.612,300.668Z" fill="#fff"/><path d="M260.378,303.462a.915.915,0,1,1,1.823.15.915.915,0,0,1-1.823-.15Z" fill="#fff"/><path d="M260.144,306.257a.917.917,0,1,1,.839.983A.916.916,0,0,1,260.144,306.257Z" fill="#fff"/><path d="M264.714,299.44a.908.908,0,0,1-.493-1.193.918.918,0,0,1,1.2-.487.911.911,0,1,1-.707,1.68Z" fill="#fff"/><path d="M267.308,300.525a.911.911,0,1,1,1.2-.487A.909.909,0,0,1,267.308,300.525Z" fill="#fff"/><path d="M269.907,301.611a.912.912,0,1,1,1.2-.49A.914.914,0,0,1,269.907,301.611Z" fill="#fff"/><path d="M264.811,295.181a.92.92,0,0,1-1.293.1.91.91,0,0,1-.1-1.287.915.915,0,0,1,1.389,1.192Z" fill="#fff"/><path d="M266.643,293.055a.913.913,0,1,1-.09-1.286A.913.913,0,0,1,266.643,293.055Z" fill="#fff"/><path d="M268.481,290.93a.913.913,0,1,1-.093-1.284A.907.907,0,0,1,268.481,290.93Z" fill="#fff"/></g><g transform="translate(93.83 -231.364)"><path d="M268.843,289.392a2.01,2.01,0,0,0-2.221-.119l-3.917,1.653a4.4,4.4,0,0,1-1.635.3,5.3,5.3,0,0,1-2.744-.667l-3.583-2.271a2.008,2.008,0,0,0-2.206-.248h0a2,2,0,0,0-.8,2.066l.369,4.215a5.34,5.34,0,0,1-1.7,4.035l-3.281,2.7a1.992,1.992,0,0,0-.916,2.015c.093.395.442,1.1,1.726,1.4l4.137.95a5.374,5.374,0,0,1,3.333,2.857l1.561,3.938c.482,1.221,1.234,1.46,1.639,1.493a2,2,0,0,0,1.867-1.2l2.19-3.628a4.317,4.317,0,0,1,1.063-1.139,5.28,5.28,0,0,1,2.694-1.132l4.243-.262a2.745,2.745,0,0,0,1.272-.352,1.587,1.587,0,0,0,.658-.738,1.991,1.991,0,0,0-.57-2.141l-2.788-3.2a5.342,5.342,0,0,1-1.011-4.26l1.064-4.1A1.989,1.989,0,0,0,268.843,289.392Z" fill="#664b1a" opacity="0.3"/><path d="M271.016,286.93a2.011,2.011,0,0,0-2.222-.119l-3.917,1.652a4.375,4.375,0,0,1-1.634.306,5.3,5.3,0,0,1-2.744-.667l-3.584-2.271a2.009,2.009,0,0,0-2.206-.249h0a2,2,0,0,0-.8,2.066l.369,4.215a5.347,5.347,0,0,1-1.7,4.035l-3.281,2.7a1.988,1.988,0,0,0-.916,2.015c.093.395.442,1.1,1.725,1.4l4.138.95a5.379,5.379,0,0,1,3.333,2.857l1.561,3.938c.482,1.221,1.233,1.459,1.639,1.493a2,2,0,0,0,1.866-1.2l2.19-3.628a4.322,4.322,0,0,1,1.064-1.139,5.277,5.277,0,0,1,2.693-1.132l4.244-.262a2.736,2.736,0,0,0,1.271-.352,1.581,1.581,0,0,0,.658-.738,1.991,1.991,0,0,0-.57-2.142l-2.788-3.2a5.347,5.347,0,0,1-1.011-4.26l1.064-4.1A1.989,1.989,0,0,0,271.016,286.93Z" fill="#e86032"/><path d="M250.107,302.008l4.138.95a5.379,5.379,0,0,1,3.333,2.857l1.561,3.938c.482,1.221,1.233,1.459,1.639,1.493a2,2,0,0,0,1.866-1.2l2.19-3.628a4.322,4.322,0,0,1,1.064-1.139,5.277,5.277,0,0,1,2.693-1.132l4.244-.262a2.736,2.736,0,0,0,1.271-.352,1.586,1.586,0,0,0,.658-.738,1.991,1.991,0,0,0-.57-2.142l-2.788-3.2a5.347,5.347,0,0,1-1.011-4.26l1.064-4.1a2.008,2.008,0,0,0-.4-2.125l-9.246,10.269-13.433,3.368C248.475,301.007,248.824,301.713,250.107,302.008Z" fill="#e14024"/><path d="M263.123,296.454a1.528,1.528,0,1,1-2.1-.509A1.521,1.521,0,0,1,263.123,296.454Z" fill="#fff"/><path d="M260.767,293.772a.913.913,0,1,1-1.256-.3A.909.909,0,0,1,260.767,293.772Z" fill="#fff"/><path d="M259.306,291.376a.913.913,0,1,1-1.258-.309A.919.919,0,0,1,259.306,291.376Z" fill="#fff"/><path d="M257.846,288.98a.913.913,0,1,1-1.259-.31A.921.921,0,0,1,257.846,288.98Z" fill="#fff"/><path d="M258.175,297.161a.914.914,0,1,1-.682,1.1A.914.914,0,0,1,258.175,297.161Z" fill="#fff"/><path d="M255.437,297.8a.912.912,0,1,1-.685,1.1A.918.918,0,0,1,255.437,297.8Z" fill="#fff"/><path d="M252.692,298.448a.912.912,0,1,1-.681,1.1A.915.915,0,0,1,252.692,298.448Z" fill="#fff"/><path d="M260.612,300.668a.914.914,0,1,1,.835.985A.915.915,0,0,1,260.612,300.668Z" fill="#fff"/><path d="M260.378,303.462a.915.915,0,1,1,1.823.15.915.915,0,0,1-1.823-.15Z" fill="#fff"/><path d="M260.144,306.257a.917.917,0,1,1,.839.983A.916.916,0,0,1,260.144,306.257Z" fill="#fff"/><path d="M264.714,299.44a.908.908,0,0,1-.493-1.193.918.918,0,0,1,1.2-.487.911.911,0,1,1-.707,1.68Z" fill="#fff"/><path d="M267.308,300.525a.911.911,0,1,1,1.2-.487A.909.909,0,0,1,267.308,300.525Z" fill="#fff"/><path d="M269.907,301.611a.912.912,0,1,1,1.2-.49A.914.914,0,0,1,269.907,301.611Z" fill="#fff"/><path d="M264.811,295.181a.92.92,0,0,1-1.293.1.91.91,0,0,1-.1-1.287.915.915,0,0,1,1.389,1.192Z" fill="#fff"/><path d="M266.643,293.055a.913.913,0,1,1-.09-1.286A.913.913,0,0,1,266.643,293.055Z" fill="#fff"/><path d="M268.481,290.93a.913.913,0,1,1-.093-1.284A.907.907,0,0,1,268.481,290.93Z" fill="#fff"/></g><g transform="translate(578.671 -287.827)"><path d="M25.6,346a.593.593,0,0,0,.047-.662l-.478-1.178a1.282,1.282,0,0,1-.084-.489,1.552,1.552,0,0,1,.214-.815L26,341.8a.594.594,0,0,0,.085-.657h0a.605.605,0,0,0-.618-.249l-1.27.09a1.614,1.614,0,0,1-1.206-.525l-.8-.992a.6.6,0,0,0-.6-.284c-.119.026-.333.127-.428.508l-.305,1.231a1.615,1.615,0,0,1-.876.981l-1.193.447c-.369.138-.445.361-.457.482a.6.6,0,0,0,.353.562l1.081.672a1.3,1.3,0,0,1,.338.322,1.57,1.57,0,0,1,.327.81l.059,1.267a.816.816,0,0,0,.1.381.48.48,0,0,0,.22.2.607.607,0,0,0,.647-.16l.975-.817a1.615,1.615,0,0,1,1.286-.281l1.227.337A.6.6,0,0,0,25.6,346Z" fill="#664b1a" opacity="0.3"/><path d="M26.037,345.186a.552.552,0,0,0,.043-.616l-.445-1.1a1.221,1.221,0,0,1-.078-.456,1.462,1.462,0,0,1,.2-.759l.652-.986a.556.556,0,0,0,.08-.612h0a.56.56,0,0,0-.575-.232l-1.182.084a1.5,1.5,0,0,1-1.123-.49l-.741-.923a.561.561,0,0,0-.561-.264c-.111.024-.31.118-.4.473l-.285,1.146a1.5,1.5,0,0,1-.816.913l-1.11.416c-.344.129-.414.336-.425.449a.555.555,0,0,0,.328.524l1.007.625a1.218,1.218,0,0,1,.314.3,1.457,1.457,0,0,1,.305.754l.055,1.18a.762.762,0,0,0,.092.355.455.455,0,0,0,.2.186.56.56,0,0,0,.6-.149l.908-.76a1.5,1.5,0,0,1,1.2-.262l1.142.314A.558.558,0,0,0,26.037,345.186Z" fill="#ffe85a"/></g><g transform="translate(104.274 -28.356) rotate(-31)"><path d="M288.358,191.853l-2.9-.582a1.213,1.213,0,0,0-1.431.947l-1.062,5.24a1.211,1.211,0,0,0,.953,1.426l.05.01-2.544,12.569-.735-.148.173-.854a4.293,4.293,0,0,0-3.644-4.832l-27.266-5.476a4.311,4.311,0,0,0-5.239,3.048L243.4,209.7a3.6,3.6,0,0,0-.053.367c-.045.166-.09.34-.127.527a9.442,9.442,0,0,0,7.41,11.108,9.255,9.255,0,0,0,9.994-4.173,9.221,9.221,0,0,0,7.591,7.705,9.475,9.475,0,0,0,11.088-7.12l.748.15-.737,3.64c-.77,3.8-2.3,6.38-4.539,7.663a8.085,8.085,0,0,1-5.119.847,2.017,2.017,0,0,0-1.316-.915l-7.275-1.461a4.311,4.311,0,1,0-.8,3.955l7.275,1.461a2.021,2.021,0,0,0,1.489-.28,10.918,10.918,0,0,0,7.123-1.137c3-1.7,5-4.922,5.942-9.574l.737-3.641,1.092.219,1.377-6.8-1.093-.219,2.545-12.569.068.014a1.216,1.216,0,0,0,1.432-.948l1.06-5.239A1.21,1.21,0,0,0,288.358,191.853Z" fill="#664b1a" opacity="0.3"/><path d="M269.962,230.83a9.421,9.421,0,0,1-1-.253l-10.914-2.191a1.412,1.412,0,1,1,.56-2.768l11,2.208a1.34,1.34,0,0,1,.188.052,8.593,8.593,0,0,0,6.366-.577c2.242-1.284,3.769-3.862,4.539-7.663l5.7-28.157a1.418,1.418,0,0,1,2.78.558l-5.7,28.157c-.942,4.653-2.94,7.874-5.942,9.574A11.089,11.089,0,0,1,269.962,230.83Z" fill="#6c3427"/><path d="M288.067,190.376a1.619,1.619,0,0,0-.2-.019,1.385,1.385,0,0,1-.027.292l-5.7,28.155c-.943,4.653-2.511,8.114-5.513,9.815-2.917,1.653-6.408,1.14-8,.82a10.081,10.081,0,0,1-1-.252l-10.714-2.152a1.413,1.413,0,0,0,1.135,1.351l10.914,2.191a9.421,9.421,0,0,0,1,.253,11.089,11.089,0,0,0,7.572-1.06c3-1.7,5-4.921,5.942-9.574l5.7-28.157A1.412,1.412,0,0,0,288.067,190.376Z" fill="#4b221c"/><path d="M268.923,231.188l-11-2.209a2.018,2.018,0,1,1,.8-3.955l11,2.208a2.018,2.018,0,1,1-.8,3.956Z" fill="#88b32a"/><path d="M257.927,228.979l11,2.209a2.025,2.025,0,0,0,2.385-1.579L256.342,226.6A2.017,2.017,0,0,0,257.927,228.979Z" fill="#6a852b"/><path d="M262.564,227.853a4.321,4.321,0,1,1-3.383-5.07A4.323,4.323,0,0,1,262.564,227.853Z" fill="#c82e1b"/><path d="M261.3,227.6a3.035,3.035,0,1,1-2.375-3.561A3.034,3.034,0,0,1,261.3,227.6Z" fill="#e93618"/><path d="M289.634,196.256a1.216,1.216,0,0,1-1.432.947l-2.9-.582a1.21,1.21,0,0,1-.952-1.426l1.062-5.239a1.213,1.213,0,0,1,1.431-.948l2.9.582a1.211,1.211,0,0,1,.951,1.426Z" fill="#88b32a"/><path d="M289.744,189.59l-1.649-.331-1.541,7.613,1.648.331a1.216,1.216,0,0,0,1.432-.947l1.061-5.24A1.211,1.211,0,0,0,289.744,189.59Z" fill="#6a852b"/><path d="M285.305,216.775l-5.339-1.072,1.376-6.8,5.34,1.072Z" fill="#e93618"/><path d="M285.305,216.775l-2.67-.536,1.376-6.8,2.67.536Z" fill="#c82e1b"/><path d="M269.6,222.967a9.222,9.222,0,0,1-7.592-7.705,9.256,9.256,0,0,1-9.993,4.174,9.443,9.443,0,0,1-7.411-11.109c.038-.187.082-.361.127-.526a3.521,3.521,0,0,1,.054-.367l1.315-6.5a4.31,4.31,0,0,1,5.239-3.048l27.267,5.475a4.294,4.294,0,0,1,3.644,4.832l-1.315,6.495a3.5,3.5,0,0,1-.093.358c-.023.167-.05.348-.088.536A9.479,9.479,0,0,1,269.6,222.967Z" fill="#3672b8"/><path d="M278.991,214.618a1.64,1.64,0,0,0,.092-.3l1.315-6.5a2.427,2.427,0,0,0-2.166-2.618l-27.267-5.475a2.436,2.436,0,0,0-3.016,1.577l-1.315,6.494a1.7,1.7,0,0,0-.031.309c-.056.192-.109.386-.149.585a7.551,7.551,0,0,0,5.933,8.894,7.267,7.267,0,0,0,8.684-4.867,1.424,1.424,0,0,1,2.789.56,7.24,7.24,0,0,0,6.112,7.838,7.581,7.581,0,0,0,8.93-5.909C278.943,215.016,278.968,214.817,278.991,214.618Z" fill="#004b96"/><path d="M277.911,214.592a1.473,1.473,0,0,0,.084-.269l1.2-5.9a2.251,2.251,0,0,0-2.037-2.393L251.642,200.9a2.262,2.262,0,0,0-2.811,1.419l-1.195,5.9a1.487,1.487,0,0,0-.027.281c-.051.175-.1.35-.137.532a6.967,6.967,0,0,0,5.591,8.124c3.625.728,7.074-1.023,8.091-4.385a1.334,1.334,0,0,1,2.609.525c-.37,3.49,2.128,6.436,5.752,7.164a7,7,0,0,0,8.316-5.332C277.867,214.954,277.891,214.773,277.911,214.592Z" fill="#2bb1ba"/><path d="M250.372,216.024l11.082-13.151-6.894-1.384-7.041,10.4a6.819,6.819,0,0,0,.456,1.312l2.428-2.527-1.609,3.864A7.151,7.151,0,0,0,250.372,216.024Z" fill="#c8e9f0" opacity="0.25"/><path d="M265.588,203.7l-9.69,13.522a7.191,7.191,0,0,0,1.561-.431l3.68-3.975c0-.013.01-.027.015-.041a1.284,1.284,0,0,1,.881-.926l6.919-7.473Z" fill="#c8e9f0" opacity="0.25"/><path d="M277.152,206.026l-2.68-.539-8.291,13.45a7.249,7.249,0,0,0,1.081.714l7.293-9.208-5.065,10.018.025.006c.09.018.18.026.269.041l9.279-13.1A2.635,2.635,0,0,0,277.152,206.026Z" fill="#c8e9f0" opacity="0.25"/></g><g transform="translate(1566.966 -338.793)"><path d="M140.159,399.741a11.827,11.827,0,0,0-4.106-1.046,13.183,13.183,0,0,0,.5-6.511c-.175-.687.736-1.52.736-1.52A1.735,1.735,0,0,0,138,388.7a1.782,1.782,0,0,0-1.571-1.388v0a41.512,41.512,0,0,0-9.2.909,27.742,27.742,0,0,0-6.844,3.266,11.139,11.139,0,0,1-2.623,1.159c-2.6.658-6.455-.389-10.438.621a41.472,41.472,0,0,0-8.513,3.581v0a1.774,1.774,0,0,0-.715,1.967,1.743,1.743,0,0,0,1.572,1.387s1.2.3,1.376.985a13.123,13.123,0,0,0,3.639,5.554,11.15,11.15,0,0,0-2.9,2.729c-1.62,2.775,4.144,4.739,4.021,3.088-.119-1.589,1.036-3.466,1.641-4.332a6.985,6.985,0,0,0,3.609-.013c5.815-1.474,4.835-6.355,6.866-8.439a2.976,2.976,0,0,1,1.451-.821c4.062-1.03,4.886,5.913,11.753,4.172a6.884,6.884,0,0,0,3.3-1.852c.874.421,2.976,1.56,3.673,3.1C138.794,405.876,142.914,401.407,140.159,399.741Z" fill="#664b1a" opacity="0.3"/><path d="M136.616,397.145a13.357,13.357,0,0,1,4.545,1.086c2.755,1.666-1.364,6.135-2.048,4.627-.888-1.959-4.066-3.277-4.066-3.277Z" fill="#920c23"/><path d="M106.267,404.838a13.316,13.316,0,0,0-3.471,3.119c-1.62,2.775,4.144,4.739,4.02,3.088-.16-2.143,2-4.814,2-4.814Z" fill="#920c23"/><path d="M137.434,385.8v0a41.484,41.484,0,0,0-9.2.908,27.706,27.706,0,0,0-6.844,3.267,52.769,52.769,0,0,0-2.46,8.29,2.985,2.985,0,0,1,1.451-.821c4.062-1.03,4.887,5.913,11.753,4.172s5.6-10.251,5.42-10.938.735-1.52.735-1.52a1.735,1.735,0,0,0,.715-1.967A1.784,1.784,0,0,0,137.434,385.8Z" fill="#d02f3f"/><path d="M118.77,391.129c-2.6.658-6.455-.389-10.438.621a41.465,41.465,0,0,0-8.514,3.581v0A1.776,1.776,0,0,0,99.1,397.3a1.745,1.745,0,0,0,1.572,1.388s1.2.3,1.376.985,3.15,8.765,10.014,7.025c5.816-1.474,4.835-6.355,6.866-8.439a52.769,52.769,0,0,1,2.46-8.29A11.167,11.167,0,0,1,118.77,391.129Z" fill="#d02f3f"/><path d="M130.795,388.411a12.474,12.474,0,0,0-2.349.351c-4.875,1.236-6.334,3.875-6.168,4.524.129.507,2.368,5.5,6.035,6.945a5.323,5.323,0,0,0,3.321.215c5.606-1.421,4.756-8.24,4.273-10.13C135.542,388.888,133.242,388.281,130.795,388.411Z" fill="#1d1315"/><g opacity="0.1"><path d="M122.278,393.286c.129.507,2.368,5.5,6.035,6.945a50.188,50.188,0,0,1,2.482-11.82,12.474,12.474,0,0,0-2.349.351C123.571,390,122.112,392.637,122.278,393.286Z" fill="#fff"/></g><path d="M111.767,393.229a14.493,14.493,0,0,0-2.629.428c-3.114.79-6.289,3.032-5.807,4.918.4,1.553,2.176,6.15,5.913,6.945a5.879,5.879,0,0,0,2.7-.083c5.6-1.421,4.943-10.1,4.778-10.743C116.592,394.172,114.93,393.029,111.767,393.229Z" fill="#1d1315"/><g opacity="0.1"><path d="M103.331,398.575c.4,1.553,2.176,6.15,5.913,6.945a50.468,50.468,0,0,1,2.523-12.291,14.493,14.493,0,0,0-2.629.428C106.024,394.447,102.849,396.689,103.331,398.575Z" fill="#fff"/></g><path d="M106.564,398.594c.276,1.08-.027,2.088-.677,2.253s-1.4-.577-1.677-1.656.028-2.087.678-2.252S106.289,397.515,106.564,398.594Z" fill="#fff"/><path d="M107.2,402.032a.609.609,0,1,1-.76-.566A.676.676,0,0,1,107.2,402.032Z" fill="#fff"/><path d="M126.6,393.516c.276,1.079-.027,2.088-.677,2.252s-1.4-.576-1.677-1.655.028-2.088.678-2.252S126.32,392.437,126.6,393.516Z" fill="#fff"/><path d="M127.235,396.954a.609.609,0,1,1-.76-.566A.677.677,0,0,1,127.235,396.954Z" fill="#fff"/></g><g transform="translate(1419.533 2.106)"><path d="M15.658,55.074c0,1.378-1.834,2.495-4.1,2.495s-4.1-1.117-4.1-2.495,1.834-2.5,4.1-2.5S15.658,53.695,15.658,55.074Z" fill="#f0aa09"/><path d="M19.551,62.4c0,.827,1.679,1.5,3.751,1.5s3.752-.67,3.752-1.5-1.68-1.5-3.752-1.5S19.551,61.568,19.551,62.4Z" fill="#f0aa09"/><path d="M41.416,72.211c0,1.1,1.407,2,3.142,2s3.143-.894,3.143-2-1.407-2-3.143-2S41.416,71.109,41.416,72.211Z" fill="#f0aa09"/><path d="M43.788,60.814a2,2,0,1,0,1.956-1.581A1.8,1.8,0,0,0,43.788,60.814Z" fill="#f0aa09"/><path d="M63.071,56.322a1.34,1.34,0,1,0,1.336-1.248A1.294,1.294,0,0,0,63.071,56.322Z" fill="#f0aa09"/><path d="M86.716,57.153a1.993,1.993,0,1,0,1.991-2.079A2.037,2.037,0,0,0,86.716,57.153Z" fill="#f0aa09"/><path d="M78.775,53.342c0,.423.653.765,1.458.765s1.457-.342,1.457-.765-.653-.764-1.457-.764S78.775,52.92,78.775,53.342Z" fill="#f0aa09"/><path d="M101.941,51.236c0,.741,1.723,1.342,3.849,1.342s3.849-.6,3.849-1.342-1.724-1.342-3.849-1.342S101.941,50.495,101.941,51.236Z" fill="#f0aa09"/><path d="M125.889,60.814c0,.873,1.764,1.581,3.94,1.581s3.94-.708,3.94-1.581-1.764-1.581-3.94-1.581S125.889,59.941,125.889,60.814Z" fill="#f0aa09"/><path d="M167.322,62.4c0,.827,1.346,1.5,3.007,1.5s3.008-.67,3.008-1.5-1.347-1.5-3.008-1.5S167.322,61.568,167.322,62.4Z" fill="#f0aa09"/><ellipse cx="3.341" cy="0.832" rx="3.341" ry="0.832" transform="translate(152.286 57.569)" fill="#f0aa09"/><path d="M184.363,52.672c0,.792,2.278,1.435,5.087,1.435s5.088-.643,5.088-1.435-2.278-1.436-5.088-1.436S184.363,51.879,184.363,52.672Z" fill="#f0aa09"/></g><g transform="translate(1214.533 2.106)"><path d="M15.658,55.074c0,1.378-1.834,2.495-4.1,2.495s-4.1-1.117-4.1-2.495,1.834-2.5,4.1-2.5S15.658,53.695,15.658,55.074Z" fill="#f0aa09"/><path d="M19.551,62.4c0,.827,1.679,1.5,3.751,1.5s3.752-.67,3.752-1.5-1.68-1.5-3.752-1.5S19.551,61.568,19.551,62.4Z" fill="#f0aa09"/><path d="M41.416,72.211c0,1.1,1.407,2,3.142,2s3.143-.894,3.143-2-1.407-2-3.143-2S41.416,71.109,41.416,72.211Z" fill="#f0aa09"/><path d="M43.788,60.814a2,2,0,1,0,1.956-1.581A1.8,1.8,0,0,0,43.788,60.814Z" fill="#f0aa09"/><path d="M63.071,56.322a1.34,1.34,0,1,0,1.336-1.248A1.294,1.294,0,0,0,63.071,56.322Z" fill="#f0aa09"/><path d="M86.716,57.153a1.993,1.993,0,1,0,1.991-2.079A2.037,2.037,0,0,0,86.716,57.153Z" fill="#f0aa09"/><path d="M78.775,53.342c0,.423.653.765,1.458.765s1.457-.342,1.457-.765-.653-.764-1.457-.764S78.775,52.92,78.775,53.342Z" fill="#f0aa09"/><path d="M101.941,51.236c0,.741,1.723,1.342,3.849,1.342s3.849-.6,3.849-1.342-1.724-1.342-3.849-1.342S101.941,50.495,101.941,51.236Z" fill="#f0aa09"/><path d="M125.889,60.814c0,.873,1.764,1.581,3.94,1.581s3.94-.708,3.94-1.581-1.764-1.581-3.94-1.581S125.889,59.941,125.889,60.814Z" fill="#f0aa09"/><path d="M167.322,62.4c0,.827,1.346,1.5,3.007,1.5s3.008-.67,3.008-1.5-1.347-1.5-3.008-1.5S167.322,61.568,167.322,62.4Z" fill="#f0aa09"/><ellipse cx="3.341" cy="0.832" rx="3.341" ry="0.832" transform="translate(152.286 57.569)" fill="#f0aa09"/><path d="M184.363,52.672c0,.792,2.278,1.435,5.087,1.435s5.088-.643,5.088-1.435-2.278-1.436-5.088-1.436S184.363,51.879,184.363,52.672Z" fill="#f0aa09"/></g><g transform="translate(1016.533 2.106)"><path d="M15.658,55.074c0,1.378-1.834,2.495-4.1,2.495s-4.1-1.117-4.1-2.495,1.834-2.5,4.1-2.5S15.658,53.695,15.658,55.074Z" fill="#f0aa09"/><path d="M19.551,62.4c0,.827,1.679,1.5,3.751,1.5s3.752-.67,3.752-1.5-1.68-1.5-3.752-1.5S19.551,61.568,19.551,62.4Z" fill="#f0aa09"/><path d="M41.416,72.211c0,1.1,1.407,2,3.142,2s3.143-.894,3.143-2-1.407-2-3.143-2S41.416,71.109,41.416,72.211Z" fill="#f0aa09"/><path d="M43.788,60.814a2,2,0,1,0,1.956-1.581A1.8,1.8,0,0,0,43.788,60.814Z" fill="#f0aa09"/><path d="M63.071,56.322a1.34,1.34,0,1,0,1.336-1.248A1.294,1.294,0,0,0,63.071,56.322Z" fill="#f0aa09"/><path d="M86.716,57.153a1.993,1.993,0,1,0,1.991-2.079A2.037,2.037,0,0,0,86.716,57.153Z" fill="#f0aa09"/><path d="M78.775,53.342c0,.423.653.765,1.458.765s1.457-.342,1.457-.765-.653-.764-1.457-.764S78.775,52.92,78.775,53.342Z" fill="#f0aa09"/><path d="M101.941,51.236c0,.741,1.723,1.342,3.849,1.342s3.849-.6,3.849-1.342-1.724-1.342-3.849-1.342S101.941,50.495,101.941,51.236Z" fill="#f0aa09"/><path d="M125.889,60.814c0,.873,1.764,1.581,3.94,1.581s3.94-.708,3.94-1.581-1.764-1.581-3.94-1.581S125.889,59.941,125.889,60.814Z" fill="#f0aa09"/><path d="M167.322,62.4c0,.827,1.346,1.5,3.007,1.5s3.008-.67,3.008-1.5-1.347-1.5-3.008-1.5S167.322,61.568,167.322,62.4Z" fill="#f0aa09"/><ellipse cx="3.341" cy="0.832" rx="3.341" ry="0.832" transform="translate(152.286 57.569)" fill="#f0aa09"/><path d="M184.363,52.672c0,.792,2.278,1.435,5.087,1.435s5.088-.643,5.088-1.435-2.278-1.436-5.088-1.436S184.363,51.879,184.363,52.672Z" fill="#f0aa09"/></g><g transform="translate(818.533 2.106)"><path d="M15.658,55.074c0,1.378-1.834,2.495-4.1,2.495s-4.1-1.117-4.1-2.495,1.834-2.5,4.1-2.5S15.658,53.695,15.658,55.074Z" fill="#f0aa09"/><path d="M19.551,62.4c0,.827,1.679,1.5,3.751,1.5s3.752-.67,3.752-1.5-1.68-1.5-3.752-1.5S19.551,61.568,19.551,62.4Z" fill="#f0aa09"/><path d="M41.416,72.211c0,1.1,1.407,2,3.142,2s3.143-.894,3.143-2-1.407-2-3.143-2S41.416,71.109,41.416,72.211Z" fill="#f0aa09"/><path d="M43.788,60.814a2,2,0,1,0,1.956-1.581A1.8,1.8,0,0,0,43.788,60.814Z" fill="#f0aa09"/><path d="M63.071,56.322a1.34,1.34,0,1,0,1.336-1.248A1.294,1.294,0,0,0,63.071,56.322Z" fill="#f0aa09"/><path d="M86.716,57.153a1.993,1.993,0,1,0,1.991-2.079A2.037,2.037,0,0,0,86.716,57.153Z" fill="#f0aa09"/><path d="M78.775,53.342c0,.423.653.765,1.458.765s1.457-.342,1.457-.765-.653-.764-1.457-.764S78.775,52.92,78.775,53.342Z" fill="#f0aa09"/><path d="M101.941,51.236c0,.741,1.723,1.342,3.849,1.342s3.849-.6,3.849-1.342-1.724-1.342-3.849-1.342S101.941,50.495,101.941,51.236Z" fill="#f0aa09"/><path d="M125.889,60.814c0,.873,1.764,1.581,3.94,1.581s3.94-.708,3.94-1.581-1.764-1.581-3.94-1.581S125.889,59.941,125.889,60.814Z" fill="#f0aa09"/><path d="M167.322,62.4c0,.827,1.346,1.5,3.007,1.5s3.008-.67,3.008-1.5-1.347-1.5-3.008-1.5S167.322,61.568,167.322,62.4Z" fill="#f0aa09"/><ellipse cx="3.341" cy="0.832" rx="3.341" ry="0.832" transform="translate(152.286 57.569)" fill="#f0aa09"/><path d="M184.363,52.672c0,.792,2.278,1.435,5.087,1.435s5.088-.643,5.088-1.435-2.278-1.436-5.088-1.436S184.363,51.879,184.363,52.672Z" fill="#f0aa09"/></g></g><text transform="translate(1032 27)" fill="#fff" font-size="23" font-family="Dana-Medium, Dana" font-weight="500"><tspan x="-136.252" y="0"> </tspan></text></svg>