<svg xmlns="http://www.w3.org/2000/svg" width="79.827" height="79.829" viewBox="0 0 79.827 79.829">
  <g id="buttons" transform="translate(-0.501 0.001)">
    <path id="Path_1786" data-name="Path 1786" d="M304.011,84.816a3.567,3.567,0,0,0-1.508.927,51.552,51.552,0,0,0-12.556,21.748,3.559,3.559,0,0,0,.166,2.421,51.553,51.553,0,0,0,22.291-.624,3.574,3.574,0,0,0,2.568-4.447,51.559,51.559,0,0,0-10.96-20.024Zm0,0" transform="translate(-244.201 -71.592)" fill="#ffc5c5"/>
    <path id="Path_1787" data-name="Path 1787" d="M279.085,60.77a58.391,58.391,0,0,0-17.967-32.723,4.99,4.99,0,0,0-3.307,1.172,58.38,58.38,0,0,0-19.823,34.357,4.958,4.958,0,0,0,.732,3.576,58.393,58.393,0,0,0,37.17-.849,4.974,4.974,0,0,0,3.2-5.534Zm-9.708.833a51.533,51.533,0,0,1-25.112,0,3.573,3.573,0,0,1-2.568-4.447,51.558,51.558,0,0,1,12.556-21.748,3.574,3.574,0,0,1,5.136,0,51.559,51.559,0,0,1,12.556,21.748,3.573,3.573,0,0,1-2.568,4.447Zm0,0" transform="translate(-200.395 -23.674)" fill="#ffc5c5"/>
    <path id="Path_1788" data-name="Path 1788" d="M98.484,295.024a14.959,14.959,0,0,0,7.129,12.753c.324.021.65.033.979.033a14.97,14.97,0,0,0,7.84-27.722c-.323-.021-.65-.033-.979-.033A14.969,14.969,0,0,0,98.484,295.024Zm0,0" transform="translate(-82.707 -236.391)" fill="#c2e4fd"/>
    <path id="Path_1789" data-name="Path 1789" d="M65.141,229.569A21.834,21.834,0,0,0,54.8,271.72a22.05,22.05,0,0,0,2.831.183,21.834,21.834,0,0,0,7.51-42.334Zm-6.782,35.369a14.969,14.969,0,1,1,14.969-14.969A14.969,14.969,0,0,1,58.359,264.938Zm0,0" transform="translate(-33.746 -193.623)" fill="#c2e4fd"/>
    <path id="Path_1790" data-name="Path 1790" d="M43.061,256.1a1.566,1.566,0,0,0,1.107-.457l.014-.013a1.559,1.559,0,0,0-2.213-2.2l-.013.014a1.556,1.556,0,0,0,1.105,2.654Zm0,0" transform="translate(-34.609 -213.53)" fill="#2b376f"/>
    <path id="Path_1791" data-name="Path 1791" d="M61.008,289.11A16.528,16.528,0,1,0,44.48,272.582,16.547,16.547,0,0,0,61.008,289.11Zm0-29.938A13.41,13.41,0,1,1,47.6,272.582,13.425,13.425,0,0,1,61.008,259.172Zm0,0" transform="translate(-37.122 -216.132)" fill="#2b376f"/>
    <path id="Path_1792" data-name="Path 1792" d="M142.043,328.177a1.56,1.56,0,1,0-1.1-.457A1.571,1.571,0,0,0,142.043,328.177Zm0,0" transform="translate(-118.158 -274.378)" fill="#2b376f"/>
    <path id="Path_1793" data-name="Path 1793" d="M142.043,382.181a1.559,1.559,0,1,0-1.1-.457A1.57,1.57,0,0,0,142.043,382.181Zm0,0" transform="translate(-118.158 -319.962)" fill="#2b376f"/>
    <path id="Path_1794" data-name="Path 1794" d="M345.747,142.875a1.56,1.56,0,1,0,1.1.457A1.572,1.572,0,0,0,345.747,142.875Zm0,0" transform="translate(-290.101 -120.599)" fill="#2b376f"/>
    <path id="Path_1795" data-name="Path 1795" d="M345.747,196.879a1.56,1.56,0,1,0,1.1.457A1.572,1.572,0,0,0,345.747,196.879Zm0,0" transform="translate(-290.101 -166.183)" fill="#2b376f"/>
    <path id="Path_1796" data-name="Path 1796" d="M80.226,36.822A59.938,59.938,0,0,0,59.872,1.546a6.542,6.542,0,0,0-8.45,0,60.025,60.025,0,0,0-19.853,32.8,23.5,23.5,0,0,0-18.92,1.581,1.559,1.559,0,1,0,1.5,2.735,20.273,20.273,0,1,1-4.6,32.118A20.154,20.154,0,0,1,6,46.9a1.559,1.559,0,0,0-2.75-1.47,23.58,23.58,0,0,0-2.523,14.3,23.4,23.4,0,0,0,39.7,13.26,23.428,23.428,0,0,0,4.74-26.247,59.9,59.9,0,0,0,10.515.932A59.685,59.685,0,0,0,76.026,44.1a6.509,6.509,0,0,0,4.2-7.273Zm-5.262,4.341a56.6,56.6,0,0,1-31.839,1.984,23.574,23.574,0,0,0-8.636-7.557A56.9,56.9,0,0,1,53.431,3.931a3.431,3.431,0,0,1,4.431,0A56.815,56.815,0,0,1,77.155,37.369a3.4,3.4,0,0,1-2.191,3.795Zm0,0" transform="translate(0 0)" fill="#2b376f"/>
    <path id="Path_1797" data-name="Path 1797" d="M266.8,58.344a5.132,5.132,0,0,0-7.374,0A53.234,53.234,0,0,0,246.493,80.75a5.132,5.132,0,0,0,3.687,6.387,53.219,53.219,0,0,0,25.874,0,5.133,5.133,0,0,0,3.687-6.387A53.242,53.242,0,0,0,266.8,58.344Zm9.745,24.822a2,2,0,0,1-1.256.946,50.093,50.093,0,0,1-24.352,0,2.014,2.014,0,0,1-1.448-2.508,50.1,50.1,0,0,1,12.176-21.09,2.014,2.014,0,0,1,2.9,0A50.107,50.107,0,0,1,276.741,81.6a2,2,0,0,1-.192,1.562Zm0,0" transform="translate(-207.47 -47.929)" fill="#2b376f"/>
  </g>
</svg>
