<svg xmlns="http://www.w3.org/2000/svg" width="74.722" height="80.041" viewBox="0 0 74.722 80.041">
  <g id="label" transform="translate(0.125 0.125)">
    <path id="Path_1810" data-name="Path 1810" d="M116.484,102.242A6.242,6.242,0,1,1,110.242,96,6.243,6.243,0,0,1,116.484,102.242Zm0,0" transform="translate(-83.305 -77.635)" fill="#ffc5c5"/>
    <path id="Path_1812" data-name="Path 1812" d="M64,208H90.6v10.639H64Zm0,0" transform="translate(-50.361 -171.424)" fill="#c2e4fd"/>
    <path id="Path_1817" data-name="Path 1817" d="M90.6,317.319a4.749,4.749,0,0,1-3.6-1.718c-.653-.653-.973-.942-1.717-.942s-1.064.288-1.729.942a4.631,4.631,0,0,1-7.2,0c-.652-.651-.971-.94-1.718-.94s-1.064.289-1.717.94a4.626,4.626,0,0,1-7.2,0c-.652-.653-.969-.942-1.716-.942V312a4.742,4.742,0,0,1,3.6,1.719c.65.652.969.94,1.717.94s1.064-.288,1.716-.94a4.627,4.627,0,0,1,7.2,0c.65.652.971.94,1.717.94s1.064-.288,1.729-.942a4.635,4.635,0,0,1,7.2,0c.653.653.973.942,1.729.942Zm0,0" transform="translate(-53.361 -260.136)" fill="#fdbd40"/>
    <path id="Path_1818" data-name="Path 1818" d="M90.6,357.319a4.749,4.749,0,0,1-3.6-1.718c-.653-.653-.973-.942-1.717-.942s-1.064.288-1.729.942a4.631,4.631,0,0,1-7.2,0c-.652-.651-.971-.94-1.718-.94s-1.064.289-1.717.94a4.626,4.626,0,0,1-7.2,0c-.652-.653-.969-.942-1.716-.942V352a4.742,4.742,0,0,1,3.6,1.719c.65.652.969.94,1.717.94s1.064-.288,1.716-.94a4.627,4.627,0,0,1,7.2,0c.65.652.971.94,1.717.94s1.064-.288,1.729-.942a4.635,4.635,0,0,1,7.2,0c.653.653.973.942,1.729.942Zm0,0" transform="translate(-53.361 -293.487)" fill="#fdbd40"/>
    <path id="Path_1819" data-name="Path 1819" d="M172.57,73.142a5.991,5.991,0,0,1-5.984-5.984V6.649a3.99,3.99,0,0,0-3.99-3.99H144.073a5.286,5.286,0,0,0-3.76,1.557l-.1.1a5.286,5.286,0,0,0-1.557,3.76v7.885H136V8.073a7.926,7.926,0,0,1,2.336-5.641l.1-.1A7.926,7.926,0,0,1,144.073,0H162.6a6.657,6.657,0,0,1,6.649,6.649V67.157a3.325,3.325,0,0,0,6.649,0V45.215a6.657,6.657,0,0,1,6.649-6.649h5.319v2.66h-5.319a3.99,3.99,0,0,0-3.99,3.99V67.157a5.991,5.991,0,0,1-5.984,5.984Zm0,0" transform="translate(-113.392 0)" fill="#5a6470"/>
    <path id="Path_1820" data-name="Path 1820" d="M0,15.958v62.5a1.33,1.33,0,0,0,1.33,1.33c4.1,0,8.078-2.106,11.926-4.144,3.725-1.973,7.244-3.835,10.682-3.835s6.956,1.862,10.682,3.835c3.848,2.038,7.827,4.144,11.926,4.144a1.33,1.33,0,0,0,1.33-1.33v-62.5a6.657,6.657,0,0,0-6.649-6.649H25.267V8.073a5.286,5.286,0,0,1,1.557-3.76l.1-.1a5.286,5.286,0,0,1,3.76-1.557H49.2a3.99,3.99,0,0,1,3.99,3.99V67.157a5.984,5.984,0,1,0,11.969,0V45.215a3.99,3.99,0,0,1,3.99-3.99h5.319v-2.66H69.152A6.657,6.657,0,0,0,62.5,45.215V67.157a3.325,3.325,0,1,1-6.649,0V6.649A6.657,6.657,0,0,0,49.2,0H30.681A7.926,7.926,0,0,0,25.04,2.336l-.1.1a7.926,7.926,0,0,0-2.336,5.641V9.309H6.649A6.657,6.657,0,0,0,0,15.958Zm2.66,0a3.99,3.99,0,0,1,3.99-3.99H22.607v2.779a7.979,7.979,0,1,0,2.66,0V11.969H41.225a3.99,3.99,0,0,1,3.99,3.99V77.044c-3.016-.392-6.105-2.028-9.352-3.747-3.848-2.038-7.828-4.144-11.926-4.144S15.859,71.259,12.012,73.3c-3.247,1.719-6.336,3.355-9.352,3.747Zm21.278,1.33a5.319,5.319,0,1,1-5.319,5.319A5.32,5.32,0,0,1,23.937,17.288Zm0,0" transform="translate(0 0)" fill="#2b376f" stroke="#2b376f" stroke-width="0.25"/>
    <path id="Path_1822" data-name="Path 1822" d="M83.927,213.3a1.33,1.33,0,0,0,1.33-1.33V201.33a1.33,1.33,0,0,0-1.33-1.33H57.33A1.33,1.33,0,0,0,56,201.33v10.639a1.33,1.33,0,0,0,1.33,1.33ZM58.66,202.66H82.6v7.979H58.66Zm0,0" transform="translate(-46.691 -166.754)" fill="#2b376f"/>
    <path id="Path_1827" data-name="Path 1827" d="M85.278,312a4.745,4.745,0,0,0-3.6,1.718c-.655.653-.973.942-1.729.942s-1.064-.288-1.717-.94a4.627,4.627,0,0,0-7.2,0c-.652.652-.969.94-1.716.94s-1.064-.288-1.717-.94A4.742,4.742,0,0,0,64,312v2.66c.746,0,1.064.288,1.716.94a4.625,4.625,0,0,0,7.2,0c.651-.652.971-.94,1.717-.94s1.064.288,1.718.94a4.631,4.631,0,0,0,7.2,0c.653-.653.973-.942,1.729-.942s1.064.288,1.729.942a4.75,4.75,0,0,0,3.591,1.72v-2.66c-.75,0-1.064-.288-1.729-.942A4.746,4.746,0,0,0,85.278,312Zm0,0" transform="translate(-53.361 -260.136)" fill="#2b376f"/>
    <path id="Path_1828" data-name="Path 1828" d="M69.32,357.319A4.738,4.738,0,0,0,72.91,355.6c.651-.652.971-.94,1.717-.94s1.064.288,1.718.94a4.631,4.631,0,0,0,7.2,0c.653-.653.973-.942,1.729-.942s1.064.288,1.729.942a4.749,4.749,0,0,0,3.593,1.719v-2.66c-.75,0-1.064-.288-1.729-.942a4.635,4.635,0,0,0-7.2,0c-.655.653-.974.942-1.729.942s-1.064-.288-1.717-.94a4.627,4.627,0,0,0-7.2,0c-.651.652-.969.94-1.716.94s-1.064-.288-1.716-.94A4.743,4.743,0,0,0,64,352v2.66c.746,0,1.064.288,1.716.94a4.744,4.744,0,0,0,3.6,1.719Zm0,0" transform="translate(-53.361 -293.487)" fill="#2b376f"/>
    <path id="Path_1829" data-name="Path 1829" d="M141.818,327.726a1.334,1.334,0,1,0-.943-.391A1.343,1.343,0,0,0,141.818,327.726Zm0,0" transform="translate(-124.789 -286.232)" fill="#2b376f"/>
    <path id="Path_1830" data-name="Path 1830" d="M141.818,327.726a1.334,1.334,0,1,0-.943-.391A1.343,1.343,0,0,0,141.818,327.726Zm0,0" transform="translate(-120.789 -286.232)" fill="#2b376f"/>
    <path id="Path_1831" data-name="Path 1831" d="M141.818,327.726a1.334,1.334,0,1,0-.943-.391A1.343,1.343,0,0,0,141.818,327.726Zm0,0" transform="translate(-116.789 -286.232)" fill="#2b376f"/>
    <path id="Path_1832" data-name="Path 1832" d="M141.818,327.726a1.334,1.334,0,1,0-.943-.391A1.343,1.343,0,0,0,141.818,327.726Zm0,0" transform="translate(-112.789 -286.232)" fill="#2b376f"/>
  </g>
</svg>
