<svg id="leather_1_" data-name="leather (1)" xmlns="http://www.w3.org/2000/svg" width="89.678" height="48.759" viewBox="0 0 89.678 48.759">
  <path id="Subtraction_1" data-name="Subtraction 1" d="M84.329,43.108H-1V-1H84.329V43.107ZM3.239,4.189V37.114H79.127V4.189Z" transform="translate(5.349 5.65)" fill="#c2e4fd"/>
  <path id="Path_1867" data-name="Path 1867" d="M0,0V47.4H88.393V0ZM85.542,44.553H2.851V2.851h82.69Zm0,0" fill="#2b376f"/>
  <g id="Group_613" data-name="Group 613" transform="translate(5.703 7.307)">
    <path id="Path_1868" data-name="Path 1868" d="M232,40h5.7v2.851H232Zm0,0" transform="translate(-196.358 -40)" fill="#2b376f"/>
    <path id="Path_1869" data-name="Path 1869" d="M184,40h5.7v2.851H184Zm0,0" transform="translate(-156.912 -40)" fill="#2b376f"/>
    <path id="Path_1870" data-name="Path 1870" d="M136,40h5.7v2.851H136Zm0,0" transform="translate(-117.466 -40)" fill="#2b376f"/>
    <path id="Path_1871" data-name="Path 1871" d="M88,40h5.7v2.851H88Zm0,0" transform="translate(-78.02 -40)" fill="#2b376f"/>
    <path id="Path_1872" data-name="Path 1872" d="M34.851,42.851h4.277V40H32v7.128h2.851Zm0,0" transform="translate(-32 -40)" fill="#2b376f"/>
    <path id="Path_1873" data-name="Path 1873" d="M428.277,47.128h2.851V40H424v2.851h4.277Zm0,0" transform="translate(-354.141 -40)" fill="#2b376f"/>
    <path id="Path_1874" data-name="Path 1874" d="M376,40h5.7v2.851H376Zm0,0" transform="translate(-314.695 -40)" fill="#2b376f"/>
    <path id="Path_1875" data-name="Path 1875" d="M328,40h5.7v2.851H328Zm0,0" transform="translate(-275.249 -40)" fill="#2b376f"/>
    <path id="Path_1876" data-name="Path 1876" d="M280,40h5.7v2.851H280Zm0,0" transform="translate(-235.803 -40)" fill="#2b376f"/>
    <path id="Path_1881" data-name="Path 1881" d="M32,96h2.851v5.7H32Zm0,0" transform="translate(-32 -86.02)" fill="#2b376f"/>
    <path id="Path_1882" data-name="Path 1882" d="M32,144h2.851v5.7H32Zm0,0" transform="translate(-32 -125.466)" fill="#2b376f"/>
    <path id="Path_1888" data-name="Path 1888" d="M448,96h2.851v5.7H448Zm0,0" transform="translate(-373.864 -86.02)" fill="#2b376f"/>
    <path id="Path_1889" data-name="Path 1889" d="M448,144h2.851v5.7H448Zm0,0" transform="translate(-373.864 -125.466)" fill="#2b376f"/>
    <path id="Path_1891" data-name="Path 1891" d="M232,448h5.7v2.851H232Zm0,0" transform="translate(-196.358 -418.06)" fill="#2b376f"/>
    <path id="Path_1892" data-name="Path 1892" d="M184,448h5.7v2.851H184Zm0,0" transform="translate(-156.912 -418.06)" fill="#2b376f"/>
    <path id="Path_1893" data-name="Path 1893" d="M136,448h5.7v2.851H136Zm0,0" transform="translate(-117.466 -418.06)" fill="#2b376f"/>
    <path id="Path_1894" data-name="Path 1894" d="M88,448h5.7v2.851H88Zm0,0" transform="translate(-78.02 -418.06)" fill="#2b376f"/>
    <path id="Path_1895" data-name="Path 1895" d="M39.128,434.851H34.851V432H32v5.7h7.128Zm0,0" transform="translate(-32 -404.912)" fill="#2b376f"/>
    <path id="Path_1896" data-name="Path 1896" d="M431.129,432h-2.851v2.851H424V437.7h7.129Zm0,0" transform="translate(-354.141 -404.912)" fill="#2b376f"/>
    <path id="Path_1897" data-name="Path 1897" d="M376,448h5.7v2.851H376Zm0,0" transform="translate(-314.695 -418.06)" fill="#2b376f"/>
    <path id="Path_1898" data-name="Path 1898" d="M328,448h5.7v2.851H328Zm0,0" transform="translate(-275.249 -418.06)" fill="#2b376f"/>
    <path id="Path_1899" data-name="Path 1899" d="M280,448h5.7v2.851H280Zm0,0" transform="translate(-235.803 -418.06)" fill="#2b376f"/>
  </g>
  <path id="Path_1900" data-name="Path 1900" d="M64,208H87.046v9.218H64Zm0,0" transform="translate(-28.995 -187.798)" fill="#ffc5c5"/>
  <path id="Path_1901" data-name="Path 1901" d="M80.2,211.523a1.152,1.152,0,0,0,1.152-1.152v-9.218A1.152,1.152,0,0,0,80.2,200H57.152A1.152,1.152,0,0,0,56,201.152v9.218a1.152,1.152,0,0,0,1.152,1.152ZM58.3,202.3H79.046v6.914H58.3Zm0,0" transform="translate(-24.747 -182.683)" fill="#2b376f"/>
  <path id="Path_1902" data-name="Path 1902" d="M141.64,327.37a1.156,1.156,0,1,0-.817-.339A1.164,1.164,0,0,0,141.64,327.37Zm0,0" transform="translate(-103.697 -302.907)" fill="#2b376f"/>
  <path id="Path_1903" data-name="Path 1903" d="M141.64,327.37a1.156,1.156,0,1,0-.817-.339A1.164,1.164,0,0,0,141.64,327.37Zm0,0" transform="translate(-100.231 -302.907)" fill="#2b376f"/>
  <path id="Path_1904" data-name="Path 1904" d="M141.64,327.37a1.156,1.156,0,1,0-.817-.339A1.164,1.164,0,0,0,141.64,327.37Zm0,0" transform="translate(-96.765 -302.907)" fill="#2b376f"/>
  <path id="Path_1905" data-name="Path 1905" d="M141.64,327.37a1.156,1.156,0,1,0-.817-.339A1.164,1.164,0,0,0,141.64,327.37Zm0,0" transform="translate(-93.3 -302.907)" fill="#2b376f"/>
</svg>
