<svg id="pocket" xmlns="http://www.w3.org/2000/svg" width="60.076" height="66.867" viewBox="0 0 60.076 66.867">
  <g id="Group_611" data-name="Group 611" transform="translate(1.306 1.306)">
    <path id="Path_1842" data-name="Path 1842" d="M10,180V208.89l27.022,9.55,27.022-9.55V180l-27.022,9.55Zm0,0" transform="translate(-7.58 -153.185)" fill="#c2e4fd" fill-rule="evenodd"/>
    <path id="Path_1843" data-name="Path 1843" d="M200.448,119.263a5.224,5.224,0,1,1-5.224-5.224A5.224,5.224,0,0,1,200.448,119.263Zm0,0" transform="translate(-163.492 -99.452)" fill="#ffc5c5" fill-rule="evenodd"/>
  </g>
  <path id="Path_1844" data-name="Path 1844" d="M58.77,0h-44.4a1.306,1.306,0,1,0,0,2.612h43.1V5.227l-.05,0H54.8a1.306,1.306,0,1,0,0,2.612h2.612l.05,0v14.76L30.038,32.567,2.612,22.594V7.836H5.174a1.306,1.306,0,0,0,0-2.612H2.612V2.612H3.918A1.306,1.306,0,0,0,3.918,0H1.306A1.306,1.306,0,0,0,0,1.306V55.113A1.306,1.306,0,0,0,.86,56.34L29.592,66.789a1.307,1.307,0,0,0,.893,0L59.216,56.34a1.306,1.306,0,0,0,.86-1.227V1.306A1.306,1.306,0,0,0,58.77,0ZM30.038,64.171,2.612,54.2V25.373l2.612.95v1.7a1.306,1.306,0,1,0,2.612,0v-.747l21.756,7.911a1.307,1.307,0,0,0,.893,0l21.755-7.911v.747a1.306,1.306,0,1,0,2.612,0v-1.7l2.612-.95V54.2Zm0,0" fill="#2b376f"/>
  <path id="Path_1845" data-name="Path 1845" d="M157.516,426.156l-2.454-.893a1.306,1.306,0,1,0-.893,2.454l2.455.893a1.306,1.306,0,1,0,.892-2.454Zm0,0" transform="translate(-133.287 -369.655)" fill="#2b376f"/>
  <path id="Path_1846" data-name="Path 1846" d="M41.306,344.551A1.306,1.306,0,0,0,40,345.857v2.612a1.306,1.306,0,1,0,2.612,0v-2.612A1.306,1.306,0,0,0,41.306,344.551Zm0,0" transform="translate(-34.776 -299.553)" fill="#2b376f"/>
  <path id="Path_1847" data-name="Path 1847" d="M82.333,398.816l-2.454-.893a1.306,1.306,0,1,0-.893,2.454l2.455.893a1.306,1.306,0,0,0,.892-2.454Zm0,0" transform="translate(-67.923 -345.886)" fill="#2b376f"/>
  <path id="Path_1848" data-name="Path 1848" d="M41.306,264.551A1.306,1.306,0,0,0,40,265.857v2.612a1.306,1.306,0,1,0,2.612,0v-2.612A1.306,1.306,0,0,0,41.306,264.551Zm0,0" transform="translate(-34.776 -230.001)" fill="#2b376f"/>
  <path id="Path_1849" data-name="Path 1849" d="M180,110.569a6.53,6.53,0,1,0,6.53-6.53A6.537,6.537,0,0,0,180,110.569Zm10.448,0a3.918,3.918,0,1,1-3.918-3.918A3.922,3.922,0,0,1,190.448,110.569Zm0,0" transform="translate(-156.492 -90.452)" fill="#2b376f"/>
  <path id="Path_1850" data-name="Path 1850" d="M253.535,42.612a1.306,1.306,0,1,0,0-2.612h-2.612a1.306,1.306,0,1,0,0,2.612Zm0,0" transform="translate(-217.017 -34.776)" fill="#2b376f"/>
  <path id="Path_1851" data-name="Path 1851" d="M173.535,40h-2.612a1.306,1.306,0,1,0,0,2.612h2.612a1.306,1.306,0,0,0,0-2.612Zm0,0" transform="translate(-147.465 -34.776)"/>
  <path id="Path_1852" data-name="Path 1852" d="M90.923,42.612h2.612a1.306,1.306,0,1,0,0-2.612H90.923a1.306,1.306,0,1,0,0,2.612Zm0,0" transform="translate(-77.913 -34.776)" fill="#2b376f"/>
  <path id="Path_1853" data-name="Path 1853" d="M333.535,42.612a1.306,1.306,0,0,0,0-2.612h-2.612a1.306,1.306,0,1,0,0,2.612Zm0,0" transform="translate(-286.569 -34.776)" fill="#2b376f"/>
  <path id="Path_1854" data-name="Path 1854" d="M271.2,425.263l-2.455.893a1.306,1.306,0,1,0,.893,2.454l2.455-.892a1.306,1.306,0,0,0-.893-2.455Zm0,0" transform="translate(-232.902 -369.655)" fill="#2b376f"/>
  <path id="Path_1855" data-name="Path 1855" d="M401.306,344.551A1.306,1.306,0,0,0,400,345.857v2.612a1.306,1.306,0,1,0,2.612,0v-2.612A1.306,1.306,0,0,0,401.306,344.551Zm0,0" transform="translate(-347.76 -299.553)" fill="#2b376f"/>
  <path id="Path_1856" data-name="Path 1856" d="M346.386,397.922l-2.455.893a1.306,1.306,0,1,0,.893,2.454l2.455-.893a1.306,1.306,0,0,0-.893-2.454Zm0,0" transform="translate(-298.266 -345.885)" fill="#2b376f"/>
  <path id="Path_1857" data-name="Path 1857" d="M401.306,264.551A1.306,1.306,0,0,0,400,265.857v2.612a1.306,1.306,0,1,0,2.612,0v-2.612A1.306,1.306,0,0,0,401.306,264.551Zm0,0" transform="translate(-347.76 -230.001)" fill="#2b376f"/>
  <path id="Path_1858" data-name="Path 1858" d="M221.306,449.43A1.306,1.306,0,0,0,220,450.736h0a1.306,1.306,0,1,0,1.306-1.307Zm0,0" transform="translate(-191.268 -390.734)" fill="#2b376f"/>
  <path id="Path_1859" data-name="Path 1859" d="M61.307,2.612a1.306,1.306,0,0,0,0-2.612h0a1.306,1.306,0,1,0,0,2.612Zm0,0" transform="translate(-52.164)" fill="#2b376f"/>
</svg>
