<svg xmlns="http://www.w3.org/2000/svg" width="53.22" height="71.411" viewBox="0 0 53.22 71.411">
  <g id="rubber-stamp" transform="translate(-0.5 0.001)">
    <path id="Path_1860" data-name="Path 1860" d="M59.208,418.613v6.018a2.662,2.662,0,0,1-2.706,2.617h-43.3a2.662,2.662,0,0,1-2.706-2.617v-6.018A2.662,2.662,0,0,1,13.206,416H56.5A2.662,2.662,0,0,1,59.208,418.613Zm0,0" transform="translate(-5.488 -355.838)" fill="#ffc5c5"/>
    <g id="Group_612" data-name="Group 612" transform="translate(19.766 3.62)">
      <path id="Path_1862" data-name="Path 1862" d="M132.435,20.607a10.13,10.13,0,0,1-.7,3.7c-2.737,6.994-4.786,14.221-4.786,21.7v1.151H115.979c-.141-7.942-2.245-15.646-4.9-23.179a10.342,10.342,0,0,1-.236-6.038,10.737,10.737,0,0,1,7.991-7.658,10.91,10.91,0,0,1,13.6,10.323Zm0,0" transform="translate(-110.505 -9.985)" fill="#c2e4fd"/>
      <path id="Path_1863" data-name="Path 1863" d="M161.415,290v9.046H150.45v-8.17q0-.439-.009-.876Zm0,0" transform="translate(-144.968 -252.822)" fill="#c2e4fd"/>
    </g>
    <path id="Path_1864" data-name="Path 1864" d="M216.5,62.733a1.371,1.371,0,1,0-1.371-1.371A1.371,1.371,0,0,0,216.5,62.733Zm0,0" transform="translate(-185.215 -51.77)" fill="#2b376f"/>
    <path id="Path_1865" data-name="Path 1865" d="M12.836,47.423a6.861,6.861,0,0,0-6.853,6.853v1.371H4.612A4.117,4.117,0,0,0,.5,59.759v6.3a4.116,4.116,0,0,0,4.112,4.112H48.473a4.116,4.116,0,0,0,4.112-4.112v-6.3a4.117,4.117,0,0,0-4.112-4.112H47.1V54.276a6.861,6.861,0,0,0-6.853-6.853H33.4V38.558c0-6.5,1.493-13.465,4.7-21.919a12.11,12.11,0,0,0,.785-4.305A12.337,12.337,0,1,0,14.856,16.26c2.167,6.353,4.675,14.766,4.826,23.513q.008.425.008.85v6.8ZM49.844,59.759v6.3a1.372,1.372,0,0,1-1.371,1.371H4.612a1.373,1.373,0,0,1-1.371-1.371v-6.3a1.372,1.372,0,0,1,1.371-1.371H48.473A1.372,1.372,0,0,1,49.844,59.759Zm-5.482-5.483v1.371H8.724V54.276a4.117,4.117,0,0,1,4.112-4.112H40.249A4.117,4.117,0,0,1,44.361,54.276ZM17.45,15.375a9.7,9.7,0,0,1-.2-5.464,9.472,9.472,0,0,1,6.973-6.9,9.618,9.618,0,0,1,11.916,9.322,9.373,9.373,0,0,1-.607,3.334c-3.3,8.7-4.847,15.919-4.874,22.709H22.38c-.37-8.631-2.808-16.783-4.929-23Zm4.98,25.743h8.224v6.3H22.431Zm0,0" transform="translate(0 0)" fill="#2b376f"/>
    <path id="Path_1866" data-name="Path 1866" d="M197.347,110.907a1.371,1.371,0,0,0,1.679-.969c.691-2.575,1.545-5.226,2.611-8.1a1.371,1.371,0,0,0-2.571-.952c-1.1,2.958-1.975,5.687-2.688,8.344a1.371,1.371,0,0,0,.969,1.68Zm0,0" transform="translate(-168.991 -86.284)" fill="#2b376f"/>
  </g>
</svg>
