<svg xmlns="http://www.w3.org/2000/svg" width="78.633" height="48.551" viewBox="0 0 78.633 48.551">
  <g id="tape-measure" transform="translate(0.001 0)">
    <path id="Path_1834" data-name="Path 1834" d="M97,72.664A7.992,7.992,0,0,0,90.834,85.75c.259.025.521.039.786.039H99.9A7.991,7.991,0,0,0,106.057,72.7c-.259-.025-.521-.04-.786-.04Zm0,0" transform="translate(-75.333 -61.505)" fill="#ffc5c5"/>
    <path id="Path_1835" data-name="Path 1835" d="M63.543,10.664h-4.79a14.754,14.754,0,0,0-1.737,29.405h4.79a14.754,14.754,0,0,0,1.737-29.405ZM61.959,33.107H53.685a8,8,0,0,1,0-15.991h8.274a8,8,0,0,1,0,15.991Zm0,0" transform="translate(-37.244 -9.027)" fill="#c2e4fd"/>
    <path id="Path_1836" data-name="Path 1836" d="M136.065,207.511V195.2H80.349c-2.417,0-10.89.324-15.684-2.431v3.471c0,4.97-1,9.217,8.925,11.27Zm0,0" transform="translate(-57.909 -158.961)" fill="#c2e4fd"/>
    <path id="Path_1837" data-name="Path 1837" d="M53.532,63.063h8.274a9.532,9.532,0,1,0,0-19.063H53.532a9.532,9.532,0,0,0,0,19.063Zm0-15.991h8.274a6.46,6.46,0,1,1,0,12.92H53.532a6.46,6.46,0,1,1,0-12.92Zm0,0" transform="translate(-37.244 -37.243)" fill="#2b376f"/>
    <path id="Path_1838" data-name="Path 1838" d="M77.1,29.506h-9.5a1.536,1.536,0,1,0,0,3.072H75.56v12.9l-59.877-.015a25.167,25.167,0,0,1-4.3-.929c.132.128-1.131.034-3.072-1.737A13.2,13.2,0,0,1,3.07,32.271V25.8a16.279,16.279,0,0,0,13.217,6.78H55.307a1.536,1.536,0,1,0,0-3.072H40.851V16.289A16.307,16.307,0,0,0,24.562,0H16.288A16.307,16.307,0,0,0,0,16.289V32.271A16.3,16.3,0,0,0,16.278,48.55H77.1a1.536,1.536,0,0,0,1.536-1.536V31.042A1.536,1.536,0,0,0,77.1,29.506Zm-39.316,0H34.071A16.432,16.432,0,0,0,37.779,25.8ZM16.288,3.071h8.274a13.217,13.217,0,0,1,0,26.435H16.288a13.217,13.217,0,1,1,0-26.435Zm0,0" transform="translate(0)" fill="#2b376f"/>
    <path id="Path_1839" data-name="Path 1839" d="M391.665,195.193a1.536,1.536,0,1,0-1.086-.45A1.539,1.539,0,0,0,391.665,195.193Zm0,0" transform="translate(-330.214 -162.616)" fill="#2b376f"/>
    <path id="Path_1840" data-name="Path 1840" d="M93.868,99.135h9.42a1.536,1.536,0,0,0,0-3.072h-9.42a1.536,1.536,0,1,0,0,3.072Zm0,0" transform="translate(-78.153 -81.31)" fill="#2b376f"/>
  </g>
</svg>
