<svg xmlns="http://www.w3.org/2000/svg" width="89.901" height="89.901" viewBox="0 0 89.901 89.901">
  <g id="washing-machine" transform="translate(0.125 0.125)">
    <path id="Path_1799" data-name="Path 1799" d="M168.744,249.143c-1.7.905-3.042,2.01-6.323,2.01-5.55,0-5.55-3.17-11.1-3.17s-5.546,3.17-11.092,3.17-5.548-3.17-11.1-3.17-5.546,3.17-11.091,3.17c-3.275,0-4.62-1.1-6.313-2.008,0,.142-.021.28-.021.423a28.528,28.528,0,1,0,57.056,0C168.766,249.425,168.746,249.287,168.744,249.143Z" transform="translate(-92.78 -201.153)" fill="#c2e4fd"/>
    <path id="Path_1800" data-name="Path 1800" d="M400.944,180.868l-4.273.95a5.614,5.614,0,0,0-4.4,5.481v13.45a5.614,5.614,0,0,0,4.4,5.481l4.273.95a35.095,35.095,0,0,0,0-26.311Z" transform="translate(-320.701 -146.312)" fill="#ffc5c5"/>
    <path id="Path_1802" data-name="Path 1802" d="M76.522,13.129A44.825,44.825,0,0,0,13.129,76.522,44.825,44.825,0,0,0,76.522,13.129ZM74.664,74.664A42.2,42.2,0,0,1,14.986,14.986,42.2,42.2,0,0,1,74.664,74.664Z" transform="translate(0 0)" fill="#2b376f" stroke="#2b376f" stroke-width="0.25"/>
    <path id="Path_1803" data-name="Path 1803" d="M84.5,48.1a36.4,36.4,0,1,0,36.4,36.4A36.445,36.445,0,0,0,84.5,48.1ZM116.356,95.73l-4.259-.71a2.888,2.888,0,0,1-2.421-2.858V76.839a2.888,2.888,0,0,1,2.421-2.858l4.259-.71a33.772,33.772,0,0,1,0,22.46ZM84.5,118.278a33.777,33.777,0,1,1,30.859-47.5l-3.048.508a31.105,31.105,0,0,0-7.281-9.726,1.313,1.313,0,1,0-1.752,1.957,28.467,28.467,0,0,1,6.5,8.559,5.505,5.505,0,0,0-2.728,4.768v7.227a7.183,7.183,0,0,1-2.905.525,7.371,7.371,0,0,1-4.265-1.231,10.614,10.614,0,0,0-11.132,0,7.986,7.986,0,0,1-8.518,0,10.6,10.6,0,0,0-11.124,0,1.313,1.313,0,1,0,1.3,2.28,7.984,7.984,0,0,1,8.516,0,10.6,10.6,0,0,0,11.125,0,8,8,0,0,1,8.527,0,9.9,9.9,0,0,0,5.567,1.576,10.519,10.519,0,0,0,2.905-.374v5.319a5.505,5.505,0,0,0,2.729,4.768A28.166,28.166,0,0,1,56.338,84.5h0a7.652,7.652,0,0,1,2.945,1.141,9.878,9.878,0,0,0,5.562,1.577,1.313,1.313,0,0,0,0-2.626,7.351,7.351,0,0,1-4.258-1.23,9.974,9.974,0,0,0-4.124-1.5A28.169,28.169,0,0,1,99.253,60.506a1.313,1.313,0,1,0,1.378-2.236,30.79,30.79,0,1,0,11.683,39.45l3.046.508A33.825,33.825,0,0,1,84.5,118.278Z" transform="translate(-39.675 -39.675)" fill="#2b376f" stroke="#2b376f" stroke-width="0.25"/>
    <path id="Path_1804" data-name="Path 1804" d="M204.524,176.355a4.12,4.12,0,1,0,4.12,4.12A4.125,4.125,0,0,0,204.524,176.355Zm0,5.614a1.494,1.494,0,1,1,1.494-1.494A1.5,1.5,0,0,1,204.524,181.969Z" transform="translate(-165.314 -145.475)" fill="#2b376f"/>
    <path id="Path_1805" data-name="Path 1805" d="M267.249,136.274a2.717,2.717,0,1,0,2.717,2.717A2.72,2.72,0,0,0,267.249,136.274Z" transform="translate(-218.213 -112.413)" fill="#2b376f"/>
  </g>
</svg>
